<svg width="41" height="40" viewBox="0 0 41 40" fill="none" xmlns="http://www.w3.org/2000/svg">
<rect x="0.5" width="40" height="40" rx="20" fill="#1A8EF1"/>
<path d="M30.4994 24.9738V27.9846C30.5005 28.2642 30.4431 28.5408 30.331 28.7969C30.2188 29.053 30.0542 29.2829 29.8478 29.4719C29.6415 29.6608 29.3978 29.8047 29.1325 29.8942C28.8672 29.9838 28.5861 30.017 28.3072 29.9919C25.2128 29.6563 22.2404 28.601 19.6289 26.9108C17.1992 25.3699 15.1393 23.3141 13.5953 20.8892C11.8959 18.271 10.8382 15.2901 10.5082 12.1879C10.483 11.9104 10.5161 11.6307 10.6052 11.3666C10.6943 11.1025 10.8376 10.8599 11.0258 10.6541C11.2141 10.4483 11.4432 10.2838 11.6986 10.1712C11.954 10.0586 12.2301 10.0004 12.5093 10.0001H15.5261C16.0141 9.9953 16.4872 10.1678 16.8572 10.4854C17.2273 10.803 17.469 11.244 17.5373 11.7263C17.6646 12.6898 17.9007 13.6359 18.2412 14.5464C18.3765 14.9056 18.4058 15.296 18.3256 15.6713C18.2454 16.0466 18.059 16.3911 17.7887 16.664L16.5116 17.9386C17.9431 20.4512 20.0276 22.5315 22.5451 23.9602L23.8222 22.6856C24.0956 22.4158 24.4408 22.2298 24.8169 22.1498C25.1929 22.0698 25.5841 22.099 25.944 22.234C26.8564 22.5738 27.8043 22.8095 28.7698 22.9365C29.2582 23.0053 29.7044 23.2509 30.0233 23.6265C30.3422 24.0021 30.5116 24.4817 30.4994 24.9738Z" fill="white"/>
</svg>
