<svg width="200" height="142" viewBox="0 0 200 142" fill="none" xmlns="http://www.w3.org/2000/svg">
<g clip-path="url(#clip0_566_4223)">
<rect width="200" height="142" rx="30" fill="#D5EAFF"/>
<mask id="mask0_566_4223" style="mask-type:luminance" maskUnits="userSpaceOnUse" x="-11" y="0" width="223" height="152">
<path d="M149.594 148.921C107.078 152.038 41.1402 154.651 13.0721 146.982C-17.3313 138.675 -13.6609 109.102 -4.35654 90.1731C5.05389 71.0288 -19.6485 34.0233 20.0604 12.565C42.9003 0.222543 63.3859 19.9737 102.871 5.39247C138.519 -7.77192 184.503 4.00308 195.747 31.6126C203.483 50.6058 193.731 71.0797 203.483 81.0034C214.894 92.6161 214.286 116.85 204.095 132.319C194.453 146.954 186.138 146.241 149.594 148.921Z" fill="white"/>
</mask>
<g mask="url(#mask0_566_4223)">
<path d="M120.704 23.4009L47.1804 44.0075L75.1216 140.181L148.263 117.07L120.704 23.4009Z" fill="#B0D1F1"/>
<path d="M120.704 23.4009L47.1804 44.0075L75.1216 140.181L148.263 117.07L120.704 23.4009Z" fill="url(#paint0_linear_566_4223)"/>
</g>
<mask id="mask1_566_4223" style="mask-type:luminance" maskUnits="userSpaceOnUse" x="-11" y="0" width="223" height="152">
<path d="M149.594 148.921C107.078 152.038 41.1402 154.651 13.0721 146.982C-17.3313 138.675 -13.6609 109.102 -4.35654 90.1731C5.05389 71.0288 -19.6485 34.0233 20.0604 12.565C42.9003 0.222543 63.3859 19.9737 102.871 5.39247C138.519 -7.77192 184.503 4.00308 195.747 31.6126C203.483 50.6058 193.731 71.0797 203.483 81.0034C214.894 92.6161 214.286 116.85 204.095 132.319C194.453 146.954 186.138 146.241 149.594 148.921Z" fill="white"/>
</mask>
<g mask="url(#mask1_566_4223)">
<path d="M120.588 23.3088L49.7498 44.2183L77.4263 137.982L148.264 117.073L120.588 23.3088Z" fill="#E5EDFF"/>
<path d="M84.405 73.589L66.0965 78.9933C66.0828 78.9974 66.0684 78.9895 66.0643 78.9758L65.7142 77.7895C65.7102 77.7759 65.718 77.7615 65.7316 77.7575L84.0403 72.3531C84.054 72.3491 84.0684 72.3569 84.0724 72.3706L84.4226 73.5568C84.4266 73.5706 84.4187 73.585 84.405 73.589Z" fill="#B0D1F1"/>
<path d="M84.405 73.589L66.0965 78.9933C66.0828 78.9974 66.0684 78.9895 66.0643 78.9758L65.7142 77.7895C65.7102 77.7759 65.718 77.7615 65.7316 77.7575L84.0403 72.3531C84.054 72.3491 84.0684 72.3569 84.0724 72.3706L84.4226 73.5568C84.4266 73.5706 84.4187 73.585 84.405 73.589Z" fill="url(#paint1_linear_566_4223)"/>
<path d="M112.871 65.1859L87.2432 72.7508C87.227 72.7555 87.2099 72.7462 87.2051 72.7301L86.8577 71.5528C86.8529 71.5367 86.8622 71.5197 86.8783 71.5149L112.506 63.95C112.523 63.9452 112.54 63.9545 112.544 63.9706L112.892 65.1478C112.897 65.164 112.887 65.1811 112.871 65.1859Z" fill="#B0D1F1"/>
<path d="M112.871 65.1859L87.2432 72.7508C87.227 72.7555 87.2099 72.7462 87.2051 72.7301L86.8577 71.5528C86.8529 71.5367 86.8622 71.5197 86.8783 71.5149L112.506 63.95C112.523 63.9452 112.54 63.9545 112.544 63.9706L112.892 65.1478C112.897 65.164 112.887 65.1811 112.871 65.1859Z" fill="url(#paint2_linear_566_4223)"/>
<path d="M123.606 54.0108L63.9506 71.62C63.9216 71.6286 63.8909 71.6119 63.8824 71.5829L63.5486 70.4522C63.5401 70.4232 63.5567 70.3925 63.5857 70.384L123.242 52.7747C123.271 52.7661 123.301 52.7829 123.31 52.8119L123.644 53.9426C123.652 53.9716 123.635 54.0023 123.606 54.0108Z" fill="#B0D1F1"/>
<path d="M123.606 54.0108L63.9506 71.62C63.9216 71.6286 63.8909 71.6119 63.8824 71.5829L63.5486 70.4522C63.5401 70.4232 63.5567 70.3925 63.5857 70.384L123.242 52.7747C123.271 52.7661 123.301 52.7829 123.31 52.8119L123.644 53.9426C123.652 53.9716 123.635 54.0023 123.606 54.0108Z" fill="url(#paint3_linear_566_4223)"/>
<path d="M118.662 59.2714L64.9801 75.1171C64.9526 75.1253 64.9235 75.1094 64.9154 75.0819L64.58 73.9459C64.5719 73.9184 64.5877 73.8893 64.6152 73.8811L118.297 58.0353C118.324 58.0272 118.353 58.043 118.361 58.0705L118.697 59.2066C118.705 59.2342 118.689 59.2633 118.662 59.2714Z" fill="#B0D1F1"/>
<path d="M118.662 59.2714L64.9801 75.1171C64.9526 75.1253 64.9235 75.1094 64.9154 75.0819L64.58 73.9459C64.5719 73.9184 64.5877 73.8893 64.6152 73.8811L118.297 58.0353C118.324 58.0272 118.353 58.043 118.361 58.0705L118.697 59.2066C118.705 59.2342 118.689 59.2633 118.662 59.2714Z" fill="url(#paint4_linear_566_4223)"/>
<path d="M120.969 67.0912L67.288 82.9369C67.2605 82.945 67.2314 82.9292 67.2233 82.9017L66.8879 81.7656C66.8797 81.7381 66.8956 81.709 66.9231 81.7009L120.605 65.8552C120.632 65.847 120.661 65.8629 120.669 65.8903L121.005 67.0264C121.013 67.0539 120.997 67.083 120.969 67.0912Z" fill="#B0D1F1"/>
<path d="M120.969 67.0912L67.288 82.9369C67.2605 82.945 67.2314 82.9292 67.2233 82.9017L66.8879 81.7656C66.8797 81.7381 66.8956 81.709 66.9231 81.7009L120.605 65.8552C120.632 65.847 120.661 65.8629 120.669 65.8903L121.005 67.0264C121.013 67.0539 120.997 67.083 120.969 67.0912Z" fill="url(#paint5_linear_566_4223)"/>
<path d="M81.187 62.6875L62.8784 68.0919C62.8648 68.0959 62.8503 68.088 62.8463 68.0744L62.4962 66.8881C62.4921 66.8745 62.5 66.8601 62.5136 66.8561L80.8223 61.4517C80.836 61.4477 80.8504 61.4556 80.8544 61.4692L81.2045 62.6554C81.2085 62.669 81.2006 62.6835 81.187 62.6875Z" fill="#B0D1F1"/>
<path d="M81.187 62.6875L62.8784 68.0919C62.8648 68.0959 62.8503 68.088 62.8463 68.0744L62.4962 66.8881C62.4921 66.8745 62.5 66.8601 62.5136 66.8561L80.8223 61.4517C80.836 61.4477 80.8504 61.4556 80.8544 61.4692L81.2045 62.6554C81.2085 62.669 81.2006 62.6835 81.187 62.6875Z" fill="url(#paint6_linear_566_4223)"/>
<path d="M109.654 54.2849L84.0257 61.8498C84.0095 61.8546 83.9924 61.8453 83.9876 61.8291L83.6402 60.6519C83.6354 60.6358 83.6446 60.6188 83.6607 60.614L109.289 53.0491C109.305 53.0443 109.322 53.0537 109.327 53.0698L109.674 54.2469C109.679 54.263 109.67 54.2802 109.654 54.2849Z" fill="#B0D1F1"/>
<path d="M109.654 54.2849L84.0257 61.8498C84.0095 61.8546 83.9924 61.8453 83.9876 61.8291L83.6402 60.6519C83.6354 60.6358 83.6446 60.6188 83.6607 60.614L109.289 53.0491C109.305 53.0443 109.322 53.0537 109.327 53.0698L109.674 54.2469C109.679 54.263 109.67 54.2802 109.654 54.2849Z" fill="url(#paint7_linear_566_4223)"/>
</g>
<mask id="mask2_566_4223" style="mask-type:luminance" maskUnits="userSpaceOnUse" x="-11" y="0" width="223" height="152">
<path d="M149.594 148.921C107.078 152.038 41.1402 154.651 13.0721 146.982C-17.3313 138.675 -13.6609 109.102 -4.35654 90.1731C5.05389 71.0288 -19.6485 34.0233 20.0604 12.565C42.9003 0.222543 63.3859 19.9737 102.871 5.39247C138.519 -7.77192 184.503 4.00308 195.747 31.6126C203.483 50.6058 193.731 71.0797 203.483 81.0034C214.894 92.6161 214.286 116.85 204.095 132.319C194.453 146.954 186.138 146.241 149.594 148.921Z" fill="white"/>
</mask>
<g mask="url(#mask2_566_4223)">
<path d="M149.317 76.5991C149.317 76.5991 146.117 82.5678 144.033 83.5867C141.949 84.6057 135.519 86.7723 133.799 88.5591C133.264 89.1153 129.406 93.7269 129.579 95.3641C129.695 96.4718 132.725 96.9936 134.731 94.6858C138.219 90.674 141.605 90.2341 143.887 89.6875C147.781 88.7551 149.927 87.9483 148.463 89.0175C148.463 89.0175 143.488 91.6379 141.639 93.241C141.139 93.6741 137.818 97.7376 138.23 99.1471C138.453 99.9096 140.832 101.139 144.113 97.7351C146.27 95.498 148.885 95.7644 151.329 95.5957C153.445 95.4496 160.254 97.1671 160.254 97.1671L160.661 88.1869L149.317 76.5991Z" fill="#E96F5F"/>
<path d="M173.536 137.229C172.606 134.91 171.721 132.739 170.932 130.849C170.489 129.796 170.077 128.829 169.704 127.975C169.1 126.596 168.596 125.509 168.228 124.814C167.286 123.039 166.238 120.196 164.547 117.964L164.546 117.963C163.402 116.45 161.964 115.22 160.063 114.787C155.351 113.713 146.369 106.146 140.263 99.0751C136.932 95.2199 131.775 91.4794 129.71 90.1481C128.086 89.1013 121.214 85.5967 120.519 84.0379C120.111 83.1198 122.477 80.526 123.947 80.0703C127.096 79.0919 131.416 80.8733 138.103 84.657C144.473 88.2625 151.526 87.6212 149.372 84.0128C143.694 74.5007 122.966 82.5033 120.462 77.9322C119.788 76.703 124.225 74.3265 128.331 72.728C130.019 72.0708 140.922 69.3266 145.823 69.2553C148.89 69.2106 168.812 72.8599 175.066 77.3048C177.945 79.351 188.076 100.955 188.298 101.659L188.299 101.662C189.52 105.528 191.022 109.298 192.799 112.938C193.359 114.092 193.948 115.231 194.565 116.358C194.843 116.865 195.126 117.371 195.416 117.872C187.972 126.401 180.653 132.617 173.536 137.229Z" fill="#FFA089"/>
<path d="M196.591 115.115L188.26 101.596L162.558 118.48L169.982 131.432L196.591 115.115Z" fill="#1A8EF1"/>
<path d="M167.627 129.577C167.627 129.577 171.932 141.087 176.62 153.528C190.668 155.731 206.835 157.161 226.695 157.328C227.667 157.336 228.636 157.327 229.603 157.3L195.426 111.474L194.656 111.977L193.836 112.511L192.892 113.125L192.89 113.126L192.088 113.648L192.087 113.652L192.086 113.65L169.789 128.17L168.993 128.688L168.992 128.687L168.898 128.747L168.566 128.962L168.109 129.261L168.105 129.263L167.627 129.577Z" fill="#100259"/>
<path d="M169.551 121.095C170.019 121.492 170.078 122.193 169.681 122.661C169.285 123.13 168.584 123.188 168.115 122.792C167.647 122.396 167.588 121.695 167.985 121.226C168.381 120.758 169.082 120.699 169.551 121.095Z" fill="#100259"/>
<path d="M86.3708 103.463C85.7944 104.429 84.4803 105.508 83.0888 106.426C82.909 106.543 82.7276 106.66 82.5472 106.772C81.2401 107.586 79.9376 108.228 79.1734 108.48C76.9176 109.221 62.9921 122.487 60.7889 124.896C58.9514 126.903 53.3581 132.436 51.5507 134.218C51.1896 134.574 50.9802 134.78 50.9802 134.78L28.2876 126.7C28.2876 126.7 28.567 126.075 28.9704 125.136C29.7509 123.32 30.9879 120.332 31.5358 118.439C32.3704 115.57 31.8123 100.683 32.2571 96.4443C32.6994 92.206 30.0946 72.4631 33.939 72.0636C37.781 71.661 37.7945 92.6319 40.0213 92.0103C42.2466 91.388 44.1198 62.4131 49.0849 62.4767C54.6301 62.5454 47.1761 88.4735 49.4131 88.566C51.6477 88.6592 57.0326 58.6511 63.0878 60.4088C67.697 61.7459 56.2546 89.7978 58.8688 90.4837C61.4837 91.1683 70.336 67.9635 75.2434 69.6829C78.7045 70.8934 72.916 82.1002 69.9265 91.1905C67.6034 98.2483 65.9909 104.101 65.3848 106.364C65.2918 106.714 65.7004 106.989 66.0125 106.788C78.2212 98.9285 84.3547 99.8858 86.3172 101.725C86.4157 101.816 86.4927 101.913 86.5507 102.016C86.785 102.434 86.6888 102.933 86.3708 103.463Z" fill="#FFA089"/>
<path d="M49.1639 66.8213L47.9867 66.6007C47.6406 66.5358 47.4128 66.211 47.4804 65.8787L47.7994 64.3106C47.9267 63.6848 48.5642 63.2728 49.2161 63.395C49.868 63.5172 50.2972 64.1291 50.1699 64.755L49.8383 66.3855C49.7776 66.6833 49.4742 66.8795 49.1639 66.8213Z" fill="#FCB7A9"/>
<path d="M62.1573 64.7725L60.8353 64.3328C60.4467 64.2035 60.2389 63.7925 60.3736 63.4194L60.8178 62.189C61.0714 61.4862 61.8781 61.1104 62.6102 61.3541C63.3423 61.5976 63.7338 62.3718 63.48 63.0745L63.0106 64.375C62.8898 64.7096 62.5058 64.8885 62.1573 64.7725Z" fill="#FCB7A9"/>
<path d="M73.8385 74.1313L72.6069 73.4941C72.2447 73.3067 72.1082 72.869 72.3034 72.5215L72.9471 71.3752C73.3148 70.7205 74.1736 70.4736 74.8556 70.8265C75.5377 71.1794 75.7949 72.0039 75.4272 72.6585L74.7468 73.8702C74.5719 74.1818 74.1631 74.2993 73.8385 74.1313Z" fill="#FCB7A9"/>
<path d="M86.371 103.464C85.7945 104.43 84.4804 105.508 83.089 106.426L82.4386 105.63C82.1535 105.281 82.2177 104.772 82.5809 104.499L84.2094 103.272C84.8683 102.774 85.8227 102.866 86.371 103.464Z" fill="#FCB7A9"/>
<path d="M34.7506 75.8169L33.67 75.8473C33.3551 75.8561 33.09 75.616 33.0808 75.3137L33.0415 74.0233C33.0241 73.4539 33.4954 72.9744 34.0886 72.9577L34.098 72.9575C34.6912 72.9408 35.1907 73.3932 35.208 73.9625L35.249 75.3097C35.2572 75.5808 35.033 75.8089 34.7506 75.8169Z" fill="#FCB7A9"/>
<path d="M23.4861 133.292L29.7272 118.69L57.6433 131.588L52.2155 145.495L23.4861 133.292Z" fill="#1A8EF1"/>
<path d="M54.2703 143.313C54.2703 143.313 51.7147 155.333 48.9174 168.331C35.3489 172.586 19.5712 176.39 -0.0458903 179.492C-1.0062 179.644 -1.96507 179.778 -2.92627 179.895L24.1003 129.519L24.9361 129.902L25.8265 130.31L26.8508 130.777L26.853 130.778L27.7234 131.176L27.7246 131.179L27.7256 131.177L51.9238 142.241L52.7875 142.635L52.7892 142.635L52.8901 142.68L53.2511 142.844L53.7471 143.071L53.7515 143.073L54.2703 143.313Z" fill="#100259"/>
<path d="M51.1136 135.208C50.7089 135.67 50.7547 136.372 51.2159 136.776C51.6771 137.181 52.3791 137.135 52.7839 136.674C53.1886 136.213 53.1428 135.511 52.6816 135.106C52.2203 134.701 51.5183 134.747 51.1136 135.208Z" fill="#100259"/>
<path d="M115.053 79.2902L115.097 85.0859L188.033 88.0464L188.428 73.915L115.053 79.2902Z" fill="#FB4848"/>
<path d="M111.18 83.2946L114.702 85.0198L115.053 79.2905L111.138 81.4343C110.393 81.8422 110.417 82.9209 111.18 83.2946Z" fill="#100259"/>
<path d="M193.539 81.2267C193.733 77.3216 191.586 74.0416 188.743 73.9004C185.9 73.7592 183.438 76.8104 183.244 80.7154C183.051 84.6205 185.198 87.9006 188.041 88.0417C190.883 88.1829 193.345 85.1317 193.539 81.2267Z" fill="#100259"/>
<path d="M186.916 80.5626C186.822 82.4406 187.855 84.018 189.222 84.086C190.589 84.1538 191.773 82.6865 191.866 80.8084C191.96 78.9304 190.927 77.3529 189.56 77.285C188.193 77.2171 187.009 78.6846 186.916 80.5626Z" fill="#FB4848"/>
<path d="M113.089 82.0769C113.01 83.6796 113.902 85.0264 115.081 85.085C116.261 85.1436 117.282 83.8918 117.362 82.289C117.441 80.6862 116.549 79.3394 115.37 79.2808C114.19 79.2222 113.169 80.474 113.089 82.0769Z" fill="#FB4848"/>
<path d="M195.414 77.2924L189.559 77.2842L189.174 84.0762L195.028 84.0845L195.414 77.2924Z" fill="#FB4848"/>
<path d="M193.096 80.6309C193.003 82.5089 194.036 84.0865 195.403 84.1543C196.77 84.2222 197.954 82.7547 198.047 80.8767C198.141 78.9987 197.108 77.4212 195.741 77.3533C194.373 77.2855 193.19 78.7529 193.096 80.6309Z" fill="#FF5B61"/>
<path d="M148.495 84.4681L178.678 85.3088C179.12 85.3211 179.487 84.9704 179.494 84.5285L179.521 82.9716C179.529 82.5202 179.159 82.1531 178.708 82.1638L148.499 82.88C148.035 82.891 147.68 83.2951 147.727 83.7562C147.769 84.1526 148.097 84.457 148.495 84.4681Z" fill="#100259"/>
<path d="M179.494 84.5282L180.03 81.6851C180.03 81.6851 179.922 80.6379 178.959 80.5943C177.996 80.5506 177.254 80.4583 177.068 80.7367C176.883 81.0152 176.797 82.2088 176.797 82.2088L179.494 84.5282Z" fill="#100259"/>
<path d="M158.109 114.092C153.15 111.828 145.606 105.26 140.263 99.0752C136.933 95.2201 131.776 91.4781 129.711 90.1465C128.087 89.1016 121.213 85.5963 120.518 84.0373C120.112 83.1185 122.478 80.5251 123.948 80.0697C127.097 79.0915 131.418 80.8718 138.103 84.6554C144.473 88.262 147.975 88.5732 151.109 87.8554C152.19 87.6078 158.049 98.0972 161.175 90.9804C162.745 87.406 174.979 88.6289 175.425 91.0464C179.113 111.055 158.109 114.092 158.109 114.092Z" fill="#FFA089"/>
</g>
<mask id="mask3_566_4223" style="mask-type:luminance" maskUnits="userSpaceOnUse" x="-11" y="0" width="223" height="152">
<path d="M149.594 148.921C107.078 152.038 41.1402 154.651 13.0721 146.982C-17.3313 138.675 -13.6609 109.102 -4.35654 90.1731C5.05389 71.0288 -19.6485 34.0233 20.0604 12.565C42.9003 0.222543 63.3859 19.9737 102.871 5.39247C138.519 -7.77192 184.503 4.00308 195.747 31.6126C203.483 50.6058 193.731 71.0797 203.483 81.0034C214.894 92.6161 214.286 116.85 204.095 132.319C194.453 146.954 186.138 146.241 149.594 148.921Z" fill="white"/>
</mask>
<g mask="url(#mask3_566_4223)">
<path d="M117.528 90.3075C117.27 90.3838 117.069 90.2978 116.964 90.2328C116.807 90.1358 116.675 89.9771 116.573 89.781C116.364 90.0812 116.102 90.3347 115.78 90.4795C115.067 90.8003 114.345 90.5622 113.873 90.1147C113.697 90.2693 113.498 90.4223 113.274 90.5703C112.491 91.0873 111.317 91.3921 110.586 90.5492C110.546 90.5033 110.51 90.4563 110.476 90.4083C110.313 90.5464 110.136 90.6887 109.946 90.8349C108.537 91.918 107.095 92.0709 106.09 91.2438C104.964 90.3174 104.471 88.0879 105.909 85.1952C106.755 83.4934 107.627 82.6382 108.5 82.652C109.574 82.6694 110.187 83.9841 110.213 84.04L109.84 84.2107L110.026 84.1253L109.84 84.2109C109.835 84.1995 109.307 83.0743 108.493 83.0621C107.8 83.051 107.034 83.8526 106.276 85.3778C104.939 88.0685 105.35 90.1036 106.35 90.9269C107.198 91.6242 108.449 91.4681 109.696 90.5097C109.913 90.3429 110.109 90.1836 110.287 90.0315C110.066 89.3825 110.306 88.6468 110.745 88.1511C111.187 87.6522 111.642 87.4064 111.964 87.4937C112.128 87.5382 112.242 87.6644 112.277 87.84C112.359 88.2591 111.988 89.0547 110.79 90.1354C110.822 90.1874 110.857 90.2358 110.896 90.2802C111.261 90.701 112.018 90.9087 113.048 90.2278C113.261 90.0872 113.446 89.9443 113.606 89.8022C113.603 89.7975 113.6 89.7928 113.597 89.7882C113.192 89.1796 113.243 88.4956 113.725 88.0454C114.125 87.6725 114.418 87.7026 114.557 87.7535C114.745 87.8226 114.869 88.0003 114.897 88.2412C114.944 88.6496 114.724 89.2376 114.167 89.8293C114.532 90.1674 115.079 90.3457 115.612 90.1052C115.946 89.9549 116.204 89.642 116.395 89.2874C116.269 88.7521 116.306 88.1191 116.548 87.6616C116.611 87.5437 116.758 87.2668 116.99 87.3103C117.084 87.328 117.203 87.3995 117.231 87.6409C117.268 87.9482 117.151 88.6777 116.831 89.3367C116.91 89.5898 117.032 89.7925 117.179 89.8837C117.427 90.0369 117.704 89.7543 117.893 89.4898C118.741 88.302 119.372 87.7895 120.004 87.7769C120.46 87.7678 120.884 88.024 121.3 88.5602L120.976 88.8117C120.644 88.3851 120.329 88.1807 120.012 88.1871C119.532 88.1966 118.981 88.672 118.227 89.7281C117.973 90.0847 117.733 90.2472 117.528 90.3075ZM114.314 88.1446C114.241 88.1662 114.137 88.2229 114.005 88.3457C113.627 88.6983 113.701 89.1673 113.905 89.5084C114.366 89.0023 114.519 88.5403 114.489 88.2888C114.48 88.2084 114.452 88.1523 114.415 88.1387C114.395 88.1315 114.361 88.1307 114.314 88.1446ZM111.738 87.9004C111.589 87.9446 111.343 88.0951 111.052 88.4233C110.659 88.8668 110.56 89.3363 110.632 89.724C111.717 88.717 111.909 88.0984 111.874 87.9199C111.869 87.8932 111.864 87.8917 111.857 87.8899C111.83 87.8826 111.79 87.8852 111.738 87.9004Z" fill="#034782"/>
<path d="M117.528 90.3075C117.27 90.3838 117.069 90.2978 116.964 90.2328C116.807 90.1358 116.675 89.9771 116.573 89.781C116.364 90.0812 116.102 90.3347 115.78 90.4795C115.067 90.8003 114.345 90.5622 113.873 90.1147C113.697 90.2693 113.498 90.4223 113.274 90.5703C112.491 91.0873 111.317 91.3921 110.586 90.5492C110.546 90.5033 110.51 90.4563 110.476 90.4083C110.313 90.5464 110.136 90.6887 109.946 90.8349C108.537 91.918 107.095 92.0709 106.09 91.2438C104.964 90.3174 104.471 88.0879 105.909 85.1952C106.755 83.4934 107.627 82.6382 108.5 82.652C109.574 82.6694 110.187 83.9841 110.213 84.04L109.84 84.2107L110.026 84.1253L109.84 84.2109C109.835 84.1995 109.307 83.0743 108.493 83.0621C107.8 83.051 107.034 83.8526 106.276 85.3778C104.939 88.0685 105.35 90.1036 106.35 90.9269C107.198 91.6242 108.449 91.4681 109.696 90.5097C109.913 90.3429 110.109 90.1836 110.287 90.0315C110.066 89.3825 110.306 88.6468 110.745 88.1511C111.187 87.6522 111.642 87.4064 111.964 87.4937C112.128 87.5382 112.242 87.6644 112.277 87.84C112.359 88.2591 111.988 89.0547 110.79 90.1354C110.822 90.1874 110.857 90.2358 110.896 90.2802C111.261 90.701 112.018 90.9087 113.048 90.2278C113.261 90.0872 113.446 89.9443 113.606 89.8022C113.603 89.7975 113.6 89.7928 113.597 89.7882C113.192 89.1796 113.243 88.4956 113.725 88.0454C114.125 87.6725 114.418 87.7026 114.557 87.7535C114.745 87.8226 114.869 88.0003 114.897 88.2412C114.944 88.6496 114.724 89.2376 114.167 89.8293C114.532 90.1674 115.079 90.3457 115.612 90.1052C115.946 89.9549 116.204 89.642 116.395 89.2874C116.269 88.7521 116.306 88.1191 116.548 87.6616C116.611 87.5437 116.758 87.2668 116.99 87.3103C117.084 87.328 117.203 87.3995 117.231 87.6409C117.268 87.9482 117.151 88.6777 116.831 89.3367C116.91 89.5898 117.032 89.7925 117.179 89.8837C117.427 90.0369 117.704 89.7543 117.893 89.4898C118.741 88.302 119.372 87.7895 120.004 87.7769C120.46 87.7678 120.884 88.024 121.3 88.5602L120.976 88.8117C120.644 88.3851 120.329 88.1807 120.012 88.1871C119.532 88.1966 118.981 88.672 118.227 89.7281C117.973 90.0847 117.733 90.2472 117.528 90.3075ZM114.314 88.1446C114.241 88.1662 114.137 88.2229 114.005 88.3457C113.627 88.6983 113.701 89.1673 113.905 89.5084C114.366 89.0023 114.519 88.5403 114.489 88.2888C114.48 88.2084 114.452 88.1523 114.415 88.1387C114.395 88.1315 114.361 88.1307 114.314 88.1446ZM111.738 87.9004C111.589 87.9446 111.343 88.0951 111.052 88.4233C110.659 88.8668 110.56 89.3363 110.632 89.724C111.717 88.717 111.909 88.0984 111.874 87.9199C111.869 87.8932 111.864 87.8917 111.857 87.8899C111.83 87.8826 111.79 87.8852 111.738 87.9004Z" fill="url(#paint8_linear_566_4223)"/>
</g>
<mask id="mask4_566_4223" style="mask-type:luminance" maskUnits="userSpaceOnUse" x="-11" y="0" width="223" height="152">
<path d="M149.594 148.921C107.078 152.038 41.1402 154.651 13.0721 146.982C-17.3313 138.675 -13.6609 109.102 -4.35654 90.1731C5.05389 71.0288 -19.6485 34.0233 20.0604 12.565C42.9003 0.222543 63.3859 19.9737 102.871 5.39247C138.519 -7.77192 184.503 4.00308 195.747 31.6126C203.483 50.6058 193.731 71.0797 203.483 81.0034C214.894 92.6161 214.286 116.85 204.095 132.319C194.453 146.954 186.138 146.241 149.594 148.921Z" fill="white"/>
</mask>
<g mask="url(#mask4_566_4223)">
<path d="M97.4956 88.3437L73.0171 95.5692C72.9955 95.5755 72.9725 95.5631 72.9661 95.5414L72.4926 93.9374C72.4863 93.9157 72.4987 93.8927 72.5204 93.8864L96.9989 86.6609C97.0206 86.6544 97.0436 86.667 97.0499 86.6886L97.5234 88.2927C97.5298 88.3143 97.5173 88.3373 97.4956 88.3437Z" fill="#B0D1F1"/>
<path d="M97.4956 88.3437L73.0171 95.5692C72.9955 95.5755 72.9725 95.5631 72.9661 95.5414L72.4926 93.9374C72.4863 93.9157 72.4987 93.8927 72.5204 93.8864L96.9989 86.6609C97.0206 86.6544 97.0436 86.667 97.0499 86.6886L97.5234 88.2927C97.5298 88.3143 97.5173 88.3373 97.4956 88.3437Z" fill="url(#paint9_linear_566_4223)"/>
</g>
<mask id="mask5_566_4223" style="mask-type:luminance" maskUnits="userSpaceOnUse" x="-11" y="0" width="223" height="152">
<path d="M149.594 148.921C107.078 152.038 41.1402 154.651 13.0721 146.982C-17.3313 138.675 -13.6609 109.102 -4.35654 90.1731C5.05389 71.0288 -19.6485 34.0233 20.0604 12.565C42.9003 0.222542 63.3859 19.9737 102.871 5.39247C138.519 -7.77192 184.503 4.00308 195.747 31.6126C203.483 50.6058 193.731 71.0797 203.483 81.0034C214.894 92.6161 214.286 116.85 204.095 132.319C194.453 146.954 186.138 146.241 149.594 148.921Z" fill="white"/>
</mask>
<g mask="url(#mask5_566_4223)">
<path d="M92.9759 94.2419L74.2521 99.7688C74.2331 99.7744 74.2131 99.7634 74.2074 99.7445L73.731 98.1306C73.7253 98.1117 73.7364 98.0916 73.7552 98.086L92.4791 92.5591C92.4981 92.5535 92.5181 92.5645 92.5237 92.5834L93.0001 94.1972C93.0058 94.2163 92.9949 94.2363 92.9759 94.2419Z" fill="url(#paint10_linear_566_4223)"/>
</g>
<path d="M112.391 42.0971L110.93 37.1919L112.966 36.5853L113.244 37.5182L111.941 37.9063L112.235 38.8918L113.343 38.5618L113.618 39.4871L112.51 39.8172L112.847 40.9457L114.199 40.5428L114.477 41.4757L112.391 42.0971Z" fill="url(#paint11_linear_566_4223)"/>
<path d="M109.01 43.1045L107.548 38.1992L108.277 37.9822L108.792 39.7125C108.879 40.0034 108.959 40.3129 109.031 40.6408C109.103 40.9687 109.168 41.2661 109.226 41.5328L109.246 41.5269L109.245 40.3559L109.365 37.6581L110.153 37.4232L111.615 42.3284L110.886 42.5455L110.368 40.8076C110.282 40.5167 110.204 40.2123 110.134 39.8944C110.067 39.5704 110.001 39.2706 109.937 38.9948L109.917 39.0007L109.918 40.1717L109.798 42.8696L109.01 43.1045Z" fill="url(#paint12_linear_566_4223)"/>
<path d="M105.647 44.1069L104.186 39.2017L104.919 38.9831L105.482 40.8715L106.605 40.537L106.042 38.6486L106.781 38.4286L108.242 43.3338L107.504 43.5539L106.894 41.5075L105.771 41.842L106.381 43.8884L105.647 44.1069Z" fill="url(#paint13_linear_566_4223)"/>
<path d="M102.913 44.9204L101.452 40.0151L103.488 39.4086L103.766 40.3415L102.463 40.7295L102.757 41.7151L103.865 41.385L104.14 42.3104L103.032 42.6404L103.369 43.7689L104.721 43.366L104.999 44.2989L102.913 44.9204Z" fill="url(#paint14_linear_566_4223)"/>
<path d="M101.406 45.3694L100.86 43.5337C100.791 43.5705 100.721 43.6049 100.651 43.6367C100.581 43.6686 100.491 43.7008 100.381 43.7335C100.122 43.8108 99.8832 43.8191 99.6659 43.7582C99.4519 43.6964 99.2561 43.5499 99.0786 43.3189C98.9044 43.0868 98.7516 42.7501 98.6201 42.3087L98.2234 40.9771L98.947 40.7615L99.3437 42.0931C99.4109 42.3188 99.4847 42.4934 99.565 42.617C99.6437 42.7355 99.7337 42.8124 99.8348 42.8478C99.9377 42.8772 100.057 42.8716 100.194 42.831C100.29 42.8022 100.37 42.773 100.434 42.7431C100.497 42.7132 100.552 42.6834 100.597 42.6534L99.9451 40.4641L100.684 40.2441L102.145 45.1494L101.406 45.3694Z" fill="url(#paint15_linear_566_4223)"/>
<path d="M97.52 46.6259C97.4235 46.6546 97.339 46.6689 97.2665 46.6686C97.1955 46.6734 97.1322 46.6677 97.0767 46.6515L96.9195 45.6498C96.954 45.656 96.9901 45.6616 97.0278 45.6667C97.0641 45.6668 97.1155 45.657 97.182 45.6372C97.2519 45.6164 97.3082 45.5805 97.351 45.5295C97.3971 45.4775 97.4231 45.407 97.4292 45.3178L97.4315 45.1615L95.2483 41.8638L96.0268 41.6318L96.8319 42.9483L97.456 44.0402L97.476 44.0342L97.3808 42.7848L97.2993 41.2527L98.0379 41.0327L98.1645 45.1233C98.1752 45.5242 98.1329 45.8563 98.0375 46.1195C97.9453 46.3818 97.7729 46.5506 97.52 46.6259Z" fill="url(#paint16_linear_566_4223)"/>
<path d="M94.0971 47.5473L92.6357 42.6421L94.8564 41.9805L95.1344 42.9134L93.6472 43.3564L93.9409 44.342L94.39 44.2082C94.6195 44.1398 94.8409 44.123 95.0541 44.1578C95.2692 44.1866 95.4646 44.2894 95.6405 44.4664C95.8149 44.6383 95.9558 44.9049 96.0634 45.266C96.1755 45.6421 96.211 45.9619 96.17 46.2254C96.1274 46.4838 96.0287 46.6934 95.8737 46.8542C95.7173 47.01 95.526 47.1217 95.2998 47.189L94.0971 47.5473ZM94.5752 46.4711L94.9694 46.3537C95.1657 46.2952 95.2956 46.1964 95.3592 46.0573C95.4228 45.9182 95.4195 45.7308 95.3493 45.4951C95.2806 45.2644 95.1821 45.1163 95.0539 45.0507C94.9257 44.9851 94.7651 44.9811 94.5722 45.0386L94.1829 45.1545L94.5752 46.4711Z" fill="url(#paint17_linear_566_4223)"/>
<path d="M92.035 48.26C91.7422 48.3472 91.4538 48.3212 91.1696 48.182C90.8888 48.0418 90.6284 47.7999 90.3884 47.4564C90.1517 47.1119 89.9535 46.6713 89.7936 46.1346C89.6352 45.6029 89.5615 45.1307 89.5725 44.7179C89.5869 44.304 89.6747 43.9666 89.836 43.7056C89.9991 43.4385 90.2271 43.2614 90.5199 43.1742C90.8126 43.087 91.1004 43.1105 91.383 43.2447C91.6642 43.3739 91.9224 43.6082 92.1575 43.9477C92.3927 44.2872 92.5895 44.7228 92.7479 45.2545C92.9077 45.7911 92.9829 46.2684 92.9734 46.6863C92.9638 47.1041 92.8783 47.4491 92.7166 47.7211C92.555 47.9932 92.3278 48.1728 92.035 48.26ZM91.7504 47.3045C91.9001 47.2599 92.0087 47.1566 92.0763 46.9945C92.1458 46.8263 92.1729 46.6135 92.1578 46.3559C92.1459 46.0973 92.0914 45.805 91.9943 45.479C91.8972 45.1529 91.7843 44.8835 91.6557 44.6706C91.5289 44.4517 91.3927 44.2985 91.247 44.2108C91.1032 44.1171 90.9565 44.0926 90.8068 44.1372C90.6604 44.1808 90.551 44.2817 90.4785 44.4398C90.4046 44.5928 90.3728 44.7962 90.3832 45.0497C90.3953 45.2973 90.45 45.5841 90.5471 45.9101C90.6442 46.2361 90.7569 46.5111 90.8852 46.735C91.0168 46.9579 91.1577 47.1207 91.3078 47.2234C91.4565 47.3211 91.604 47.3481 91.7504 47.3045Z" fill="url(#paint18_linear_566_4223)"/>
<path d="M86.4115 49.8374L85.9682 44.6288L86.8465 44.3672L89.3309 48.9677L88.5524 49.1996L87.3886 46.8432C87.2688 46.6113 87.1462 46.3639 87.0207 46.1009C86.8953 45.838 86.7729 45.585 86.6534 45.3421L86.6335 45.3481C86.6731 45.6148 86.7123 45.8925 86.7513 46.1812C86.7902 46.47 86.823 46.7442 86.8496 47.0038L87.1601 49.6144L86.4115 49.8374ZM86.7328 48.472L86.4751 47.6068L88.0421 47.14L88.2998 48.0052L86.7328 48.472Z" fill="url(#paint19_linear_566_4223)"/>
<path d="M83.4635 50.7153L82.0022 45.8101L82.7358 45.5915L83.2984 47.4799L84.4212 47.1454L83.8586 45.257L84.5972 45.037L86.0585 49.9422L85.32 50.1623L84.7103 48.1159L83.5875 48.4504L84.1971 50.4968L83.4635 50.7153Z" fill="url(#paint20_linear_566_4223)"/>
<path d="M79.1899 51.9883L78.7465 46.7797L79.6248 46.5181L82.1092 51.1185L81.3307 51.3505L80.1669 48.9941C80.0471 48.7622 79.9245 48.5148 79.7991 48.2518C79.6736 47.9889 79.5512 47.7359 79.4317 47.493L79.4118 47.4989C79.4514 47.7656 79.4907 48.0434 79.5296 48.3321C79.5685 48.6208 79.6013 48.895 79.6279 49.1547L79.9384 51.7653L79.1899 51.9883ZM79.5112 50.6229L79.2534 49.7577L80.8204 49.2909L81.0781 50.1561L79.5112 50.6229Z" fill="url(#paint21_linear_566_4223)"/>
<path d="M76.5378 52.7785L75.0764 47.8733L75.81 47.6547L76.3838 49.5807L76.758 49.4692L76.7662 48.2381C76.7673 47.9866 76.7908 47.7858 76.8366 47.6356C76.8809 47.4804 76.9455 47.3629 77.0304 47.283C77.1152 47.2031 77.2159 47.1458 77.3323 47.1111C77.3889 47.0943 77.4436 47.0834 77.4965 47.0786C77.5494 47.0737 77.5979 47.0784 77.642 47.0926L77.818 48.1214C77.7984 48.1163 77.777 48.1172 77.7537 48.1241C77.7289 48.1261 77.7015 48.1315 77.6716 48.1404C77.6283 48.1533 77.5938 48.1772 77.568 48.2122C77.5407 48.2422 77.5202 48.2947 77.5063 48.3699C77.4925 48.445 77.4828 48.5462 77.4772 48.6734L77.4462 49.6819L79.2525 51.9698L78.4441 52.2106L77.0347 50.3615L76.6505 50.476L77.2713 52.56L76.5378 52.7785Z" fill="url(#paint22_linear_566_4223)"/>
<path d="M73.5168 53.6777L72.0554 48.7725L73.1683 48.4409C73.3945 48.3735 73.6086 48.3507 73.8107 48.3724C74.0146 48.3881 74.195 48.4709 74.3519 48.6207C74.5107 48.7645 74.6364 48.9919 74.729 49.3029C74.8023 49.5487 74.8314 49.7803 74.8165 49.9977C74.8001 50.2101 74.7349 50.3742 74.6209 50.4901L74.6299 50.5202C74.8308 50.5258 75.0097 50.6036 75.1666 50.7534C75.322 50.8983 75.4468 51.1287 75.541 51.4446C75.6441 51.7907 75.6719 52.0909 75.6246 52.3453C75.5772 52.5997 75.4727 52.8083 75.3111 52.9711C75.1529 53.133 74.9573 53.2486 74.7244 53.3179L73.5168 53.6777ZM73.374 50.5175L73.7183 50.4149C73.898 50.3614 74.012 50.2701 74.0605 50.141C74.1123 50.0109 74.112 49.8581 74.0597 49.6825C74.003 49.4919 73.921 49.3689 73.814 49.3134C73.7069 49.2579 73.5668 49.256 73.3938 49.3075L73.0445 49.4116L73.374 50.5175ZM73.9948 52.6015L74.409 52.4781C74.6087 52.4186 74.7427 52.3214 74.8111 52.1863C74.8814 52.0452 74.8829 51.8619 74.8156 51.6362C74.7529 51.4255 74.6557 51.2879 74.5242 51.2233C74.396 51.1578 74.2321 51.1547 74.0325 51.2142L73.6183 51.3376L73.9948 52.6015Z" fill="url(#paint23_linear_566_4223)"/>
<path d="M72.0083 54.1279L71.4816 52.3599L71.0275 52.4952C70.8046 52.5616 70.5835 52.5674 70.3644 52.5125C70.1437 52.4527 69.94 52.3222 69.7533 52.1212C69.57 51.9192 69.4223 51.6301 69.3102 51.2539C69.1952 50.8677 69.1613 50.5474 69.2087 50.293C69.2579 50.0326 69.3639 49.829 69.5266 49.6823C69.6878 49.5305 69.8832 49.4204 70.1128 49.352L71.2855 49.0026L72.7469 53.9079L72.0083 54.1279ZM70.8451 51.5912L71.2194 51.4797L70.8092 50.1029L70.4349 50.2144C70.242 50.2719 70.1081 50.3636 70.0334 50.4897C69.962 50.6147 69.9621 50.7976 70.0338 51.0383C70.1056 51.2791 70.21 51.4473 70.3472 51.5429C70.4862 51.6326 70.6521 51.6487 70.8451 51.5912ZM70.112 54.6928L70.4681 51.7117L71.1469 52.1484L70.9504 54.4431L70.112 54.6928Z" fill="url(#paint24_linear_566_4223)"/>
<path d="M67.162 55.5718L66.7187 50.3632L67.597 50.1016L70.0814 54.702L69.3029 54.934L68.1391 52.5776C68.0193 52.3457 67.8967 52.0983 67.7712 51.8353C67.6458 51.5723 67.5234 51.3194 67.4039 51.0765L67.3839 51.0824C67.4235 51.3491 67.4628 51.6269 67.5018 51.9156C67.5407 52.2043 67.5735 52.4785 67.6001 52.7382L67.9106 55.3488L67.162 55.5718ZM67.4833 54.2064L67.2256 53.3412L68.7925 52.8744L69.0503 53.7396L67.4833 54.2064Z" fill="url(#paint25_linear_566_4223)"/>
<path d="M65.8579 56.0578C65.5917 56.137 65.3391 56.1522 65.0999 56.1034C64.8608 56.0545 64.6136 55.9179 64.3584 55.6935L64.5387 54.8944C64.7126 55.0283 64.879 55.1125 65.0378 55.1471C65.1985 55.1757 65.347 55.1697 65.4834 55.129C65.5965 55.0953 65.6872 55.041 65.7554 54.9661C65.8255 54.8852 65.8696 54.7901 65.8878 54.6809C65.9078 54.5657 65.8969 54.4379 65.855 54.2975C65.7923 54.0869 65.6992 53.9508 65.5758 53.8892C65.451 53.8227 65.2871 53.8196 65.0841 53.8801L64.65 54.0094L64.4057 53.1894L64.75 53.0868C64.933 53.0323 65.0526 52.9475 65.1089 52.8324C65.167 52.7114 65.1691 52.5605 65.1154 52.38C65.0616 52.1994 64.978 52.0769 64.8646 52.0124C64.753 51.9419 64.629 51.9269 64.4926 51.9676C64.3629 52.0062 64.2545 52.074 64.1674 52.1709C64.0837 52.2668 64.0066 52.3909 63.936 52.5429L63.3627 51.9683C63.4394 51.7271 63.5503 51.522 63.6956 51.3531C63.8442 51.1832 64.0233 51.0671 64.2329 51.0047C64.4824 50.9303 64.7077 50.9205 64.9088 50.9753C65.1132 51.0291 65.2885 51.1434 65.4347 51.3183C65.5828 51.4871 65.6972 51.707 65.7779 51.9778C65.8496 52.2186 65.8766 52.4426 65.8587 52.65C65.8441 52.8564 65.7844 53.0271 65.6798 53.162L65.6887 53.1921C65.812 53.2045 65.9309 53.251 66.0454 53.3316C66.1633 53.4111 66.2703 53.5212 66.3666 53.6618C66.4628 53.8025 66.54 53.9706 66.5983 54.1662C66.6969 54.4972 66.724 54.7949 66.6797 55.0593C66.6371 55.3178 66.5423 55.5344 66.3952 55.7093C66.2499 55.8782 66.0708 55.9943 65.8579 56.0578Z" fill="url(#paint26_linear_566_4223)"/>
</g>
<defs>
<linearGradient id="paint0_linear_566_4223" x1="215.57" y1="-61.3074" x2="115.621" y2="165.599" gradientUnits="userSpaceOnUse">
<stop stop-color="#042856"/>
<stop offset="1" stop-color="#034782"/>
<stop offset="1" stop-color="#03417A"/>
</linearGradient>
<linearGradient id="paint1_linear_566_4223" x1="96.8821" y1="67.5339" x2="94.8338" y2="82.667" gradientUnits="userSpaceOnUse">
<stop stop-color="#042856"/>
<stop offset="1" stop-color="#034782"/>
<stop offset="1" stop-color="#03417A"/>
</linearGradient>
<linearGradient id="paint2_linear_566_4223" x1="130.23" y1="57.5631" x2="127.64" y2="77.6531" gradientUnits="userSpaceOnUse">
<stop stop-color="#042856"/>
<stop offset="1" stop-color="#034782"/>
<stop offset="1" stop-color="#03417A"/>
</linearGradient>
<linearGradient id="paint3_linear_566_4223" x1="163.664" y1="39.0994" x2="158.508" y2="82.2148" gradientUnits="userSpaceOnUse">
<stop stop-color="#042856"/>
<stop offset="1" stop-color="#034782"/>
<stop offset="1" stop-color="#03417A"/>
</linearGradient>
<linearGradient id="paint4_linear_566_4223" x1="154.736" y1="45.6396" x2="150.033" y2="84.7134" gradientUnits="userSpaceOnUse">
<stop stop-color="#042856"/>
<stop offset="1" stop-color="#034782"/>
<stop offset="1" stop-color="#03417A"/>
</linearGradient>
<linearGradient id="paint5_linear_566_4223" x1="157.044" y1="53.4594" x2="152.34" y2="92.5331" gradientUnits="userSpaceOnUse">
<stop stop-color="#042856"/>
<stop offset="1" stop-color="#034782"/>
<stop offset="1" stop-color="#03417A"/>
</linearGradient>
<linearGradient id="paint6_linear_566_4223" x1="93.6641" y1="56.6326" x2="91.6157" y2="71.7655" gradientUnits="userSpaceOnUse">
<stop stop-color="#042856"/>
<stop offset="1" stop-color="#034782"/>
<stop offset="1" stop-color="#03417A"/>
</linearGradient>
<linearGradient id="paint7_linear_566_4223" x1="127.012" y1="46.6623" x2="124.423" y2="66.7521" gradientUnits="userSpaceOnUse">
<stop stop-color="#042856"/>
<stop offset="1" stop-color="#034782"/>
<stop offset="1" stop-color="#03417A"/>
</linearGradient>
<linearGradient id="paint8_linear_566_4223" x1="132.139" y1="76.037" x2="127.817" y2="96.2708" gradientUnits="userSpaceOnUse">
<stop stop-color="#042856"/>
<stop offset="1" stop-color="#034782"/>
<stop offset="1" stop-color="#03417A"/>
</linearGradient>
<linearGradient id="paint9_linear_566_4223" x1="114.194" y1="80.195" x2="111.439" y2="100.496" gradientUnits="userSpaceOnUse">
<stop stop-color="#042856"/>
<stop offset="1" stop-color="#034782"/>
<stop offset="1" stop-color="#03417A"/>
</linearGradient>
<linearGradient id="paint10_linear_566_4223" x1="105.834" y1="87.3258" x2="103.494" y2="103.725" gradientUnits="userSpaceOnUse">
<stop stop-color="#042856"/>
<stop offset="1" stop-color="#034782"/>
<stop offset="1" stop-color="#03417A"/>
</linearGradient>
<linearGradient id="paint11_linear_566_4223" x1="113.345" y1="32.5986" x2="109.568" y2="40.5925" gradientUnits="userSpaceOnUse">
<stop stop-color="#042856"/>
<stop offset="1" stop-color="#034782"/>
<stop offset="1" stop-color="#03417A"/>
</linearGradient>
<linearGradient id="paint12_linear_566_4223" x1="110.828" y1="33.3483" x2="107.674" y2="42.4639" gradientUnits="userSpaceOnUse">
<stop stop-color="#042856"/>
<stop offset="1" stop-color="#034782"/>
<stop offset="1" stop-color="#03417A"/>
</linearGradient>
<linearGradient id="paint13_linear_566_4223" x1="107.449" y1="34.3557" x2="104.282" y2="43.4537" gradientUnits="userSpaceOnUse">
<stop stop-color="#042856"/>
<stop offset="1" stop-color="#034782"/>
<stop offset="1" stop-color="#03417A"/>
</linearGradient>
<linearGradient id="paint14_linear_566_4223" x1="103.867" y1="35.4218" x2="100.09" y2="43.4157" gradientUnits="userSpaceOnUse">
<stop stop-color="#042856"/>
<stop offset="1" stop-color="#034782"/>
<stop offset="1" stop-color="#03417A"/>
</linearGradient>
<linearGradient id="paint15_linear_566_4223" x1="101.262" y1="36.198" x2="97.9277" y2="45.0437" gradientUnits="userSpaceOnUse">
<stop stop-color="#042856"/>
<stop offset="1" stop-color="#034782"/>
<stop offset="1" stop-color="#03417A"/>
</linearGradient>
<linearGradient id="paint16_linear_566_4223" x1="98.8158" y1="36.8557" x2="95.7736" y2="46.3683" gradientUnits="userSpaceOnUse">
<stop stop-color="#042856"/>
<stop offset="1" stop-color="#034782"/>
<stop offset="1" stop-color="#03417A"/>
</linearGradient>
<linearGradient id="paint17_linear_566_4223" x1="95.6243" y1="37.8779" x2="92.2532" y2="46.6639" gradientUnits="userSpaceOnUse">
<stop stop-color="#042856"/>
<stop offset="1" stop-color="#034782"/>
<stop offset="1" stop-color="#03417A"/>
</linearGradient>
<linearGradient id="paint18_linear_566_4223" x1="92.8651" y1="38.459" x2="89.9091" y2="48.318" gradientUnits="userSpaceOnUse">
<stop stop-color="#042856"/>
<stop offset="1" stop-color="#034782"/>
<stop offset="1" stop-color="#03417A"/>
</linearGradient>
<linearGradient id="paint19_linear_566_4223" x1="88.7534" y1="39.9252" x2="85.988" y2="49.5339" gradientUnits="userSpaceOnUse">
<stop stop-color="#042856"/>
<stop offset="1" stop-color="#034782"/>
<stop offset="1" stop-color="#03417A"/>
</linearGradient>
<linearGradient id="paint20_linear_566_4223" x1="85.265" y1="40.9641" x2="82.0983" y2="50.0621" gradientUnits="userSpaceOnUse">
<stop stop-color="#042856"/>
<stop offset="1" stop-color="#034782"/>
<stop offset="1" stop-color="#03417A"/>
</linearGradient>
<linearGradient id="paint21_linear_566_4223" x1="81.5317" y1="42.0761" x2="78.7664" y2="51.6848" gradientUnits="userSpaceOnUse">
<stop stop-color="#042856"/>
<stop offset="1" stop-color="#034782"/>
<stop offset="1" stop-color="#03417A"/>
</linearGradient>
<linearGradient id="paint22_linear_566_4223" x1="78.4962" y1="42.8251" x2="75.3707" y2="52.2078" gradientUnits="userSpaceOnUse">
<stop stop-color="#042856"/>
<stop offset="1" stop-color="#034782"/>
<stop offset="1" stop-color="#03417A"/>
</linearGradient>
<linearGradient id="paint23_linear_566_4223" x1="75.1104" y1="43.9884" x2="71.7887" y2="52.8537" gradientUnits="userSpaceOnUse">
<stop stop-color="#042856"/>
<stop offset="1" stop-color="#034782"/>
<stop offset="1" stop-color="#03417A"/>
</linearGradient>
<linearGradient id="paint24_linear_566_4223" x1="71.98" y1="44.9218" x2="68.863" y2="54.0897" gradientUnits="userSpaceOnUse">
<stop stop-color="#042856"/>
<stop offset="1" stop-color="#034782"/>
<stop offset="1" stop-color="#03417A"/>
</linearGradient>
<linearGradient id="paint25_linear_566_4223" x1="69.5039" y1="45.6596" x2="66.7385" y2="55.2683" gradientUnits="userSpaceOnUse">
<stop stop-color="#042856"/>
<stop offset="1" stop-color="#034782"/>
<stop offset="1" stop-color="#03417A"/>
</linearGradient>
<linearGradient id="paint26_linear_566_4223" x1="66.0895" y1="46.4351" x2="62.5397" y2="55.4533" gradientUnits="userSpaceOnUse">
<stop stop-color="#042856"/>
<stop offset="1" stop-color="#034782"/>
<stop offset="1" stop-color="#03417A"/>
</linearGradient>
<clipPath id="clip0_566_4223">
<rect width="200" height="142" rx="30" fill="white"/>
</clipPath>
</defs>
</svg>
