<svg width="200" height="142" viewBox="0 0 200 142" fill="none" xmlns="http://www.w3.org/2000/svg">
<rect width="200" height="142" rx="30" fill="#D5EAFF"/>
<path d="M148.626 20.9806H112.093C112.093 20.9806 115.715 11.2876 121.29 11.2876C126.865 11.2876 128.611 17.9781 128.611 17.9781C128.611 17.9781 132.372 14.343 135.462 14.343C138.551 14.343 141.238 19.1465 141.238 19.1465C141.238 19.1465 145.604 16.5634 148.626 20.9806Z" fill="#EBEBEB"/>
<path opacity="0.5" d="M165.654 31.3262H148.581C148.581 31.3262 152.396 25.9111 155.401 25.9111C158.407 25.9111 159.295 29.5213 159.295 29.5213C159.295 29.5213 161.416 27.8364 163.382 28.1374C165.347 28.4385 165.654 31.3262 165.654 31.3262Z" fill="#EBEBEB"/>
<path opacity="0.5" d="M131.029 51.4693H113.956C113.956 51.4693 117.771 46.0542 120.776 46.0542C123.782 46.0542 124.67 49.6644 124.67 49.6644C124.67 49.6644 126.791 47.9798 128.756 48.2805C130.722 48.5812 131.029 51.4693 131.029 51.4693Z" fill="#EBEBEB"/>
<path d="M106.195 60.6914H92.8425V129.267H106.195V60.6914Z" fill="#D0D0D0"/>
<path d="M97.5108 62.9189H94.915V65.5372H97.5108V62.9189Z" fill="#EBEBEB"/>
<path d="M100.831 62.9189H98.2356V65.5372H100.831V62.9189Z" fill="#EBEBEB"/>
<path d="M97.5108 67.3647H94.915V69.9833H97.5108V67.3647Z" fill="#EBEBEB"/>
<path d="M100.831 67.3647H98.2356V69.9833H100.831V67.3647Z" fill="#EBEBEB"/>
<path d="M97.5108 71.8101H94.915V74.4287H97.5108V71.8101Z" fill="#EBEBEB"/>
<path d="M100.831 71.8101H98.2356V74.4287H100.831V71.8101Z" fill="#EBEBEB"/>
<path d="M97.5108 76.2554H94.915V78.874H97.5108V76.2554Z" fill="#EBEBEB"/>
<path d="M100.831 76.2554H98.2356V78.874H100.831V76.2554Z" fill="#EBEBEB"/>
<path d="M97.5108 80.7012H94.915V83.3198H97.5108V80.7012Z" fill="#EBEBEB"/>
<path d="M100.831 80.7012H98.2356V83.3198H100.831V80.7012Z" fill="#EBEBEB"/>
<path d="M97.5108 85.1465H94.915V87.7651H97.5108V85.1465Z" fill="#EBEBEB"/>
<path d="M100.831 85.1465H98.2356V87.7651H100.831V85.1465Z" fill="#EBEBEB"/>
<path d="M97.5108 89.5923H94.915V92.2105H97.5108V89.5923Z" fill="#EBEBEB"/>
<path d="M100.831 89.5923H98.2356V92.2105H100.831V89.5923Z" fill="#EBEBEB"/>
<path d="M97.5108 94.0376H94.915V96.6558H97.5108V94.0376Z" fill="#EBEBEB"/>
<path d="M100.831 94.0376H98.2356V96.6558H100.831V94.0376Z" fill="#EBEBEB"/>
<path d="M97.5108 98.4834H94.915V101.102H97.5108V98.4834Z" fill="#EBEBEB"/>
<path d="M100.831 98.4834H98.2356V101.102H100.831V98.4834Z" fill="#EBEBEB"/>
<path d="M97.5108 102.929H94.915V105.547H97.5108V102.929Z" fill="#EBEBEB"/>
<path d="M100.831 102.929H98.2356V105.547H100.831V102.929Z" fill="#EBEBEB"/>
<path d="M97.5108 107.374H94.915V109.993H97.5108V107.374Z" fill="#EBEBEB"/>
<path d="M100.831 107.374H98.2356V109.993H100.831V107.374Z" fill="#EBEBEB"/>
<path d="M97.5108 111.82H94.915V114.438H97.5108V111.82Z" fill="#EBEBEB"/>
<path d="M100.831 111.82H98.2356V114.438H100.831V111.82Z" fill="#EBEBEB"/>
<path d="M97.5108 116.265H94.915V118.884H97.5108V116.265Z" fill="#EBEBEB"/>
<path d="M100.831 116.265H98.2356V118.884H100.831V116.265Z" fill="#EBEBEB"/>
<path d="M97.5108 120.71H94.915V123.329H97.5108V120.71Z" fill="#EBEBEB"/>
<path d="M101.527 123.329H104.123V120.711H101.527V123.329Z" fill="#EBEBEB"/>
<path d="M101.527 118.883H104.123V116.265H101.527V118.883Z" fill="#EBEBEB"/>
<path d="M101.527 114.438H104.123V111.819H101.527V114.438Z" fill="#EBEBEB"/>
<path d="M101.527 109.993H104.123V107.374H101.527V109.993Z" fill="#EBEBEB"/>
<path d="M101.527 105.547H104.123V102.928H101.527V105.547Z" fill="#EBEBEB"/>
<path d="M101.527 101.102H104.123V98.483H101.527V101.102Z" fill="#EBEBEB"/>
<path d="M101.527 96.6562H104.123V94.038H101.527V96.6562Z" fill="#EBEBEB"/>
<path d="M101.527 92.2104H104.123V89.5922H101.527V92.2104Z" fill="#EBEBEB"/>
<path d="M101.527 87.7651H104.123V85.1465H101.527V87.7651Z" fill="#EBEBEB"/>
<path d="M101.527 83.3198H104.123V80.7012H101.527V83.3198Z" fill="#EBEBEB"/>
<path d="M101.527 78.874H104.123V76.2554H101.527V78.874Z" fill="#EBEBEB"/>
<path d="M101.527 74.4282H104.123V71.8096H101.527V74.4282Z" fill="#EBEBEB"/>
<path d="M101.527 69.9829H104.123V67.3643H101.527V69.9829Z" fill="#EBEBEB"/>
<path d="M101.527 65.5376H104.123V62.9194H101.527V65.5376Z" fill="#EBEBEB"/>
<path d="M100.831 120.71H98.2356V123.329H100.831V120.71Z" fill="#EBEBEB"/>
<path d="M116.723 60.6914H106.195V129.267H116.723V60.6914Z" fill="#C3C3C3"/>
<path d="M113.494 123.329H115.638V120.711H113.494V123.329Z" fill="#D5D5D5"/>
<path d="M110.753 123.329H112.896V120.711H110.753V123.329Z" fill="#D5D5D5"/>
<path d="M113.494 118.883H115.638V116.265H113.494V118.883Z" fill="#D5D5D5"/>
<path d="M110.753 118.883H112.896V116.265H110.753V118.883Z" fill="#D5D5D5"/>
<path d="M113.494 114.438H115.638V111.819H113.494V114.438Z" fill="#D5D5D5"/>
<path d="M110.753 114.438H112.896V111.819H110.753V114.438Z" fill="#D5D5D5"/>
<path d="M113.494 109.993H115.638V107.374H113.494V109.993Z" fill="#D5D5D5"/>
<path d="M110.753 109.993H112.896V107.374H110.753V109.993Z" fill="#D5D5D5"/>
<path d="M113.494 105.547H115.638V102.928H113.494V105.547Z" fill="#D5D5D5"/>
<path d="M110.753 105.547H112.896V102.928H110.753V105.547Z" fill="#D5D5D5"/>
<path d="M113.494 101.102H115.638V98.483H113.494V101.102Z" fill="#D5D5D5"/>
<path d="M110.753 101.102H112.896V98.483H110.753V101.102Z" fill="#D5D5D5"/>
<path d="M113.494 96.6562H115.638V94.038H113.494V96.6562Z" fill="#D5D5D5"/>
<path d="M110.753 96.6562H112.896V94.038H110.753V96.6562Z" fill="#D5D5D5"/>
<path d="M113.494 92.2104H115.638V89.5922H113.494V92.2104Z" fill="#D5D5D5"/>
<path d="M110.753 92.2104H112.896V89.5922H110.753V92.2104Z" fill="#D5D5D5"/>
<path d="M113.494 87.7651H115.638V85.1465H113.494V87.7651Z" fill="#D5D5D5"/>
<path d="M110.753 87.7651H112.896V85.1465H110.753V87.7651Z" fill="#D5D5D5"/>
<path d="M113.494 83.3198H115.638V80.7012H113.494V83.3198Z" fill="#D5D5D5"/>
<path d="M110.753 83.3198H112.896V80.7012H110.753V83.3198Z" fill="#D5D5D5"/>
<path d="M113.494 78.874H115.638V76.2554H113.494V78.874Z" fill="#D5D5D5"/>
<path d="M110.753 78.874H112.896V76.2554H110.753V78.874Z" fill="#D5D5D5"/>
<path d="M113.494 74.4282H115.638V71.8096H113.494V74.4282Z" fill="#D5D5D5"/>
<path d="M110.753 74.4282H112.896V71.8096H110.753V74.4282Z" fill="#D5D5D5"/>
<path d="M113.494 69.9829H115.638V67.3643H113.494V69.9829Z" fill="#D5D5D5"/>
<path d="M110.753 69.9829H112.896V67.3643H110.753V69.9829Z" fill="#D5D5D5"/>
<path d="M113.494 65.5376H115.638V62.9194H113.494V65.5376Z" fill="#D5D5D5"/>
<path d="M110.177 62.9189H108.034V65.5372H110.177V62.9189Z" fill="#D5D5D5"/>
<path d="M110.177 67.3647H108.034V69.9833H110.177V67.3647Z" fill="#D5D5D5"/>
<path d="M110.177 71.8101H108.034V74.4287H110.177V71.8101Z" fill="#D5D5D5"/>
<path d="M110.177 76.2554H108.034V78.874H110.177V76.2554Z" fill="#D5D5D5"/>
<path d="M110.177 80.7012H108.034V83.3198H110.177V80.7012Z" fill="#D5D5D5"/>
<path d="M110.177 85.1465H108.034V87.7651H110.177V85.1465Z" fill="#D5D5D5"/>
<path d="M110.177 89.5923H108.034V92.2105H110.177V89.5923Z" fill="#D5D5D5"/>
<path d="M110.177 94.0376H108.034V96.6558H110.177V94.0376Z" fill="#D5D5D5"/>
<path d="M110.177 98.4834H108.034V101.102H110.177V98.4834Z" fill="#D5D5D5"/>
<path d="M110.177 102.929H108.034V105.547H110.177V102.929Z" fill="#D5D5D5"/>
<path d="M110.177 107.374H108.034V109.993H110.177V107.374Z" fill="#D5D5D5"/>
<path d="M110.177 111.82H108.034V114.438H110.177V111.82Z" fill="#D5D5D5"/>
<path d="M110.177 116.265H108.034V118.884H110.177V116.265Z" fill="#D5D5D5"/>
<path d="M110.177 120.71H108.034V123.329H110.177V120.71Z" fill="#D5D5D5"/>
<path d="M110.753 65.5376H112.896V62.9194H110.753V65.5376Z" fill="#D5D5D5"/>
<path d="M58.1875 59.1948H44.2581V129.267H58.1875V59.1948Z" fill="#EBEBEB"/>
<path d="M58.1878 57.7998H43.9231V59.1952H58.1878V57.7998Z" fill="#D5D5D5"/>
<path d="M46.929 61.252H45.5176V129.267H46.929V61.252Z" fill="white"/>
<path d="M49.4288 61.252H48.0173V129.267H49.4288V61.252Z" fill="white"/>
<path d="M51.9282 61.252H50.5171V129.267H51.9282V61.252Z" fill="white"/>
<path d="M54.4282 61.252H53.0171V129.267H54.4282V61.252Z" fill="white"/>
<path d="M56.9283 61.252H55.5168V129.267H56.9283V61.252Z" fill="white"/>
<path d="M46.929 63.0146H45.5176V65.769H46.929V63.0146Z" fill="#EBEBEB"/>
<path d="M49.4288 63.0146H48.0173V65.769H49.4288V63.0146Z" fill="#EBEBEB"/>
<path d="M51.9282 63.0146H50.5171V65.769H51.9282V63.0146Z" fill="#EBEBEB"/>
<path d="M54.4282 63.0146H53.0171V65.769H54.4282V63.0146Z" fill="#EBEBEB"/>
<path d="M56.9283 63.0146H55.5168V65.769H56.9283V63.0146Z" fill="#EBEBEB"/>
<path d="M46.929 67.4917H45.5176V70.2461H46.929V67.4917Z" fill="#EBEBEB"/>
<path d="M49.4288 67.4917H48.0173V70.2461H49.4288V67.4917Z" fill="#EBEBEB"/>
<path d="M51.9282 67.4917H50.5171V70.2461H51.9282V67.4917Z" fill="#EBEBEB"/>
<path d="M54.4282 67.4917H53.0171V70.2461H54.4282V67.4917Z" fill="#EBEBEB"/>
<path d="M56.9283 67.4917H55.5168V70.2461H56.9283V67.4917Z" fill="#EBEBEB"/>
<path d="M46.929 71.9683H45.5176V74.7226H46.929V71.9683Z" fill="#EBEBEB"/>
<path d="M49.4288 71.9683H48.0173V74.7226H49.4288V71.9683Z" fill="#EBEBEB"/>
<path d="M51.9282 71.9683H50.5171V74.7226H51.9282V71.9683Z" fill="#EBEBEB"/>
<path d="M54.4282 71.9683H53.0171V74.7226H54.4282V71.9683Z" fill="#EBEBEB"/>
<path d="M56.9283 71.9683H55.5168V74.7226H56.9283V71.9683Z" fill="#EBEBEB"/>
<path d="M46.929 76.4448H45.5176V79.1992H46.929V76.4448Z" fill="#EBEBEB"/>
<path d="M49.4288 76.4448H48.0173V79.1992H49.4288V76.4448Z" fill="#EBEBEB"/>
<path d="M51.9282 76.4448H50.5171V79.1992H51.9282V76.4448Z" fill="#EBEBEB"/>
<path d="M54.4282 76.4448H53.0171V79.1992H54.4282V76.4448Z" fill="#EBEBEB"/>
<path d="M56.9283 76.4448H55.5168V79.1992H56.9283V76.4448Z" fill="#EBEBEB"/>
<path d="M46.929 80.9214H45.5176V83.6758H46.929V80.9214Z" fill="#EBEBEB"/>
<path d="M49.4288 80.9214H48.0173V83.6758H49.4288V80.9214Z" fill="#EBEBEB"/>
<path d="M51.9282 80.9214H50.5171V83.6758H51.9282V80.9214Z" fill="#EBEBEB"/>
<path d="M54.4282 80.9214H53.0171V83.6758H54.4282V80.9214Z" fill="#EBEBEB"/>
<path d="M56.9283 80.9214H55.5168V83.6758H56.9283V80.9214Z" fill="#EBEBEB"/>
<path d="M46.929 85.3979H45.5176V88.1523H46.929V85.3979Z" fill="#EBEBEB"/>
<path d="M49.4288 85.3979H48.0173V88.1523H49.4288V85.3979Z" fill="#EBEBEB"/>
<path d="M51.9282 85.3979H50.5171V88.1523H51.9282V85.3979Z" fill="#EBEBEB"/>
<path d="M54.4282 85.3979H53.0171V88.1523H54.4282V85.3979Z" fill="#EBEBEB"/>
<path d="M56.9283 85.3979H55.5168V88.1523H56.9283V85.3979Z" fill="#EBEBEB"/>
<path d="M46.929 89.8745H45.5176V92.6289H46.929V89.8745Z" fill="#EBEBEB"/>
<path d="M49.4288 89.8745H48.0173V92.6289H49.4288V89.8745Z" fill="#EBEBEB"/>
<path d="M51.9282 89.8745H50.5171V92.6289H51.9282V89.8745Z" fill="#EBEBEB"/>
<path d="M54.4282 89.8745H53.0171V92.6289H54.4282V89.8745Z" fill="#EBEBEB"/>
<path d="M56.9283 89.8745H55.5168V92.6289H56.9283V89.8745Z" fill="#EBEBEB"/>
<path d="M46.929 94.3511H45.5176V97.1055H46.929V94.3511Z" fill="#EBEBEB"/>
<path d="M49.4288 94.3511H48.0173V97.1055H49.4288V94.3511Z" fill="#EBEBEB"/>
<path d="M51.9282 94.3511H50.5171V97.1055H51.9282V94.3511Z" fill="#EBEBEB"/>
<path d="M54.4282 94.3511H53.0171V97.1055H54.4282V94.3511Z" fill="#EBEBEB"/>
<path d="M56.9283 94.3511H55.5168V97.1055H56.9283V94.3511Z" fill="#EBEBEB"/>
<path d="M46.929 98.8276H45.5176V101.582H46.929V98.8276Z" fill="#EBEBEB"/>
<path d="M49.4288 98.8276H48.0173V101.582H49.4288V98.8276Z" fill="#EBEBEB"/>
<path d="M51.9282 98.8276H50.5171V101.582H51.9282V98.8276Z" fill="#EBEBEB"/>
<path d="M54.4282 98.8276H53.0171V101.582H54.4282V98.8276Z" fill="#EBEBEB"/>
<path d="M56.9283 98.8276H55.5168V101.582H56.9283V98.8276Z" fill="#EBEBEB"/>
<path d="M46.929 103.304H45.5176V106.059H46.929V103.304Z" fill="#EBEBEB"/>
<path d="M49.4288 103.304H48.0173V106.059H49.4288V103.304Z" fill="#EBEBEB"/>
<path d="M51.9282 103.304H50.5171V106.059H51.9282V103.304Z" fill="#EBEBEB"/>
<path d="M54.4282 103.304H53.0171V106.059H54.4282V103.304Z" fill="#EBEBEB"/>
<path d="M56.9283 103.304H55.5168V106.059H56.9283V103.304Z" fill="#EBEBEB"/>
<path d="M46.929 107.781H45.5176V110.536H46.929V107.781Z" fill="#EBEBEB"/>
<path d="M49.4288 107.781H48.0173V110.536H49.4288V107.781Z" fill="#EBEBEB"/>
<path d="M51.9282 107.781H50.5171V110.536H51.9282V107.781Z" fill="#EBEBEB"/>
<path d="M54.4282 107.781H53.0171V110.536H54.4282V107.781Z" fill="#EBEBEB"/>
<path d="M56.9283 107.781H55.5168V110.536H56.9283V107.781Z" fill="#EBEBEB"/>
<path d="M46.929 112.258H45.5176V115.012H46.929V112.258Z" fill="#EBEBEB"/>
<path d="M49.4288 112.258H48.0173V115.012H49.4288V112.258Z" fill="#EBEBEB"/>
<path d="M51.9282 112.258H50.5171V115.012H51.9282V112.258Z" fill="#EBEBEB"/>
<path d="M54.4282 112.258H53.0171V115.012H54.4282V112.258Z" fill="#EBEBEB"/>
<path d="M56.9283 112.258H55.5168V115.012H56.9283V112.258Z" fill="#EBEBEB"/>
<path d="M46.929 116.734H45.5176V119.488H46.929V116.734Z" fill="#EBEBEB"/>
<path d="M49.4288 116.734H48.0173V119.488H49.4288V116.734Z" fill="#EBEBEB"/>
<path d="M51.9282 116.734H50.5171V119.488H51.9282V116.734Z" fill="#EBEBEB"/>
<path d="M54.4282 116.734H53.0171V119.488H54.4282V116.734Z" fill="#EBEBEB"/>
<path d="M56.9283 116.734H55.5168V119.488H56.9283V116.734Z" fill="#EBEBEB"/>
<path d="M46.929 121.21H45.5176V129.267H46.929V121.21Z" fill="#EBEBEB"/>
<path d="M49.4288 121.21H48.0173V129.267H49.4288V121.21Z" fill="#EBEBEB"/>
<path d="M51.9282 121.21H50.5171V129.267H51.9282V121.21Z" fill="#EBEBEB"/>
<path d="M54.4282 121.21H53.0171V129.267H54.4282V121.21Z" fill="#EBEBEB"/>
<path d="M56.9283 121.21H55.5168V129.267H56.9283V121.21Z" fill="#EBEBEB"/>
<path d="M67.1305 59.1948H58.1877V129.267H67.1305V59.1948Z" fill="#D0D0D0"/>
<path d="M67.5176 57.7998H58.1877V59.1952H67.5176V57.7998Z" fill="#D5D5D5"/>
<path d="M60.8585 61.252H59.447V129.267H60.8585V61.252Z" fill="#D5D5D5"/>
<path d="M63.3582 61.252H61.9468V129.267H63.3582V61.252Z" fill="#D5D5D5"/>
<path d="M65.8585 61.252H64.447V129.267H65.8585V61.252Z" fill="#D5D5D5"/>
<path d="M60.8585 63.0146H59.447V65.769H60.8585V63.0146Z" fill="#D0D0D0"/>
<path d="M63.3582 63.0146H61.9468V65.769H63.3582V63.0146Z" fill="#D0D0D0"/>
<path d="M65.8585 63.0146H64.447V65.769H65.8585V63.0146Z" fill="#D0D0D0"/>
<path d="M60.8585 67.4917H59.447V70.2461H60.8585V67.4917Z" fill="#D0D0D0"/>
<path d="M63.3582 67.4917H61.9468V70.2461H63.3582V67.4917Z" fill="#D0D0D0"/>
<path d="M65.8585 67.4917H64.447V70.2461H65.8585V67.4917Z" fill="#D0D0D0"/>
<path d="M60.8585 71.9683H59.447V74.7226H60.8585V71.9683Z" fill="#D0D0D0"/>
<path d="M63.3582 71.9683H61.9468V74.7226H63.3582V71.9683Z" fill="#D0D0D0"/>
<path d="M65.8585 71.9683H64.447V74.7226H65.8585V71.9683Z" fill="#D0D0D0"/>
<path d="M60.8585 76.4448H59.447V79.1992H60.8585V76.4448Z" fill="#D0D0D0"/>
<path d="M63.3582 76.4448H61.9468V79.1992H63.3582V76.4448Z" fill="#D0D0D0"/>
<path d="M65.8585 76.4448H64.447V79.1992H65.8585V76.4448Z" fill="#D0D0D0"/>
<path d="M60.8585 80.9214H59.447V83.6758H60.8585V80.9214Z" fill="#D0D0D0"/>
<path d="M63.3582 80.9214H61.9468V83.6758H63.3582V80.9214Z" fill="#D0D0D0"/>
<path d="M65.8585 80.9214H64.447V83.6758H65.8585V80.9214Z" fill="#D0D0D0"/>
<path d="M60.8585 85.3979H59.447V88.1523H60.8585V85.3979Z" fill="#D0D0D0"/>
<path d="M63.3582 85.3979H61.9468V88.1523H63.3582V85.3979Z" fill="#D0D0D0"/>
<path d="M65.8585 85.3979H64.447V88.1523H65.8585V85.3979Z" fill="#D0D0D0"/>
<path d="M60.8585 89.8745H59.447V92.6289H60.8585V89.8745Z" fill="#D0D0D0"/>
<path d="M63.3582 89.8745H61.9468V92.6289H63.3582V89.8745Z" fill="#D0D0D0"/>
<path d="M65.8585 89.8745H64.447V92.6289H65.8585V89.8745Z" fill="#D0D0D0"/>
<path d="M60.8585 94.3511H59.447V97.1055H60.8585V94.3511Z" fill="#D0D0D0"/>
<path d="M63.3582 94.3511H61.9468V97.1055H63.3582V94.3511Z" fill="#D0D0D0"/>
<path d="M65.8585 94.3511H64.447V97.1055H65.8585V94.3511Z" fill="#D0D0D0"/>
<path d="M60.8585 98.8276H59.447V101.582H60.8585V98.8276Z" fill="#D0D0D0"/>
<path d="M63.3582 98.8276H61.9468V101.582H63.3582V98.8276Z" fill="#D0D0D0"/>
<path d="M65.8585 98.8276H64.447V101.582H65.8585V98.8276Z" fill="#D0D0D0"/>
<path d="M60.8585 103.304H59.447V106.059H60.8585V103.304Z" fill="#D0D0D0"/>
<path d="M63.3582 103.304H61.9468V106.059H63.3582V103.304Z" fill="#D0D0D0"/>
<path d="M65.8585 103.304H64.447V106.059H65.8585V103.304Z" fill="#D0D0D0"/>
<path d="M60.8585 107.781H59.447V110.536H60.8585V107.781Z" fill="#D0D0D0"/>
<path d="M63.3582 107.781H61.9468V110.536H63.3582V107.781Z" fill="#D0D0D0"/>
<path d="M65.8585 107.781H64.447V110.536H65.8585V107.781Z" fill="#D0D0D0"/>
<path d="M60.8585 112.258H59.447V115.012H60.8585V112.258Z" fill="#D0D0D0"/>
<path d="M63.3582 112.258H61.9468V115.012H63.3582V112.258Z" fill="#D0D0D0"/>
<path d="M65.8585 112.258H64.447V115.012H65.8585V112.258Z" fill="#D0D0D0"/>
<path d="M60.8585 116.734H59.447V119.488H60.8585V116.734Z" fill="#D0D0D0"/>
<path d="M63.3582 116.734H61.9468V119.488H63.3582V116.734Z" fill="#D0D0D0"/>
<path d="M65.8585 116.734H64.447V119.488H65.8585V116.734Z" fill="#D0D0D0"/>
<path d="M60.8585 121.21H59.447V129.267H60.8585V121.21Z" fill="#D0D0D0"/>
<path d="M63.3582 121.21H61.9468V129.267H63.3582V121.21Z" fill="#D0D0D0"/>
<path d="M65.8585 121.21H64.447V129.267H65.8585V121.21Z" fill="#D0D0D0"/>
<path d="M149.862 81.0093H142.806V89.1749H149.862V81.0093Z" fill="#D0D0D0"/>
<path d="M154.335 81.0093H149.861V89.4742H154.335V81.0093Z" fill="#D5D5D5"/>
<path d="M154.633 84.6147H150.193V89.474H154.633V84.6147Z" fill="#D0D0D0"/>
<path d="M157.402 84.6147H154.633V89.474H157.402V84.6147Z" fill="#D5D5D5"/>
<path d="M151.508 88.644H140.1V129.267H151.508V88.644Z" fill="#EBEBEB"/>
<path d="M144.992 90.3901H141.404V91.8263H144.992V90.3901Z" fill="white"/>
<path d="M149.581 90.3901H145.993V91.8263H149.581V90.3901Z" fill="white"/>
<path d="M144.992 92.8286H141.404V94.2647H144.992V92.8286Z" fill="white"/>
<path d="M149.581 92.8286H145.993V94.2647H149.581V92.8286Z" fill="white"/>
<path d="M144.992 95.2666H141.404V96.7027H144.992V95.2666Z" fill="white"/>
<path d="M149.581 95.2666H145.993V96.7027H149.581V95.2666Z" fill="white"/>
<path d="M144.992 97.7051H141.404V99.1412H144.992V97.7051Z" fill="white"/>
<path d="M149.581 97.7051H145.993V99.1412H149.581V97.7051Z" fill="white"/>
<path d="M144.992 100.144H141.404V101.58H144.992V100.144Z" fill="white"/>
<path d="M149.581 100.144H145.993V101.58H149.581V100.144Z" fill="white"/>
<path d="M144.992 102.582H141.404V104.018H144.992V102.582Z" fill="white"/>
<path d="M149.581 102.582H145.993V104.018H149.581V102.582Z" fill="white"/>
<path d="M144.992 105.02H141.404V106.456H144.992V105.02Z" fill="white"/>
<path d="M149.581 105.02H145.993V106.456H149.581V105.02Z" fill="white"/>
<path d="M144.992 107.458H141.404V108.894H144.992V107.458Z" fill="white"/>
<path d="M149.581 107.458H145.993V108.894H149.581V107.458Z" fill="white"/>
<path d="M144.992 109.896H141.404V111.333H144.992V109.896Z" fill="white"/>
<path d="M149.581 109.896H145.993V111.333H149.581V109.896Z" fill="white"/>
<path d="M144.992 112.335H141.404V113.771H144.992V112.335Z" fill="white"/>
<path d="M149.581 112.335H145.993V113.771H149.581V112.335Z" fill="white"/>
<path d="M144.992 114.773H141.404V116.21H144.992V114.773Z" fill="white"/>
<path d="M149.581 114.773H145.993V116.21H149.581V114.773Z" fill="white"/>
<path d="M144.992 117.211H141.404V118.648H144.992V117.211Z" fill="white"/>
<path d="M149.581 117.211H145.993V118.648H149.581V117.211Z" fill="white"/>
<path d="M144.992 119.65H141.404V121.086H144.992V119.65Z" fill="white"/>
<path d="M149.581 119.65H145.993V121.086H149.581V119.65Z" fill="white"/>
<path d="M144.992 122.088H141.404V123.524H144.992V122.088Z" fill="white"/>
<path d="M149.581 122.088H145.993V123.524H149.581V122.088Z" fill="white"/>
<path d="M160.754 88.644H151.509V129.267H160.754V88.644Z" fill="#D5D5D5"/>
<path d="M156.881 123.524H159.826V122.088H156.881V123.524Z" fill="#EBEBEB"/>
<path d="M153.113 123.524H156.059V122.088H153.113V123.524Z" fill="#EBEBEB"/>
<path d="M156.881 121.086H159.826V119.65H156.881V121.086Z" fill="#EBEBEB"/>
<path d="M153.113 121.086H156.059V119.65H153.113V121.086Z" fill="#EBEBEB"/>
<path d="M156.881 118.647H159.826V117.211H156.881V118.647Z" fill="#EBEBEB"/>
<path d="M153.113 118.647H156.059V117.211H153.113V118.647Z" fill="#EBEBEB"/>
<path d="M156.881 116.209H159.826V114.773H156.881V116.209Z" fill="#EBEBEB"/>
<path d="M153.113 116.209H156.059V114.773H153.113V116.209Z" fill="#EBEBEB"/>
<path d="M156.881 113.771H159.826V112.335H156.881V113.771Z" fill="#EBEBEB"/>
<path d="M153.113 113.771H156.059V112.335H153.113V113.771Z" fill="#EBEBEB"/>
<path d="M156.881 111.333H159.826V109.897H156.881V111.333Z" fill="#EBEBEB"/>
<path d="M153.113 111.333H156.059V109.897H153.113V111.333Z" fill="#EBEBEB"/>
<path d="M156.881 108.895H159.826V107.458H156.881V108.895Z" fill="#EBEBEB"/>
<path d="M153.113 108.895H156.059V107.458H153.113V108.895Z" fill="#EBEBEB"/>
<path d="M156.881 106.456H159.826V105.02H156.881V106.456Z" fill="#EBEBEB"/>
<path d="M153.113 106.456H156.059V105.02H153.113V106.456Z" fill="#EBEBEB"/>
<path d="M156.881 104.018H159.826V102.581H156.881V104.018Z" fill="#EBEBEB"/>
<path d="M153.113 104.018H156.059V102.581H153.113V104.018Z" fill="#EBEBEB"/>
<path d="M156.881 101.58H159.826V100.143H156.881V101.58Z" fill="#EBEBEB"/>
<path d="M153.113 101.58H156.059V100.143H153.113V101.58Z" fill="#EBEBEB"/>
<path d="M156.881 99.1416H159.826V97.7055H156.881V99.1416Z" fill="#EBEBEB"/>
<path d="M153.113 99.1416H156.059V97.7055H153.113V99.1416Z" fill="#EBEBEB"/>
<path d="M156.881 96.7031H159.826V95.267H156.881V96.7031Z" fill="#EBEBEB"/>
<path d="M153.113 96.7031H156.059V95.267H153.113V96.7031Z" fill="#EBEBEB"/>
<path d="M156.881 94.2646H159.826V92.8285H156.881V94.2646Z" fill="#EBEBEB"/>
<path d="M153.113 94.2646H156.059V92.8285H153.113V94.2646Z" fill="#EBEBEB"/>
<path d="M156.881 91.8262H159.826V90.39H156.881V91.8262Z" fill="#EBEBEB"/>
<path d="M153.113 91.8262H156.059V90.39H153.113V91.8262Z" fill="#EBEBEB"/>
<path d="M73.5821 81.0093H66.5264V89.1749H73.5821V81.0093Z" fill="#D0D0D0"/>
<path d="M78.0556 81.0093H73.582V89.4742H78.0556V81.0093Z" fill="#D5D5D5"/>
<path d="M78.3537 84.6147H73.9138V89.474H78.3537V84.6147Z" fill="#D0D0D0"/>
<path d="M81.1227 84.6147H78.3535V89.474H81.1227V84.6147Z" fill="#D5D5D5"/>
<path d="M75.2292 88.644H63.8203V129.267H75.2292V88.644Z" fill="#EBEBEB"/>
<path d="M68.7122 90.3901H65.1248V91.8263H68.7122V90.3901Z" fill="white"/>
<path d="M73.3014 90.3901H69.7139V91.8263H73.3014V90.3901Z" fill="white"/>
<path d="M68.7122 92.8286H65.1248V94.2647H68.7122V92.8286Z" fill="white"/>
<path d="M73.3014 92.8286H69.7139V94.2647H73.3014V92.8286Z" fill="white"/>
<path d="M68.7122 95.2666H65.1248V96.7027H68.7122V95.2666Z" fill="white"/>
<path d="M73.3014 95.2666H69.7139V96.7027H73.3014V95.2666Z" fill="white"/>
<path d="M68.7122 97.7051H65.1248V99.1412H68.7122V97.7051Z" fill="white"/>
<path d="M73.3014 97.7051H69.7139V99.1412H73.3014V97.7051Z" fill="white"/>
<path d="M68.7122 100.144H65.1248V101.58H68.7122V100.144Z" fill="white"/>
<path d="M73.3014 100.144H69.7139V101.58H73.3014V100.144Z" fill="white"/>
<path d="M68.7122 102.582H65.1248V104.018H68.7122V102.582Z" fill="white"/>
<path d="M73.3014 102.582H69.7139V104.018H73.3014V102.582Z" fill="white"/>
<path d="M68.7122 105.02H65.1248V106.456H68.7122V105.02Z" fill="white"/>
<path d="M73.3014 105.02H69.7139V106.456H73.3014V105.02Z" fill="white"/>
<path d="M68.7122 107.458H65.1248V108.894H68.7122V107.458Z" fill="white"/>
<path d="M73.3014 107.458H69.7139V108.894H73.3014V107.458Z" fill="white"/>
<path d="M68.7122 109.896H65.1248V111.333H68.7122V109.896Z" fill="white"/>
<path d="M73.3014 109.896H69.7139V111.333H73.3014V109.896Z" fill="white"/>
<path d="M68.7122 112.335H65.1248V113.771H68.7122V112.335Z" fill="white"/>
<path d="M73.3014 112.335H69.7139V113.771H73.3014V112.335Z" fill="white"/>
<path d="M68.7122 114.773H65.1248V116.21H68.7122V114.773Z" fill="white"/>
<path d="M73.3014 114.773H69.7139V116.21H73.3014V114.773Z" fill="white"/>
<path d="M68.7122 117.211H65.1248V118.648H68.7122V117.211Z" fill="white"/>
<path d="M73.3014 117.211H69.7139V118.648H73.3014V117.211Z" fill="white"/>
<path d="M68.7122 119.65H65.1248V121.086H68.7122V119.65Z" fill="white"/>
<path d="M73.3014 119.65H69.7139V121.086H73.3014V119.65Z" fill="white"/>
<path d="M68.7122 122.088H65.1248V123.524H68.7122V122.088Z" fill="white"/>
<path d="M73.3014 122.088H69.7139V123.524H73.3014V122.088Z" fill="white"/>
<path d="M84.4743 88.644H75.2292V129.267H84.4743V88.644Z" fill="#D5D5D5"/>
<path d="M80.6014 123.524H83.5471V122.088H80.6014V123.524Z" fill="#EBEBEB"/>
<path d="M76.8336 123.524H79.7793V122.088H76.8336V123.524Z" fill="#EBEBEB"/>
<path d="M80.6014 121.086H83.5471V119.65H80.6014V121.086Z" fill="#EBEBEB"/>
<path d="M76.8336 121.086H79.7793V119.65H76.8336V121.086Z" fill="#EBEBEB"/>
<path d="M80.6014 118.647H83.5471V117.211H80.6014V118.647Z" fill="#EBEBEB"/>
<path d="M76.8336 118.647H79.7793V117.211H76.8336V118.647Z" fill="#EBEBEB"/>
<path d="M80.6014 116.209H83.5471V114.773H80.6014V116.209Z" fill="#EBEBEB"/>
<path d="M76.8336 116.209H79.7793V114.773H76.8336V116.209Z" fill="#EBEBEB"/>
<path d="M80.6014 113.771H83.5471V112.335H80.6014V113.771Z" fill="#EBEBEB"/>
<path d="M76.8336 113.771H79.7793V112.335H76.8336V113.771Z" fill="#EBEBEB"/>
<path d="M80.6014 111.333H83.5471V109.897H80.6014V111.333Z" fill="#EBEBEB"/>
<path d="M76.8336 111.333H79.7793V109.897H76.8336V111.333Z" fill="#EBEBEB"/>
<path d="M80.6014 108.895H83.5471V107.458H80.6014V108.895Z" fill="#EBEBEB"/>
<path d="M76.8336 108.895H79.7793V107.458H76.8336V108.895Z" fill="#EBEBEB"/>
<path d="M80.6014 106.456H83.5471V105.02H80.6014V106.456Z" fill="#EBEBEB"/>
<path d="M76.8336 106.456H79.7793V105.02H76.8336V106.456Z" fill="#EBEBEB"/>
<path d="M80.6014 104.018H83.5471V102.581H80.6014V104.018Z" fill="#EBEBEB"/>
<path d="M76.8336 104.018H79.7793V102.581H76.8336V104.018Z" fill="#EBEBEB"/>
<path d="M80.6014 101.58H83.5471V100.143H80.6014V101.58Z" fill="#EBEBEB"/>
<path d="M76.8336 101.58H79.7793V100.143H76.8336V101.58Z" fill="#EBEBEB"/>
<path d="M80.6014 99.1416H83.5471V97.7055H80.6014V99.1416Z" fill="#EBEBEB"/>
<path d="M76.8336 99.1416H79.7793V97.7055H76.8336V99.1416Z" fill="#EBEBEB"/>
<path d="M80.6014 96.7031H83.5471V95.267H80.6014V96.7031Z" fill="#EBEBEB"/>
<path d="M76.8336 96.7031H79.7793V95.267H76.8336V96.7031Z" fill="#EBEBEB"/>
<path d="M80.6014 94.2646H83.5471V92.8285H80.6014V94.2646Z" fill="#EBEBEB"/>
<path d="M76.8336 94.2646H79.7793V92.8285H76.8336V94.2646Z" fill="#EBEBEB"/>
<path d="M80.6014 91.8262H83.5471V90.39H80.6014V91.8262Z" fill="#EBEBEB"/>
<path d="M76.8336 91.8262H79.7793V90.39H76.8336V91.8262Z" fill="#EBEBEB"/>
<path d="M128.44 102.797H114.983V129.267H128.44V102.797Z" fill="url(#paint0_linear_566_4253)"/>
<path d="M119.48 105.088H117.099V106.71H119.48V105.088Z" fill="#527485"/>
<path d="M119.48 108.552H117.099V110.174H119.48V108.552Z" fill="#527485"/>
<path d="M119.48 112.016H117.099V113.637H119.48V112.016Z" fill="#527485"/>
<path d="M119.48 115.479H117.099V117.101H119.48V115.479Z" fill="#527485"/>
<path d="M119.48 118.943H117.099V120.565H119.48V118.943Z" fill="#527485"/>
<path d="M119.48 122.407H117.099V124.029H119.48V122.407Z" fill="#527485"/>
<path d="M119.48 125.872H117.099V127.493H119.48V125.872Z" fill="#527485"/>
<path d="M122.906 105.088H120.525V106.71H122.906V105.088Z" fill="#527485"/>
<path d="M122.906 108.552H120.525V110.174H122.906V108.552Z" fill="#527485"/>
<path d="M122.906 112.016H120.525V113.637H122.906V112.016Z" fill="#527485"/>
<path d="M122.906 115.479H120.525V117.101H122.906V115.479Z" fill="#527485"/>
<path d="M122.906 118.943H120.525V120.565H122.906V118.943Z" fill="#527485"/>
<path d="M122.906 122.407H120.525V124.029H122.906V122.407Z" fill="#527485"/>
<path d="M122.906 125.872H120.525V127.493H122.906V125.872Z" fill="#527485"/>
<path d="M126.323 105.088H123.942V106.71H126.323V105.088Z" fill="#527485"/>
<path d="M126.323 108.552H123.942V110.174H126.323V108.552Z" fill="#527485"/>
<path d="M126.323 112.016H123.942V113.637H126.323V112.016Z" fill="#527485"/>
<path d="M126.323 115.479H123.942V117.101H126.323V115.479Z" fill="#527485"/>
<path d="M126.323 118.943H123.942V120.565H126.323V118.943Z" fill="#527485"/>
<path d="M126.323 122.407H123.942V124.029H126.323V122.407Z" fill="#527485"/>
<path d="M126.323 125.872H123.942V127.493H126.323V125.872Z" fill="#527485"/>
<path d="M128.44 100.039H119.481V102.796H128.44V100.039Z" fill="#527485"/>
<path d="M128.44 100.039H119.481V102.796H128.44V100.039Z" fill="url(#paint1_linear_566_4253)"/>
<path d="M128.44 98.3311H122.76V100.038H128.44V98.3311Z" fill="#527485"/>
<path d="M128.44 98.3311H122.76V100.038H128.44V98.3311Z" fill="url(#paint2_linear_566_4253)"/>
<path d="M137.881 102.797H128.44V129.267H137.881V102.797Z" fill="#263238"/>
<path d="M137.881 102.797H128.44V129.267H137.881V102.797Z" fill="url(#paint3_linear_566_4253)"/>
<path d="M134.976 127.234H136.915V125.613H134.976V127.234Z" fill="#527485"/>
<path d="M134.976 123.771H136.915V122.149H134.976V123.771Z" fill="#527485"/>
<path d="M134.976 120.306H136.915V118.684H134.976V120.306Z" fill="#527485"/>
<path d="M134.976 116.842H136.915V115.221H134.976V116.842Z" fill="#527485"/>
<path d="M134.976 113.378H136.915V111.757H134.976V113.378Z" fill="#527485"/>
<path d="M134.976 109.915H136.915V108.293H134.976V109.915Z" fill="#527485"/>
<path d="M134.976 106.451H136.915V104.829H134.976V106.451Z" fill="#527485"/>
<path d="M132.188 127.234H134.126V125.613H132.188V127.234Z" fill="#527485"/>
<path d="M132.188 123.771H134.126V122.149H132.188V123.771Z" fill="#527485"/>
<path d="M132.188 120.306H134.126V118.684H132.188V120.306Z" fill="#527485"/>
<path d="M132.188 116.842H134.126V115.221H132.188V116.842Z" fill="#527485"/>
<path d="M132.188 113.378H134.126V111.757H132.188V113.378Z" fill="#527485"/>
<path d="M132.188 109.915H134.126V108.293H132.188V109.915Z" fill="#527485"/>
<path d="M132.188 106.451H134.126V104.829H132.188V106.451Z" fill="#527485"/>
<path d="M129.406 127.234H131.345V125.613H129.406V127.234Z" fill="#527485"/>
<path d="M129.406 123.771H131.345V122.149H129.406V123.771Z" fill="#527485"/>
<path d="M129.406 120.306H131.345V118.684H129.406V120.306Z" fill="#527485"/>
<path d="M129.406 116.842H131.345V115.221H129.406V116.842Z" fill="#527485"/>
<path d="M129.406 113.378H131.345V111.757H129.406V113.378Z" fill="#527485"/>
<path d="M129.406 109.915H131.345V108.293H129.406V109.915Z" fill="#527485"/>
<path d="M129.406 106.451H131.345V104.829H129.406V106.451Z" fill="#527485"/>
<path d="M136.451 100.039H128.44V102.796H136.451V100.039Z" fill="#527485"/>
<path d="M136.451 100.039H128.44V102.796H136.451V100.039Z" fill="url(#paint4_linear_566_4253)"/>
<path d="M132.781 98.3311H128.44V100.038H132.781V98.3311Z" fill="#263238"/>
<path d="M132.781 98.3311H128.44V100.038H132.781V98.3311Z" fill="url(#paint5_linear_566_4253)"/>
<path d="M124.778 26.9526H128.409C120.447 26.9526 113.998 33.3691 113.998 41.2863C113.998 49.2074 120.447 55.6235 128.409 55.6235H124.778C116.816 55.6235 110.366 49.2074 110.366 41.2863C110.366 33.3688 116.816 26.9526 124.778 26.9526Z" fill="#1A8EF1"/>
<g opacity="0.1">
<path d="M124.778 26.9526H128.409C120.447 26.9526 113.998 33.3691 113.998 41.2863C113.998 49.2074 120.447 55.6235 128.409 55.6235H124.778C116.816 55.6235 110.366 49.2074 110.366 41.2863C110.366 33.3688 116.816 26.9526 124.778 26.9526Z" fill="#3C3C3C"/>
</g>
<path d="M128.408 96.303H124.778C139.407 79.6026 153.112 61.2998 151.096 41.0879C149.787 27.997 140.716 14.9595 124.778 14.9595H128.408C144.346 14.9595 153.417 27.997 154.726 41.0879C156.742 61.2998 143.041 79.6026 128.408 96.303Z" fill="#1A8EF1"/>
<g opacity="0.1">
<path d="M128.408 96.303H124.778C139.407 79.6026 153.112 61.2998 151.096 41.0879C149.787 27.997 140.716 14.9595 124.778 14.9595H128.408C144.346 14.9595 153.417 27.997 154.726 41.0879C156.742 61.2998 143.041 79.6026 128.408 96.303Z" fill="#3C3C3C"/>
</g>
<path d="M151.096 41.0872C153.112 61.2988 139.408 79.6037 124.778 96.3048C110.166 79.6037 96.4625 61.2988 98.4752 41.0872C99.7875 27.9964 108.854 14.9609 124.778 14.9609C140.717 14.9609 149.787 27.9964 151.096 41.0872ZM124.778 55.6234C132.758 55.6234 139.208 49.2072 139.208 41.2862C139.208 33.369 132.758 26.9525 124.778 26.9525C116.816 26.9525 110.367 33.369 110.367 41.2862C110.367 49.2072 116.816 55.6234 124.778 55.6234Z" fill="#1A8EF1"/>
<path d="M166 129H35.9998V131H166V129Z" fill="#D0D0D0"/>
<path d="M36.0131 129.267C36.0697 129.539 36.0826 129.81 36.0851 130.081C36.083 130.353 36.0705 130.625 36.0131 130.896C35.9562 130.624 35.9433 130.353 35.9412 130.081C35.9437 129.81 35.9566 129.539 36.0131 129.267Z" fill="#263238"/>
<path d="M40.8169 129.267C40.8734 129.539 40.8863 129.81 40.8888 130.081C40.8867 130.353 40.8742 130.625 40.8169 130.896C40.7599 130.624 40.747 130.353 40.7449 130.081C40.7474 129.81 40.7599 129.539 40.8169 129.267Z" fill="#263238"/>
<path d="M45.6203 129.267C45.6769 129.539 45.6898 129.81 45.6923 130.081C45.6902 130.353 45.6776 130.625 45.6203 130.896C45.5634 130.624 45.5505 130.353 45.5483 130.081C45.5508 129.81 45.5637 129.539 45.6203 129.267Z" fill="#263238"/>
<path d="M50.424 129.267C50.4806 129.539 50.4935 129.81 50.496 130.081C50.4939 130.353 50.4813 130.625 50.424 130.896C50.3671 130.624 50.3542 130.353 50.3521 130.081C50.3546 129.81 50.3671 129.539 50.424 129.267Z" fill="#263238"/>
<path d="M55.2273 129.267C55.2838 129.539 55.2967 129.81 55.2992 130.081C55.2971 130.353 55.2846 130.625 55.2273 130.896C55.1703 130.624 55.1574 130.353 55.1553 130.081C55.1578 129.81 55.1707 129.539 55.2273 129.267Z" fill="#263238"/>
<path d="M60.031 129.267C60.0876 129.539 60.1004 129.81 60.103 130.081C60.1008 130.353 60.0879 130.625 60.031 130.896C59.974 130.624 59.9611 130.353 59.959 130.081C59.9615 129.81 59.974 129.539 60.031 129.267Z" fill="#263238"/>
<path d="M64.8344 129.267C64.891 129.539 64.9039 129.81 64.9064 130.081C64.9043 130.353 64.8914 130.625 64.8344 130.896C64.7775 130.624 64.7646 130.353 64.7625 130.081C64.765 129.81 64.7778 129.539 64.8344 129.267Z" fill="#263238"/>
<path d="M69.6381 129.267C69.6947 129.539 69.7076 129.81 69.7101 130.081C69.708 130.353 69.6951 130.625 69.6381 130.896C69.5812 130.624 69.5683 130.353 69.5662 130.081C69.5687 129.81 69.5812 129.539 69.6381 129.267Z" fill="#263238"/>
<path d="M74.4416 129.267C74.4982 129.539 74.5111 129.81 74.5136 130.081C74.5114 130.353 74.4989 130.625 74.4416 130.896C74.3847 130.624 74.3718 130.353 74.3696 130.081C74.3721 129.81 74.385 129.539 74.4416 129.267Z" fill="#263238"/>
<path d="M79.2448 129.267C79.3014 129.539 79.3143 129.81 79.3168 130.081C79.3147 130.353 79.3021 130.625 79.2448 130.896C79.1879 130.624 79.175 130.353 79.1729 130.081C79.1757 129.81 79.1882 129.539 79.2448 129.267Z" fill="#263238"/>
<path d="M84.0485 129.267C84.1051 129.539 84.118 129.81 84.1205 130.081C84.1184 130.353 84.1059 130.625 84.0485 130.896C83.9916 130.624 83.9787 130.353 83.9766 130.081C83.9791 129.81 83.992 129.539 84.0485 129.267Z" fill="#263238"/>
<path d="M88.852 129.267C88.9086 129.539 88.9215 129.81 88.924 130.081C88.9218 130.353 88.9093 130.625 88.852 130.896C88.7951 130.624 88.7822 130.353 88.78 130.081C88.7829 129.81 88.7954 129.539 88.852 129.267Z" fill="#263238"/>
<path d="M93.6557 129.267C93.7123 129.539 93.7252 129.81 93.7277 130.081C93.7256 130.353 93.713 130.625 93.6557 130.896C93.5988 130.624 93.5859 130.353 93.5837 130.081C93.5862 129.81 93.5991 129.539 93.6557 129.267Z" fill="#263238"/>
<path d="M98.4592 129.267C98.5158 129.539 98.5287 129.81 98.5312 130.081C98.529 130.353 98.5161 130.625 98.4592 130.896C98.4022 130.624 98.3894 130.353 98.3872 130.081C98.3897 129.81 98.4026 129.539 98.4592 129.267Z" fill="#263238"/>
<path d="M103.263 129.267C103.319 129.539 103.332 129.81 103.335 130.081C103.333 130.353 103.32 130.625 103.263 130.896C103.206 130.624 103.193 130.353 103.191 130.081C103.193 129.81 103.206 129.539 103.263 129.267Z" fill="#263238"/>
<path d="M108.066 129.267C108.123 129.539 108.136 129.81 108.138 130.081C108.136 130.353 108.123 130.625 108.066 130.896C108.009 130.624 107.996 130.353 107.994 130.081C107.997 129.81 108.01 129.539 108.066 129.267Z" fill="#263238"/>
<path d="M112.87 129.267C112.926 129.539 112.939 129.81 112.942 130.081C112.94 130.353 112.927 130.625 112.87 130.896C112.813 130.624 112.8 130.353 112.798 130.081C112.8 129.81 112.813 129.539 112.87 129.267Z" fill="#263238"/>
<path d="M117.673 129.267C117.73 129.539 117.743 129.81 117.745 130.081C117.743 130.353 117.731 130.625 117.673 130.896C117.616 130.624 117.603 130.353 117.601 130.081C117.604 129.81 117.617 129.539 117.673 129.267Z" fill="#263238"/>
<path d="M122.477 129.267C122.534 129.539 122.546 129.81 122.549 130.081C122.547 130.353 122.534 130.625 122.477 130.896C122.42 130.624 122.407 130.353 122.405 130.081C122.408 129.81 122.42 129.539 122.477 129.267Z" fill="#263238"/>
<path d="M127.28 129.267C127.337 129.539 127.35 129.81 127.352 130.081C127.35 130.353 127.338 130.625 127.28 130.896C127.224 130.624 127.211 130.353 127.208 130.081C127.211 129.81 127.224 129.539 127.28 129.267Z" fill="#263238"/>
<path d="M132.084 129.267C132.141 129.539 132.154 129.81 132.156 130.081C132.154 130.353 132.141 130.625 132.084 130.896C132.027 130.624 132.014 130.353 132.012 130.081C132.015 129.81 132.027 129.539 132.084 129.267Z" fill="#263238"/>
<path d="M136.887 129.267C136.944 129.539 136.957 129.81 136.959 130.081C136.957 130.353 136.944 130.625 136.887 130.896C136.83 130.624 136.818 130.353 136.815 130.081C136.818 129.81 136.831 129.539 136.887 129.267Z" fill="#263238"/>
<path d="M141.691 129.267C141.748 129.539 141.761 129.81 141.763 130.081C141.761 130.353 141.748 130.625 141.691 130.896C141.634 130.624 141.621 130.353 141.619 130.081C141.622 129.81 141.634 129.539 141.691 129.267Z" fill="#263238"/>
<path d="M146.495 129.267C146.551 129.539 146.564 129.81 146.567 130.081C146.564 130.353 146.552 130.625 146.495 130.896C146.438 130.624 146.425 130.353 146.423 130.081C146.425 129.81 146.438 129.539 146.495 129.267Z" fill="#263238"/>
<path d="M151.298 129.267C151.355 129.539 151.368 129.81 151.37 130.081C151.368 130.353 151.356 130.625 151.298 130.896C151.241 130.624 151.228 130.353 151.226 130.081C151.229 129.81 151.241 129.539 151.298 129.267Z" fill="#263238"/>
<path d="M156.102 129.267C156.158 129.539 156.171 129.81 156.174 130.081C156.172 130.353 156.159 130.625 156.102 130.896C156.045 130.624 156.032 130.353 156.03 130.081C156.032 129.81 156.045 129.539 156.102 129.267Z" fill="#263238"/>
<path d="M160.905 129.267C160.962 129.539 160.975 129.81 160.977 130.081C160.975 130.353 160.963 130.625 160.905 130.896C160.848 130.624 160.835 130.353 160.833 130.081C160.836 129.81 160.848 129.539 160.905 129.267Z" fill="#263238"/>
<path d="M163.802 129.267C163.802 129.267 163.56 128.164 163.078 127.994C162.596 127.824 162.303 128.319 162.303 128.319C162.303 128.319 162.189 127.265 161.506 126.949C160.823 126.634 160.309 127.28 160.309 127.28C160.309 127.28 159.785 125.942 158.848 125.942C157.911 125.942 157.438 127.899 157.438 127.899C157.438 127.899 156.886 127.316 156.319 127.645C155.752 127.975 155.752 129.266 155.752 129.266H163.802V129.267Z" fill="url(#paint6_linear_566_4253)"/>
<path d="M90.2853 129.267C90.2853 129.267 90.0439 128.164 89.5618 127.994C89.0798 127.824 88.7864 128.319 88.7864 128.319C88.7864 128.319 88.6729 127.265 87.9896 126.949C87.3062 126.634 86.793 127.28 86.793 127.28C86.793 127.28 86.2687 125.942 85.3315 125.942C84.3942 125.942 83.9218 127.899 83.9218 127.899C83.9218 127.899 83.3689 127.316 82.8023 127.645C82.2354 127.975 82.2354 129.266 82.2354 129.266H90.2853V129.267Z" fill="url(#paint7_linear_566_4253)"/>
<path d="M156.272 129.267H151.812C151.812 129.267 151.822 128.616 152.261 128.444C152.699 128.272 152.96 128.608 152.96 128.608C152.96 128.608 153.138 127.413 153.956 127.413C154.773 127.413 155.164 128.444 155.164 128.444C155.164 128.444 155.347 128.132 155.801 128.19C156.254 128.248 156.272 129.267 156.272 129.267Z" fill="url(#paint8_linear_566_4253)"/>
<path d="M101.702 129.267H97.2415C97.2415 129.267 97.2518 128.616 97.6902 128.444C98.1286 128.272 98.3893 128.608 98.3893 128.608C98.3893 128.608 98.568 127.413 99.3853 127.413C100.203 127.413 100.594 128.444 100.594 128.444C100.594 128.444 100.777 128.132 101.23 128.19C101.683 128.248 101.702 129.267 101.702 129.267Z" fill="url(#paint9_linear_566_4253)"/>
<defs>
<linearGradient id="paint0_linear_566_4253" x1="137.4" y1="83.596" x2="107.922" y2="122.9" gradientUnits="userSpaceOnUse">
<stop stop-color="#042856"/>
<stop offset="1" stop-color="#034782"/>
<stop offset="1" stop-color="#03417A"/>
</linearGradient>
<linearGradient id="paint1_linear_566_4253" x1="134.405" y1="98.0381" x2="133.665" y2="104.35" gradientUnits="userSpaceOnUse">
<stop stop-color="#042856"/>
<stop offset="1" stop-color="#034782"/>
<stop offset="1" stop-color="#03417A"/>
</linearGradient>
<linearGradient id="paint2_linear_566_4253" x1="132.222" y1="97.0926" x2="131.774" y2="101.002" gradientUnits="userSpaceOnUse">
<stop stop-color="#001240"/>
<stop offset="1" stop-color="#00336E"/>
<stop offset="1" stop-color="#002760"/>
</linearGradient>
<linearGradient id="paint3_linear_566_4253" x1="144.168" y1="83.596" x2="113.53" y2="112.257" gradientUnits="userSpaceOnUse">
<stop stop-color="#001240"/>
<stop offset="1" stop-color="#00336E"/>
<stop offset="1" stop-color="#002760"/>
</linearGradient>
<linearGradient id="paint4_linear_566_4253" x1="141.785" y1="98.0381" x2="140.96" y2="104.328" gradientUnits="userSpaceOnUse">
<stop stop-color="#042856"/>
<stop offset="1" stop-color="#034782"/>
<stop offset="1" stop-color="#03417A"/>
</linearGradient>
<linearGradient id="paint5_linear_566_4253" x1="135.671" y1="97.0926" x2="135.09" y2="100.967" gradientUnits="userSpaceOnUse">
<stop stop-color="#001240"/>
<stop offset="1" stop-color="#00336E"/>
<stop offset="1" stop-color="#002760"/>
</linearGradient>
<linearGradient id="paint6_linear_566_4253" x1="169.162" y1="123.53" x2="167.976" y2="131.058" gradientUnits="userSpaceOnUse">
<stop stop-color="#042856"/>
<stop offset="1" stop-color="#034782"/>
<stop offset="1" stop-color="#03417A"/>
</linearGradient>
<linearGradient id="paint7_linear_566_4253" x1="95.6453" y1="123.53" x2="94.4597" y2="131.058" gradientUnits="userSpaceOnUse">
<stop stop-color="#042856"/>
<stop offset="1" stop-color="#034782"/>
<stop offset="1" stop-color="#03417A"/>
</linearGradient>
<linearGradient id="paint8_linear_566_4253" x1="159.242" y1="126.067" x2="158.577" y2="130.264" gradientUnits="userSpaceOnUse">
<stop stop-color="#042856"/>
<stop offset="1" stop-color="#034782"/>
<stop offset="1" stop-color="#03417A"/>
</linearGradient>
<linearGradient id="paint9_linear_566_4253" x1="104.672" y1="126.067" x2="104.006" y2="130.264" gradientUnits="userSpaceOnUse">
<stop stop-color="#042856"/>
<stop offset="1" stop-color="#034782"/>
<stop offset="1" stop-color="#03417A"/>
</linearGradient>
</defs>
</svg>
