<svg width="200" height="142" viewBox="0 0 200 142" fill="none" xmlns="http://www.w3.org/2000/svg">
<rect width="200" height="142" rx="30" fill="#D5EAFF"/>
<path d="M45.7353 6.11054C48.1128 5.69104 50.6009 6.5006 52.5353 7.94487C54.4702 9.38914 55.9 11.4187 56.9963 13.5702C59.117 17.7326 59.5002 23.0956 59.1768 27.756C54.0349 27.0656 50.0029 22.5973 48.1001 20.2021C45.0924 16.4161 41.9561 7.7478 45.7353 6.11054Z" fill="#FAFAFA"/>
<path d="M67.191 31.6415C65.2226 29.7981 64.5462 26.7954 65.2367 24.1882C65.9271 21.581 67.8556 19.396 70.2123 18.0845C71.3019 17.4784 72.6229 17.0398 73.7813 17.5015C74.8645 17.9327 75.5386 19.0884 75.6578 20.2482C75.7769 21.408 75.4231 22.5677 74.9411 23.6292C73.288 27.2693 71.0196 30.4886 67.191 31.6415Z" fill="#FAFAFA"/>
<path d="M69.2523 43.1489C69.193 43.1693 68.6856 42.1115 68.0146 40.3197C67.6789 39.4227 67.3999 38.2883 67.2522 37.0316C67.1117 35.7781 66.9287 34.4022 66.9523 32.924C66.9695 29.9756 67.7759 27.348 68.7318 25.675C69.2034 24.8314 69.6927 24.2189 70.0424 23.8135C70.4116 23.4221 70.6331 23.2259 70.6585 23.2495C70.731 23.3111 69.9038 24.1678 69.0598 25.8471C68.2153 27.5166 67.4941 30.0617 67.476 32.9308C67.452 34.3556 67.6187 35.731 67.7315 36.9754C67.852 38.219 68.0808 39.3036 68.3662 40.2042C68.9393 42.0041 69.3293 43.1222 69.2523 43.1489Z" fill="#FAFAFA"/>
<path d="M48.7066 12.5007C48.7361 12.4799 49.0858 12.9121 49.6933 13.7121C50.3013 14.5122 51.1648 15.681 52.2194 17.1348C54.3274 20.0424 57.1955 24.092 60.2535 28.6414C63.311 33.1934 65.9626 37.3912 67.8169 40.4682C68.7442 42.0067 69.48 43.2607 69.9706 44.1373C70.4635 45.0131 70.7208 45.506 70.69 45.5245C70.6592 45.5431 70.3425 45.0855 69.7962 44.2429C69.2036 43.3187 68.4321 42.1146 67.5025 40.6639C65.5694 37.6399 62.8729 33.4802 59.819 28.9331C56.7593 24.4472 53.9912 20.3885 51.9172 17.3477C50.9487 15.922 50.145 14.7387 49.528 13.8299C48.9712 12.9945 48.6772 12.522 48.7066 12.5007Z" fill="#FAFAFA"/>
<path d="M63.2538 36.3823C58.8748 32.7549 52.6791 31.4451 47.2065 32.9904C45.813 33.3837 44.2627 34.2041 44.0992 35.6429C43.9352 37.084 45.2703 38.2356 46.5582 38.9025C51.9176 41.6769 58.9546 40.7708 63.4369 36.7298" fill="#FAFAFA"/>
<path d="M50.6346 35.487C50.6296 35.4512 50.9137 35.3819 51.4324 35.2867C51.9502 35.1843 52.7072 35.0865 53.6468 34.9913C55.5156 34.8468 58.1898 34.7209 61.0086 35.5454C62.4098 35.959 63.6711 36.5942 64.7058 37.324C65.7473 38.0525 66.5252 38.8997 67.1295 39.6313C67.7089 40.3856 68.1321 41.028 68.3663 41.5041C68.6145 41.9721 68.736 42.2367 68.7042 42.2544C68.6141 42.3087 68.0582 41.2749 66.8464 39.8696C66.2216 39.1878 65.4447 38.3972 64.4299 37.72C63.421 37.0409 62.2105 36.4469 60.8604 36.0478C58.1481 35.2518 55.5269 35.3103 53.6708 35.361C51.8034 35.4471 50.6455 35.5703 50.6346 35.487Z" fill="#FAFAFA"/>
<path d="M156.252 32.6934H66.3054V135.494H156.252V32.6934Z" fill="white"/>
<path d="M153.982 35.6812H69.2412V132.957H153.982V35.6812Z" fill="#E5EDFF"/>
<path d="M122.716 53.8763C118.79 49.4547 112.608 46.9865 106.782 47.9954C100.955 49.0043 95.8075 53.6923 94.7297 59.5061L127.831 70.3503C128.365 64.4618 126.642 58.2979 122.716 53.8763Z" fill="#1A8EF1"/>
<path d="M95.6225 56.5906C95.6225 56.5906 105.904 49.5744 119.92 51.329L121.197 52.3153L94.73 59.0619L95.6225 56.5906Z" fill="#455A64"/>
<path d="M95.6225 56.5906C95.6225 56.5906 105.904 49.5744 119.92 51.329L121.197 52.3153L94.73 59.0619L95.6225 56.5906Z" fill="url(#paint0_linear_566_4239)"/>
<path d="M152.177 75.5094C151.022 75.5184 149.985 74.8257 149.111 74.0705C148.238 73.3153 147.418 72.4532 146.357 71.9966C144.995 71.4099 143.432 71.577 141.981 71.881C140.529 72.185 139.075 72.6177 137.594 72.5289C136.114 72.4401 134.553 71.6871 134.024 70.3018L129.613 73.8513C130.197 75.6969 131.939 77.1185 133.864 77.3206C136.403 77.587 139.102 75.9366 141.407 77.0334C142.343 77.4787 143.03 78.3145 143.888 78.8962C145.812 80.2005 148.328 80.0895 150.648 79.9287C149.068 79.53 147.692 78.3897 147.007 76.9115C148.799 77.5353 150.946 76.9532 152.177 75.5094Z" fill="#455A64"/>
<path d="M152.177 75.5094C151.022 75.5184 149.985 74.8257 149.111 74.0705C148.238 73.3153 147.418 72.4532 146.357 71.9966C144.995 71.4099 143.432 71.577 141.981 71.881C140.529 72.185 139.075 72.6177 137.594 72.5289C136.114 72.4401 134.553 71.6871 134.024 70.3018L129.613 73.8513C130.197 75.6969 131.939 77.1185 133.864 77.3206C136.403 77.587 139.102 75.9366 141.407 77.0334C142.343 77.4787 143.03 78.3145 143.888 78.8962C145.812 80.2005 148.328 80.0895 150.648 79.9287C149.068 79.53 147.692 78.3897 147.007 76.9115C148.799 77.5353 150.946 76.9532 152.177 75.5094Z" fill="url(#paint1_linear_566_4239)"/>
<path d="M136.578 72.3185C136.62 72.3711 135.534 73.288 134.216 74.4405C132.896 75.5917 131.841 76.544 131.794 76.4959C131.772 76.4728 132.008 76.2042 132.414 75.796C132.82 75.3874 133.399 74.841 134.06 74.2629C134.722 73.6853 135.342 73.1852 135.801 72.8381C136.26 72.4907 136.558 72.2936 136.578 72.3185Z" fill="white"/>
<path d="M138.537 72.3932C138.596 72.4222 138.114 73.5185 137.462 74.8423C136.81 76.1665 136.234 77.2161 136.175 77.1872C136.117 77.1582 136.598 76.0618 137.251 74.7381C137.903 73.4143 138.479 72.3642 138.537 72.3932Z" fill="white"/>
<path d="M142.42 72.1701C142.478 72.1991 142.075 73.2315 141.52 74.4756C140.964 75.72 140.465 76.709 140.404 76.685C140.344 76.661 140.747 75.629 141.304 74.3795C141.862 73.1301 142.361 72.1406 142.42 72.1701Z" fill="white"/>
<path d="M146.757 72.5678C146.815 72.5973 146.152 74.0311 145.275 75.7699C144.398 77.5095 143.64 78.8953 143.582 78.8659C143.524 78.8365 144.187 77.4031 145.064 75.6639C145.941 73.9247 146.699 72.5384 146.757 72.5678Z" fill="white"/>
<path d="M143.345 59.9182C142.34 56.6704 139.977 55.5727 138.548 54.8805C129.725 50.6057 121.168 51.2572 111.489 52.8124C101.809 54.3677 92.6414 58.498 84.6033 64.1106C81.7949 66.0713 78.8457 68.7605 78.9984 72.1818C79.1184 74.866 81.2427 77.1289 83.6981 78.2207C86.1531 79.3126 88.908 79.4611 91.5918 79.5934L127.993 76.6324C131.965 75.1315 132.978 73.9718 138.649 69.7912C144.212 65.6903 143.976 61.9555 143.345 59.9182Z" fill="#1A8EF1"/>
<g opacity="0.3">
<path d="M126.813 58.5854C128.135 58.884 129.296 59.8209 129.868 61.0486C130.554 62.5196 130.389 64.2216 130.463 65.843C130.56 67.9632 131.118 70.1088 132.369 71.824C132.811 72.4301 133.37 72.9688 133.301 73.7158C131.894 74.8017 130.459 75.6956 128.991 76.357L126.983 61.6842L126.813 58.5854Z" fill="#3C3C3C"/>
</g>
<g opacity="0.3">
<path d="M89.7517 70.4363C88.1992 72.3069 87.5445 75.1279 88.8121 77.2019C89.7608 78.754 91.5398 79.5776 93.2663 80.1507C93.5885 80.2576 93.9785 80.3473 94.2376 80.1285C94.4415 79.9563 94.4773 79.6614 94.499 79.3955C94.8311 75.3105 95.1632 71.2255 95.4953 67.1405L94.982 65.7202C92.7485 66.6811 91.3043 68.5662 89.7517 70.4363Z" fill="#3C3C3C"/>
</g>
<path d="M98.0543 100.522C97.2397 94.6243 96.4252 88.7259 95.6111 82.8278L93.065 77.5713C93.8397 80.5599 92.1771 83.6048 90.3881 86.1209C88.599 88.6371 86.5332 91.2316 86.3674 94.3145C86.2768 95.9998 86.7729 97.7299 86.3158 99.3545C85.9089 100.8 84.8126 101.928 83.9876 103.183C83.1622 104.437 82.6032 106.11 83.3593 107.407C87.3351 106.559 91.3113 105.711 95.2872 104.863C96.1081 104.688 96.986 104.481 97.5473 103.858C98.3252 102.993 98.2133 101.674 98.0543 100.522Z" fill="#3C3C3C"/>
<path d="M128.024 89.0926C127.797 91.0135 128.914 93.0195 130.667 93.8377C132.096 94.5045 133.883 94.4606 135.037 95.5356C136.59 96.9817 136.18 99.675 137.549 101.297C138.849 102.839 141.213 102.829 143.192 102.442C145.171 102.055 147.265 101.428 149.144 102.159C148.96 100.863 147.711 100.001 146.5 99.5019C145.29 99.0032 143.949 98.6652 143.03 97.7329C141.684 96.3674 141.682 94.2214 141.122 92.3875C140.436 90.1414 138.77 88.2133 136.647 87.2094C135.394 86.6172 133.96 86.3096 132.95 85.3601C131.875 84.3494 131.497 82.8032 131.366 81.3335C131.234 79.8639 131.294 78.3589 130.875 76.9441C130.456 75.5293 129.409 74.1688 127.952 73.9351" fill="#3C3C3C"/>
<path d="M93.3488 70.9041L129.422 69.4463C129.558 80.6557 129.017 90.2971 133.265 99.6504C134.345 102.028 135.72 104.28 136.544 106.758C137.367 109.235 137.584 112.068 136.361 114.375C133.888 113.804 131.415 113.233 128.943 112.662C128.923 111.903 128.903 111.144 128.883 110.385C128.721 111.372 127.941 112.272 127.006 112.715C125.802 113.284 124.415 113.273 123.083 113.228C115.372 112.963 107.689 111.896 100.197 110.052C99.2001 109.807 94.5697 110.454 94.5697 110.454C91.3065 99.0819 91.3776 82.5702 93.3488 70.9041Z" fill="#3C3C3C"/>
<path d="M151.317 132.957C151.317 132.957 141.653 112.195 138.832 106.762C134.586 98.5825 126.14 98.5399 126.14 98.5399L92.5909 97.772C92.5909 97.772 83.3269 101 81.377 103.911C79.5694 106.609 71.3654 129.704 69.5356 130.27L71.5303 132.957L84.2665 133.123H85.3451H134.71C134.711 133.117 134.711 133.112 134.711 133.106L144.118 133.041L151.317 132.957Z" fill="url(#paint2_linear_566_4239)"/>
<g opacity="0.1">
<path d="M112.066 112.786C111.353 111.575 110.349 110.568 109.392 109.54C105.373 105.224 102.013 100.296 99.4622 94.978L91.0667 98.4161C91.5093 102.798 91.8173 107.718 94.1196 111.472C95.7537 114.138 97.3235 116.581 99.7105 118.6C100.254 117.984 102.085 117.566 102.857 117.847C103.628 118.128 104.276 118.663 104.984 119.079C106.337 119.875 107.984 120.236 109.509 119.866C111.035 119.497 112.393 118.335 112.806 116.821C113.176 115.466 112.778 113.997 112.066 112.786Z" fill="#3C3C3C"/>
</g>
<path d="M93.8599 68.7385C95.1859 63.1716 96.3525 62.0599 100.977 58.6898C105.099 55.6871 112.033 52.9893 117.117 53.382C119.62 53.5755 120.269 52.1312 122.409 53.4441C125.343 55.2445 126.49 58.7265 127.824 61.9C130.498 68.2574 129.832 76.7155 127.788 79.0006L101.161 91.8821C96.6184 89.3107 93.5632 88.0775 92.5176 82.9642C91.8054 79.4817 93.0363 72.1965 93.8599 68.7385Z" fill="#3C3C3C"/>
<path d="M101.553 59.19L118.175 54.917C123.502 54.3317 127.072 60.8794 127.43 66.226C127.829 72.1662 128.081 79.4342 127.395 83.8703C126.016 92.7905 119.187 93.9525 119.187 93.9525C119.185 93.9226 119.167 94.0857 119.127 96.7342L119.158 102.697C116.944 109.924 109.619 109.032 100.474 105.249L98.7602 62.3816C98.7212 60.7543 99.9345 59.3676 101.553 59.19Z" fill="#FCB7A9"/>
<path d="M123.85 73.4578C123.874 74.0613 123.382 74.5795 122.752 74.6158C122.123 74.652 121.593 74.1936 121.57 73.5897C121.546 72.9862 122.037 72.4675 122.666 72.4313C123.296 72.3946 123.826 72.8539 123.85 73.4578Z" fill="#3C3C3C"/>
<path d="M125.867 70.935C125.725 71.0849 124.857 70.4471 123.626 70.4552C122.397 70.4457 121.497 71.0822 121.363 70.9323C121.297 70.8657 121.44 70.5961 121.832 70.308C122.218 70.0217 122.877 69.7417 123.644 69.7417C124.41 69.7431 125.056 70.0226 125.428 70.3098C125.807 70.5988 125.936 70.8679 125.867 70.935Z" fill="#3C3C3C"/>
<path d="M112.745 73.4577C112.769 74.0616 112.277 74.579 111.647 74.6157C111.019 74.6519 110.488 74.1935 110.464 73.5896C110.44 72.9857 110.932 72.4674 111.561 72.4307C112.191 72.3945 112.721 72.8543 112.745 73.4577Z" fill="#3C3C3C"/>
<path d="M113.857 70.6538C113.715 70.8033 112.845 70.1663 111.616 70.1745C110.387 70.1649 109.487 70.8015 109.353 70.6515C109.287 70.5849 109.429 70.3154 109.822 70.0277C110.208 69.7409 110.867 69.4609 111.633 69.4609C112.399 69.4623 113.045 69.7418 113.417 70.029C113.795 70.3176 113.925 70.5867 113.857 70.6538Z" fill="#3C3C3C"/>
<path d="M118.279 79.3977C118.273 79.3279 119.037 79.1925 120.276 79.0289C120.59 78.9954 120.887 78.9315 120.939 78.7172C121.012 78.4898 120.879 78.1518 120.725 77.7867C120.427 77.0279 120.115 76.2319 119.787 75.3983C118.483 71.9979 117.537 69.2008 117.675 69.1496C117.812 69.0984 118.981 71.813 120.285 75.2139C120.599 76.0525 120.899 76.8521 121.185 77.6168C121.305 77.9734 121.511 78.3775 121.353 78.8491C121.269 79.0842 121.039 79.2554 120.838 79.3107C120.637 79.3728 120.46 79.3768 120.305 79.3868C119.057 79.4588 118.284 79.4679 118.279 79.3977Z" fill="#3C3C3C"/>
<path d="M119.188 93.9527C119.188 93.9527 113.192 94.3637 107.236 90.8164C107.236 90.8164 110.212 97.0424 119.131 96.1722L119.188 93.9527Z" fill="#8F4E45"/>
<path d="M117.485 81.9264C116.975 81.2083 116.32 80.9437 115.539 80.9723C114.998 80.9922 114.47 81.2441 114.18 81.7202C113.889 82.1964 113.879 82.9072 114.221 83.4141C114.606 83.9854 115.328 84.1711 115.913 84.0289C116.499 83.8866 116.979 83.4821 117.434 83.0775C117.559 82.9656 117.504 83.0454 117.575 82.8827C117.646 82.721 117.659 82.1339 117.485 81.9264Z" fill="#DE796B"/>
<path d="M114.44 80.3087C114.639 80.2951 114.655 81.6306 115.807 82.5671C116.958 83.5071 118.38 83.3431 118.392 83.5293C118.411 83.6131 118.077 83.7921 117.477 83.8138C116.887 83.8401 116.025 83.6589 115.32 83.0862C114.617 82.5118 114.31 81.7394 114.259 81.1917C114.203 80.6344 114.349 80.3019 114.44 80.3087Z" fill="#3C3C3C"/>
<path d="M114.398 66.7823C114.298 67.1234 113.062 67.041 111.633 67.3037C110.197 67.5375 109.062 68.0309 108.852 67.7432C108.758 67.6055 108.941 67.2788 109.391 66.9264C109.836 66.5748 110.56 66.2223 111.419 66.0728C112.278 65.9247 113.079 66.013 113.616 66.1943C114.158 66.375 114.441 66.621 114.398 66.7823Z" fill="#3C3C3C"/>
<path d="M125.88 68.2346C125.593 68.4666 124.713 68.0127 123.594 67.7966C122.484 67.5456 121.492 67.6072 121.326 67.2801C121.255 67.1229 121.454 66.8751 121.916 66.6894C122.371 66.5041 123.093 66.4153 123.859 66.5756C124.625 66.7369 125.247 67.1066 125.586 67.4586C125.93 67.8129 126.009 68.1191 125.88 68.2346Z" fill="#3C3C3C"/>
<path d="M118.352 53.8877C118.749 57.4844 118.129 61.1883 116.581 64.4592C116.149 65.373 115.63 66.2723 114.863 66.931C114.096 67.5892 113.038 67.9761 112.057 67.7347C113.627 65.8079 114.574 63.381 114.723 60.9002C113.583 63.3964 112.411 65.9379 110.553 67.9562C108.693 69.9749 105.997 71.4196 103.272 71.0907L103.513 69.2627C103.075 70.5625 102.379 71.8387 101.24 72.6034C100.102 73.3677 98.4472 73.4778 97.4148 72.5758C98.4721 68.1433 95.8898 63.2188 97.7337 59.0518C99.0108 56.166 102.472 55.2754 105.508 54.4169C109.779 53.2091 113.997 52.4018 118.289 53.5289" fill="#3C3C3C"/>
<path d="M117.979 53.9487C117.992 54.0135 118.001 54.0787 118.014 54.1435L117.983 54.1553C117.981 54.0864 117.98 54.0176 117.979 53.9487Z" fill="#3C3C3C"/>
<path d="M118.014 54.1435L118.561 53.9355C120.267 53.1192 121.399 52.1683 123.942 54.5589C125.32 55.8546 126.526 57.7695 127.374 59.7112C128.132 61.4445 128.952 63.3278 129.185 65.2047C129.491 67.6611 129.521 69.446 129.166 72.0455C127.686 70.9986 126.966 69.1828 126.535 67.4219C126.104 65.6609 125.873 63.8193 125.038 62.2097C125.249 63.7097 125.46 65.2432 125.172 66.7305C125.094 67.1373 124.963 67.5618 124.649 67.8318C124.334 68.1019 123.788 68.134 123.542 67.7997C124.146 66.0922 124.093 64.2067 123.694 62.4399C123.295 60.673 122.566 59.0009 121.829 57.3464C122.142 60.369 121.933 63.4451 121.213 66.3975C121.11 66.8216 120.983 67.266 120.667 67.5668C120.194 68.0171 119.453 68.0094 118.811 67.893C118.169 67.7766 117.508 67.5809 116.877 67.7508C118.48 63.4306 118.875 58.6706 118.014 54.1435Z" fill="#3C3C3C"/>
<path d="M108.466 104.489C106.942 102.167 105.141 99.8195 104.941 97.0483C104.771 94.7047 105.794 92.3933 105.603 90.0516C105.402 87.569 103.875 85.394 103.303 82.9698C101.914 77.089 106.288 70.8507 104.478 65.0854L96.7156 65.8905L92.5967 96.3701C92.4916 102.897 94.1814 109.443 97.4323 115.104C97.667 114.88 97.9017 114.656 98.1363 114.432C97.5959 113.031 97.1261 111.602 96.7215 110.155C98.2845 112.648 100.348 114.79 102.789 116.248C105.331 115.125 107.991 114.153 110.53 112.28C111.343 109.623 109.991 106.812 108.466 104.489Z" fill="#3C3C3C"/>
<path d="M123.703 52.8864C117.692 51.0765 108.658 53.2099 103.055 54.9663C97.0652 56.8436 90.8845 61.5556 90.7495 67.8315L90.3254 69.7428C96.4618 63.1381 104.494 61.1538 112.054 59.136C119.614 57.1182 128.064 57.4272 134.797 61.4125C132.6 56.3254 129.009 54.4843 123.703 52.8864Z" fill="#1A8EF1"/>
<path d="M93.0237 113.563C93.0219 113.567 92.983 113.549 92.9087 113.512C92.8353 113.473 92.722 113.421 92.5834 113.336C92.303 113.173 91.9007 112.906 91.4377 112.495C90.9747 112.086 90.4605 111.517 89.9957 110.768C89.5372 110.018 89.134 109.076 88.9646 107.973C88.7956 106.876 88.8595 105.626 89.264 104.378C89.4683 103.756 89.7565 103.137 90.1357 102.55C90.5189 101.962 91.0064 101.438 91.4399 100.864C91.8721 100.298 92.259 99.6417 92.2799 98.9078C92.3043 98.1725 91.9365 97.4703 91.5523 96.7899C90.7038 95.4353 90.2593 93.7627 90.2381 92.0724C90.2 90.3726 90.5207 88.7377 90.8927 87.1992C91.2846 85.6656 91.6628 84.1865 92.023 82.7762C92.7198 79.9534 93.2716 77.3933 93.6997 75.2364C94.1296 73.0799 94.4358 71.3263 94.6452 70.1144C94.7471 69.5218 94.8273 69.0547 94.8848 68.7181C94.912 68.57 94.9342 68.4509 94.9514 68.3557C94.9677 68.2742 94.9781 68.2329 94.9822 68.2334C94.9863 68.2339 94.984 68.2764 94.9754 68.3593C94.9641 68.4554 94.9496 68.5754 94.9319 68.7254C94.8921 69.047 94.8264 69.5205 94.7358 70.1289C94.5541 71.3462 94.2728 73.1053 93.8637 75.2681C93.4559 77.4313 92.9205 79.9982 92.2346 82.8274C91.8989 84.2431 91.4952 85.72 91.1174 87.2531C90.75 88.7852 90.4365 90.4007 90.4741 92.067C90.499 93.7319 90.9208 95.337 91.7544 96.677C92.1358 97.3593 92.5322 98.1 92.5055 98.9146C92.4787 99.726 92.0547 100.421 91.6139 100.995C91.1681 101.579 90.6829 102.097 90.3096 102.664C89.9381 103.233 89.6536 103.834 89.4502 104.439C89.0479 105.653 88.9754 106.874 89.1299 107.949C89.2849 109.027 89.6686 109.956 90.1089 110.7C90.5556 111.443 91.0517 112.013 91.5002 112.427C91.9482 112.844 92.3383 113.12 92.6092 113.296C92.881 113.469 93.0287 113.554 93.0237 113.563Z" fill="#3C3C3C"/>
<path d="M123.703 107.678C123.665 107.702 123.553 106.955 122.697 106.018C122.272 105.557 121.656 105.077 120.859 104.676C120.063 104.27 119.079 103.978 117.978 103.732C116.878 103.479 115.645 103.283 114.372 102.847C113.738 102.627 113.096 102.344 112.49 101.953C111.885 101.564 111.319 101.055 110.896 100.414C110.038 99.1158 109.878 97.4446 109.919 95.8264C109.93 94.1991 110.133 92.4929 109.724 90.8326C109.687 90.6224 109.603 90.4276 109.536 90.2278C109.477 90.0248 109.381 89.8391 109.285 89.6538C109.116 89.2705 108.864 88.9366 108.6 88.6195C108.061 87.9889 107.419 87.4661 106.8 86.9351C106.176 86.4105 105.581 85.8506 105.099 85.2172C104.613 84.5884 104.226 83.9084 103.925 83.2144C103.325 81.8222 103.056 80.3897 102.982 79.0528C102.91 77.7119 103.036 76.4624 103.232 75.3434C103.635 73.1022 104.261 71.3658 104.673 70.1698C104.884 69.5722 105.056 69.1115 105.175 68.7998C105.232 68.6548 105.277 68.5384 105.313 68.4464C105.346 68.3672 105.364 68.3273 105.368 68.3286C105.372 68.33 105.361 68.3726 105.336 68.4546C105.306 68.5488 105.268 68.6675 105.219 68.8161C105.109 69.1486 104.955 69.6121 104.759 70.2001C104.375 71.4038 103.775 73.1448 103.397 75.3724C103.213 76.4846 103.098 77.7209 103.178 79.0424C103.258 80.3603 103.531 81.7683 104.125 83.1283C104.422 83.8065 104.802 84.4693 105.277 85.08C105.748 85.6947 106.326 86.2375 106.95 86.7603C107.568 87.2881 108.22 87.8163 108.779 88.4682C109.052 88.7953 109.318 89.1464 109.494 89.5473C109.595 89.7412 109.695 89.936 109.758 90.1471C109.827 90.3546 109.913 90.559 109.952 90.776C110.374 92.4975 110.162 94.2149 110.149 95.8309C110.105 97.4405 110.263 99.0542 111.077 100.295C111.891 101.531 113.207 102.227 114.436 102.663C115.684 103.099 116.912 103.305 118.015 103.57C119.119 103.828 120.113 104.135 120.918 104.559C121.723 104.978 122.342 105.478 122.765 105.957C123.192 106.434 123.422 106.884 123.549 107.192C123.678 107.502 123.703 107.678 123.703 107.678Z" fill="#3C3C3C"/>
<path d="M149.964 93.7724C149.965 93.7765 149.927 93.7919 149.852 93.8181C149.763 93.8476 149.653 93.8843 149.516 93.9296C149.219 94.0229 148.781 94.1602 148.205 94.3011C147.63 94.4388 146.915 94.5883 146.067 94.6119C145.227 94.6291 144.234 94.5194 143.269 94.0306C142.292 93.554 141.497 92.5864 140.998 91.4402C140.49 90.2899 140.192 88.9852 139.714 87.685C139.47 87.0381 139.172 86.3907 138.75 85.8108C138.328 85.2305 137.78 84.7303 137.166 84.3004C135.935 83.4324 134.465 82.8394 133.085 81.9777C132.397 81.5469 131.753 81.0431 131.227 80.4383C130.7 79.8353 130.31 79.1399 130.025 78.4246C129.461 76.9848 129.307 75.4844 129.322 74.0831C129.34 72.6769 129.514 71.3559 129.646 70.1227C129.784 68.89 129.886 67.7393 129.875 66.6883C129.868 64.5822 129.345 62.9136 128.772 61.8934C128.489 61.3783 128.204 61.0186 128.009 60.7785C127.914 60.6711 127.836 60.5846 127.775 60.5148C127.722 60.4546 127.697 60.4224 127.7 60.4197C127.702 60.4165 127.734 60.4432 127.792 60.4981C127.85 60.5538 127.937 60.634 128.045 60.7472C128.253 60.9787 128.552 61.3335 128.851 61.8481C129.457 62.8679 130.013 64.5554 130.041 66.6856C130.064 67.7479 129.97 68.9072 129.841 70.1431C129.717 71.379 129.55 72.6964 129.539 74.085C129.53 75.4672 129.688 76.9409 130.24 78.3389C130.518 79.0334 130.896 79.7048 131.405 80.2843C131.911 80.8655 132.534 81.3539 133.211 81.7774C134.565 82.6251 136.04 83.2208 137.299 84.111C137.927 84.5523 138.495 85.0724 138.932 85.6781C139.37 86.2833 139.674 86.9502 139.918 87.6089C140.398 88.9317 140.687 90.2315 141.177 91.3609C141.66 92.4858 142.413 93.4131 143.346 93.8825C144.271 94.3631 145.24 94.4846 146.066 94.4796C146.898 94.4687 147.61 94.3346 148.185 94.2114C148.76 94.085 149.202 93.9618 149.503 93.8838C149.642 93.8476 149.755 93.8186 149.845 93.795C149.922 93.776 149.963 93.7683 149.964 93.7724Z" fill="#3C3C3C"/>
<path d="M123.371 51.6275C123.371 51.6357 123.261 51.642 123.054 51.6461C122.823 51.6479 122.522 51.6506 122.147 51.6538C121.753 51.6479 121.272 51.6592 120.713 51.6846C120.154 51.7018 119.518 51.7222 118.817 51.7806C117.412 51.8563 115.747 52.057 113.906 52.3125C112.068 52.6006 110.059 52.9816 107.972 53.4818C105.887 53.9969 103.926 54.5822 102.161 55.168C100.406 55.7832 98.8339 56.3662 97.5472 56.9362C96.8962 57.2034 96.32 57.473 95.8135 57.7099C95.3038 57.9405 94.8694 58.1476 94.5201 58.3292C94.1839 58.495 93.9139 58.6278 93.7064 58.7302C93.5189 58.8194 93.4188 58.8629 93.4147 58.8561C93.4106 58.8488 93.5035 58.7913 93.6838 58.6885C93.8863 58.5761 94.15 58.4298 94.4779 58.2477C94.8213 58.0529 95.2508 57.8332 95.7564 57.5908C96.2588 57.3421 96.8319 57.0607 97.4806 56.783C98.7627 56.1918 100.333 55.5906 102.091 54.9618C103.858 54.3625 105.824 53.7685 107.916 53.2521C110.01 52.7497 112.029 52.3741 113.874 52.0969C115.724 51.8522 117.396 51.6683 118.807 51.6135C119.511 51.5654 120.15 51.5573 120.71 51.5523C121.271 51.5396 121.753 51.5419 122.148 51.5618C122.523 51.5768 122.824 51.589 123.055 51.5981C123.263 51.6094 123.371 51.6194 123.371 51.6275Z" fill="#3C3C3C"/>
<path d="M123.371 51.6275C123.371 51.6357 123.261 51.642 123.054 51.6461C122.823 51.6479 122.522 51.6506 122.147 51.6538C121.753 51.6479 121.272 51.6592 120.713 51.6846C120.154 51.7018 119.518 51.7222 118.817 51.7806C117.412 51.8563 115.747 52.057 113.906 52.3125C112.068 52.6006 110.059 52.9816 107.972 53.4818C105.887 53.9969 103.926 54.5822 102.161 55.168C100.406 55.7832 98.8339 56.3662 97.5472 56.9362C96.8962 57.2034 96.32 57.473 95.8135 57.7099C95.3038 57.9405 94.8694 58.1476 94.5201 58.3292C94.1839 58.495 93.9139 58.6278 93.7064 58.7302C93.5189 58.8194 93.4188 58.8629 93.4147 58.8561C93.4106 58.8488 93.5035 58.7913 93.6838 58.6885C93.8863 58.5761 94.15 58.4298 94.4779 58.2477C94.8213 58.0529 95.2508 57.8332 95.7564 57.5908C96.2588 57.3421 96.8319 57.0607 97.4806 56.783C98.7627 56.1918 100.333 55.5906 102.091 54.9618C103.858 54.3625 105.824 53.7685 107.916 53.2521C110.01 52.7497 112.029 52.3741 113.874 52.0969C115.724 51.8522 117.396 51.6683 118.807 51.6135C119.511 51.5654 120.15 51.5573 120.71 51.5523C121.271 51.5396 121.753 51.5419 122.148 51.5618C122.523 51.5768 122.824 51.589 123.055 51.5981C123.263 51.6094 123.371 51.6194 123.371 51.6275Z" fill="url(#paint3_linear_566_4239)"/>
<path d="M132.252 61.6848C132.223 61.7133 131.812 61.2915 131.087 60.6899C130.369 60.0833 129.272 59.3621 127.904 58.9281C126.537 58.4941 125.235 58.3233 124.3 58.1896C123.363 58.0614 122.779 57.9966 122.782 57.959C122.784 57.9427 122.931 57.9404 123.197 57.95C123.462 57.9577 123.846 57.9808 124.319 58.0243C125.263 58.1158 126.579 58.2603 127.977 58.7038C129.377 59.1473 130.499 59.9166 131.196 60.5631C131.552 60.8811 131.82 61.1597 131.995 61.359C132.172 61.5584 132.264 61.6734 132.252 61.6848Z" fill="#3C3C3C"/>
<path d="M87.5514 133.059C87.4861 133.057 87.5491 130.368 87.6923 127.056C87.8354 123.743 88.004 121.06 88.0687 121.063C88.134 121.065 88.0706 123.753 87.9279 127.066C87.7852 130.379 87.6162 133.062 87.5514 133.059Z" fill="#3C3C3C"/>
<path d="M135.93 133.221C135.868 133.213 136.096 132.223 135.986 130.616C135.969 130.414 135.951 130.204 135.933 129.987C135.908 129.769 135.864 129.544 135.829 129.311C135.767 128.842 135.639 128.351 135.526 127.831C135.263 126.798 134.915 125.677 134.53 124.504C134.143 123.332 133.788 122.205 133.516 121.166C133.393 120.642 133.265 120.148 133.194 119.673C133.156 119.437 133.106 119.211 133.081 118.99C133.059 118.77 133.038 118.558 133.017 118.354C132.963 117.95 132.98 117.58 132.973 117.257C132.974 117.095 132.967 116.945 132.976 116.807C132.989 116.672 133.002 116.546 133.014 116.43C133.061 115.977 133.095 115.729 133.111 115.731C133.171 115.736 133.008 116.736 133.183 118.338C133.208 118.538 133.234 118.747 133.262 118.964C133.291 119.182 133.345 119.405 133.387 119.638C133.465 120.104 133.6 120.593 133.727 121.111C134.008 122.14 134.367 123.258 134.754 124.431C135.14 125.605 135.484 126.735 135.738 127.779C135.846 128.307 135.969 128.803 136.022 129.28C136.054 129.518 136.094 129.746 136.115 129.967C136.128 130.188 136.141 130.401 136.153 130.606C136.193 131.012 136.159 131.381 136.149 131.704C136.141 131.866 136.14 132.017 136.125 132.154C136.104 132.288 136.085 132.413 136.066 132.529C135.993 132.978 135.946 133.224 135.93 133.221Z" fill="#3C3C3C"/>
<path d="M106.255 55.9042C106.257 55.9119 106.161 55.9463 105.978 56.0039C105.771 56.0659 105.504 56.1461 105.174 56.2449C104.823 56.3445 104.396 56.4696 103.904 56.6313C103.411 56.7908 102.846 56.9566 102.233 57.1786C100.999 57.5936 99.549 58.1453 97.9629 58.8131C96.3828 59.4949 94.6698 60.3004 92.9184 61.2373C91.172 62.1841 89.556 63.1713 88.1172 64.1159C86.6865 65.0731 85.428 65.9801 84.4023 66.782C83.88 67.1711 83.4306 67.5521 83.0265 67.8751C82.6205 68.1968 82.2808 68.4849 82.0049 68.7227C81.7408 68.9438 81.5269 69.1228 81.3611 69.2614C81.2121 69.3828 81.131 69.4435 81.1255 69.4376C81.1201 69.4317 81.1903 69.3588 81.3289 69.2261C81.4875 69.0784 81.6918 68.8886 81.9442 68.6534C82.2115 68.4047 82.5431 68.1053 82.9417 67.7736C83.3386 67.4398 83.7821 67.0492 84.299 66.6501C85.3147 65.8288 86.5669 64.9046 87.9962 63.9342C89.4337 62.9765 91.0528 61.9794 92.8065 61.0289C94.5647 60.0884 96.2876 59.2852 97.8782 58.612C99.4747 57.9528 100.936 57.4155 102.18 57.0196C102.798 56.8071 103.368 56.6521 103.865 56.5045C104.362 56.3541 104.794 56.2422 105.148 56.1556C105.484 56.0741 105.755 56.0084 105.965 55.9572C106.154 55.9151 106.253 55.896 106.255 55.9042Z" fill="#3C3C3C"/>
<path d="M84.5595 68.3018C84.5934 68.3643 83.7413 68.8418 82.861 69.6446C81.974 70.4406 81.4145 71.2411 81.3556 71.2008C81.3035 71.1731 81.7892 70.2911 82.7029 69.4693C83.6108 68.6429 84.5373 68.2474 84.5595 68.3018Z" fill="#3C3C3C"/>
<path d="M141.606 61.2817C141.582 61.2813 141.599 61.0049 141.534 60.5161C141.462 60.0313 141.289 59.3278 140.853 58.5635C140.422 57.8024 139.741 56.9788 138.798 56.3024C137.855 55.6224 136.677 55.0865 135.391 54.6883C132.802 53.9204 130.37 53.5154 128.619 53.249C127.741 53.1208 127.027 53.0343 126.534 52.974C126.041 52.9133 125.768 52.8789 125.77 52.8617C125.77 52.8535 125.839 52.8512 125.97 52.8544C126.102 52.8576 126.295 52.8657 126.543 52.8825C127.039 52.9147 127.757 52.9763 128.641 53.0836C130.407 53.3097 132.844 53.6875 135.461 54.4636C136.764 54.8663 137.966 55.4195 138.926 56.1267C139.889 56.8325 140.576 57.691 141 58.4833C141.429 59.2789 141.58 60.0087 141.626 60.5057C141.642 60.7562 141.646 60.951 141.632 61.0824C141.623 61.2138 141.614 61.2822 141.606 61.2817Z" fill="white"/>
<path d="M121.942 52.8912C121.942 52.9565 121.396 53.009 120.721 53.009C120.047 53.009 119.501 52.956 119.501 52.8912C119.501 52.826 120.047 52.7734 120.721 52.7734C121.396 52.773 121.942 52.826 121.942 52.8912Z" fill="white"/>
<path d="M114.435 49.7706C114.421 49.8095 113.786 49.588 112.731 49.3497C111.679 49.1101 110.195 48.8899 108.548 48.9057C106.9 48.9266 105.422 49.1798 104.375 49.4435C103.326 49.7049 102.696 49.9409 102.681 49.9019C102.675 49.887 102.828 49.8154 103.11 49.6994C103.39 49.5798 103.808 49.4349 104.332 49.2822C105.378 48.975 106.874 48.691 108.545 48.6697C110.216 48.6534 111.718 48.9039 112.771 49.1875C113.298 49.3284 113.719 49.4639 114.002 49.5771C114.286 49.6872 114.441 49.7552 114.435 49.7706Z" fill="white"/>
<g opacity="0.1">
<path d="M137.237 124.638C135.735 122.078 134.042 119.553 133.286 116.693C133.249 116.553 133.215 116.412 133.182 116.271L133.927 122.142C135.416 125.914 136.445 133.095 136.445 133.095L140.129 133.124C140.404 130.014 138.813 127.323 137.237 124.638Z" fill="#3C3C3C"/>
</g>
<path d="M156.219 135.494C156.219 134.591 156.212 94.0132 156.2 32.6934L156.305 32.7976C129.814 32.8017 99.039 32.8062 66.3677 32.8112H66.3586L66.4764 32.6934C66.4384 70.5973 66.4026 105.942 66.3727 135.494L66.273 135.395C120.408 135.455 155.38 135.493 156.219 135.494C155.381 135.495 120.408 135.534 66.273 135.594H66.1733V135.494C66.1928 105.941 66.2155 70.5969 66.2404 32.693V32.5752H66.3582H66.3672C99.0386 32.5802 129.813 32.5847 156.304 32.5888H156.409V32.693C156.296 94.0137 156.221 134.592 156.219 135.494Z" fill="#263238"/>
<defs>
<linearGradient id="paint0_linear_566_4239" x1="138.82" y1="45.2339" x2="136.702" y2="63.5831" gradientUnits="userSpaceOnUse">
<stop stop-color="#042856"/>
<stop offset="1" stop-color="#034782"/>
<stop offset="1" stop-color="#03417A"/>
</linearGradient>
<linearGradient id="paint1_linear_566_4239" x1="167.201" y1="63.2501" x2="163.593" y2="85.2115" gradientUnits="userSpaceOnUse">
<stop stop-color="#042856"/>
<stop offset="1" stop-color="#034782"/>
<stop offset="1" stop-color="#03417A"/>
</linearGradient>
<linearGradient id="paint2_linear_566_4239" x1="205.772" y1="72.1295" x2="192.612" y2="151.976" gradientUnits="userSpaceOnUse">
<stop stop-color="#042856"/>
<stop offset="1" stop-color="#034782"/>
<stop offset="1" stop-color="#03417A"/>
</linearGradient>
<linearGradient id="paint3_linear_566_4239" x1="143.318" y1="46.2403" x2="141.752" y2="63.0594" gradientUnits="userSpaceOnUse">
<stop stop-color="#042856"/>
<stop offset="1" stop-color="#034782"/>
<stop offset="1" stop-color="#03417A"/>
</linearGradient>
</defs>
</svg>
