<svg width="200" height="142" viewBox="0 0 200 142" fill="none" xmlns="http://www.w3.org/2000/svg">
<rect width="200" height="142" rx="30" fill="#D5EAFF"/>
<path d="M63.386 20.5643C62.5776 20.5643 61.8204 20.7514 61.1353 21.0704C60.4502 18.9518 58.4634 17.4157 56.1107 17.4157H56.0894C55.8469 13.8335 52.8731 11 49.2269 11C46.3355 11 43.8707 12.7883 42.8535 15.3167C41.8334 14.7165 40.6461 14.3695 39.3757 14.3695C35.6234 14.3695 32.5728 17.3731 32.5004 21.113C31.7943 20.7642 31.0069 20.5643 30.1691 20.5643C27.6293 20.5643 25.5061 22.3596 25 24.7506C29.3437 24.7676 64.3772 24.725 68.5465 24.7208C68.0315 22.3426 65.9172 20.5643 63.386 20.5643Z" fill="#FAFAFA" stroke="#E5EDFF" stroke-width="1.5" stroke-miterlimit="10" stroke-linecap="round" stroke-linejoin="round"/>
<path d="M175.619 110.939C171.45 110.943 127.289 110.986 122.945 110.969C123.451 108.578 125.574 106.782 128.114 106.782C128.952 106.782 129.739 106.982 130.445 107.331C130.517 103.591 133.568 100.587 137.32 100.587C140.264 100.587 142.77 102.438 143.753 105.033C144.591 103.982 145.88 103.31 147.331 103.31C148.088 103.31 148.799 103.498 149.429 103.821C149.577 100.149 152.594 97.2183 156.3 97.2183C159.946 97.2183 162.92 100.052 163.162 103.634H163.183C165.536 103.634 167.523 105.17 168.208 107.289C168.893 106.97 169.65 106.783 170.459 106.783C172.99 106.782 175.105 108.56 175.619 110.939Z" fill="#FAFAFA" stroke="#E5EDFF" stroke-width="1.5" stroke-miterlimit="10" stroke-linecap="round" stroke-linejoin="round"/>
<path d="M110.678 130.192H44.8201C43.8914 130.192 43.1384 129.439 43.1384 128.511V36.962C43.1384 36.0332 43.8914 35.2803 44.8201 35.2803H110.678C113.288 35.2803 115.404 37.3964 115.404 40.0061V125.466C115.404 128.076 113.288 130.192 110.678 130.192Z" fill="url(#paint0_linear_566_4225)" stroke="#3C3C3C" stroke-width="1.5" stroke-miterlimit="10" stroke-linecap="round" stroke-linejoin="round"/>
<path d="M48.3696 37.9312V127.117" stroke="#3C3C3C" stroke-width="1.5" stroke-miterlimit="10" stroke-linecap="round" stroke-linejoin="round"/>
<path d="M84.279 97.3084C86.0886 89.6449 81.3431 81.9654 73.6795 80.1558C66.016 78.3463 58.3366 83.0918 56.527 90.7553C54.7174 98.4188 59.463 106.098 67.1265 107.908C74.79 109.717 82.4695 104.972 84.279 97.3084Z" stroke="white" stroke-width="1.5" stroke-miterlimit="10" stroke-linecap="round" stroke-linejoin="round"/>
<path d="M83.312 84.081C85.9022 81.4187 89.5224 79.7661 93.5294 79.7661C101.403 79.7661 107.788 86.1477 107.788 94.025C107.788 101.899 101.403 108.284 93.5294 108.284C89.5224 108.284 85.9022 106.631 83.312 103.965" stroke="white" stroke-width="1.5" stroke-miterlimit="10" stroke-linecap="round" stroke-linejoin="round"/>
<path d="M76.9343 96.1144C76.5422 96.0757 76.1434 96.0985 75.7573 96.0207C75.6284 95.9948 75.4955 95.9539 75.4039 95.8598C75.28 95.7323 75.2601 95.5398 75.1993 95.3722C75.0068 94.839 74.4162 94.5823 73.8856 94.3834C73.1902 94.123 72.4344 93.8599 71.7223 94.0687C71.4605 94.1454 71.2179 94.2839 70.9501 94.3365C70.5946 94.4061 70.2295 94.3187 69.8779 94.2317C69.6676 94.1795 69.4456 94.1209 69.2958 93.9646C69.1285 93.7902 69.2333 93.5423 69.0901 93.3708C68.9367 93.1872 68.6419 93.2117 68.5563 92.9432C68.5322 92.8675 68.5371 92.7858 68.5453 92.7066C68.5499 92.6629 68.5563 92.6178 68.579 92.5802C68.6121 92.5262 68.6742 92.4967 68.7126 92.4463C68.7705 92.3703 68.758 92.2495 68.6852 92.187C68.5723 92.0897 68.4054 92.0002 68.2708 92.1135C68.0495 92.2996 68.0019 92.6708 67.6304 92.6487C67.3498 92.632 67.1136 92.4211 66.9701 92.1789C66.7311 91.7757 66.718 91.2007 67.0618 90.8821C67.2322 90.7245 67.5153 90.7252 67.7053 90.8591C67.8314 90.9479 67.9213 91.119 68.0754 91.1162C68.1607 91.1148 68.2338 91.0562 68.2903 90.9922C68.3468 90.9287 68.3951 90.8555 68.4654 90.8076C68.8543 90.5426 69.1335 91.0892 69.2986 91.34C69.4293 91.5385 69.6658 91.7232 69.8853 91.6326C70.0992 91.2228 69.6467 90.7387 69.7394 90.2862C69.8282 89.8529 70.363 89.6529 70.5303 89.2431C70.6724 88.8943 70.5562 88.3981 70.8805 88.2067C71.1707 88.0351 71.6391 88.2557 71.8309 87.9787C72.0096 87.7205 72.0391 87.5809 72.401 87.7155C72.5896 87.7858 72.7107 88.1129 72.9018 88.1069C72.9369 88.1058 72.9746 88.0898 72.9891 88.0575C72.9994 88.0348 72.9966 88.0089 72.9934 87.9843C72.9746 87.832 72.9554 87.68 72.9366 87.5276C72.9224 87.4139 72.9025 87.2889 72.8147 87.2151C72.7675 87.1753 72.7071 87.1561 72.65 87.133C72.4322 87.0442 72.0231 86.8095 72.0501 86.5363C72.0568 86.4667 72.0934 86.4003 72.1488 86.3573C72.2951 86.2444 72.608 86.2898 72.7785 86.3314C73.1067 86.411 73.2381 86.4198 73.4778 86.7221C73.6451 86.9327 73.9665 87.1284 74.1544 86.9362C74.3015 86.7857 74.212 86.526 74.0688 86.3719C73.9257 86.2178 73.7328 86.0981 73.6533 85.9031C73.557 85.6672 73.6487 85.3682 73.4963 85.1643C73.378 85.0063 73.1525 84.9651 73.0197 84.8191C72.8382 84.6195 72.8893 84.3091 72.8268 84.0463C72.7647 83.7838 72.3885 83.5593 72.2511 83.7916C72.1758 83.9195 72.2451 84.1006 72.1584 84.2214C72.0728 84.3403 71.881 84.3233 71.7659 84.2327C71.6509 84.1422 71.588 84.0029 71.5095 83.8793C71.2105 83.4059 70.6259 83.1296 70.07 83.1992C69.9542 83.2138 69.8331 83.2457 69.7536 83.331C69.5408 83.5586 69.7692 83.917 69.9905 84.1365C70.2114 84.356 70.4405 84.7133 70.2288 84.9416C70.1517 85.0251 70.0345 85.0588 69.9475 85.132C69.7269 85.3171 69.734 85.6882 69.7578 85.9532C69.6598 86.0178 69.522 85.9961 69.429 85.9247C69.3359 85.8534 69.2816 85.7415 69.251 85.6282C69.2205 85.5149 69.2105 85.397 69.1878 85.2815C69.1814 85.2492 69.1736 85.2162 69.1548 85.1892C69.1267 85.1487 69.0784 85.1281 69.0326 85.1107C68.6558 84.9662 68.2544 84.8901 67.8698 84.763C67.6077 84.6763 67.3193 84.5677 67.196 84.3208C67.0518 84.0317 67.2063 83.6698 67.4489 83.4563C67.6915 83.2429 68.0047 83.1324 68.2917 82.9843C68.5787 82.8362 68.8621 82.6217 68.9495 82.3106C69.0365 81.9994 68.8195 81.5995 68.4966 81.6137C68.0981 81.6311 67.7554 81.9948 67.5622 81.4323C67.5249 81.3239 67.5025 81.206 67.4294 81.1179C67.3345 81.0036 67.1733 80.9656 67.0248 80.9741C66.9755 80.9769 66.9236 80.9851 66.8856 81.0163C66.8057 81.0817 66.8238 81.2081 66.8643 81.303C66.9119 81.4141 66.9808 81.5164 67.0138 81.6326C67.1612 82.1486 66.486 82.0005 66.3809 81.6461C66.3227 81.5115 66.1117 81.6063 66.0385 81.7338C65.9654 81.8609 65.8844 82.0335 65.7388 82.0179C65.5896 82.0016 65.5413 81.7984 65.4099 81.7263C65.2344 81.6304 65.0402 81.8055 64.9027 81.9508C64.7653 82.0961 64.5135 82.2236 64.3895 82.0666C64.2748 81.9217 64.435 81.7043 64.6133 81.6574C64.7919 81.6105 64.9851 81.6528 65.1631 81.6031C65.5001 81.509 65.6702 81.0973 65.5971 80.7549C65.5868 80.7063 65.5651 80.6615 65.5477 80.6157C63.1599 81.4809 61.0701 82.9659 59.4705 84.8759C59.7368 85.039 59.9965 85.2126 60.2458 85.4002C60.3882 85.5074 60.5328 85.6243 60.6091 85.7855C60.7416 86.065 60.6414 86.417 60.7881 86.6894C60.9213 86.937 61.2204 87.0488 61.3894 87.2733C61.659 87.6313 61.524 88.1435 61.6373 88.5775C61.8 89.2008 62.4322 89.5606 62.8477 90.0528C63.2164 90.4893 63.5346 90.8811 63.5421 91.4884C63.5424 91.5129 63.5424 91.5385 63.5531 91.5602C63.5705 91.5957 63.6106 91.6127 63.6461 91.6305C63.8049 91.7097 63.9047 91.8486 64.0084 91.9864C64.0706 92.0684 64.1824 92.3362 64.2869 92.36C64.5628 92.4225 64.2947 91.9111 64.2481 91.8287C64.1341 91.6262 63.893 91.0874 64.0507 90.8623C64.3025 90.5032 64.8388 91.4987 64.9002 91.6521C65.0348 91.9885 65.1396 92.349 65.3786 92.6207C65.6358 92.913 66.014 93.0639 66.377 93.2046C66.5773 93.2824 66.7833 93.3608 66.9982 93.3623C67.1644 93.3633 67.3313 93.2522 67.483 93.2785C67.6485 93.3072 67.7657 93.4855 67.9238 93.5402C68.118 93.6073 68.3741 93.5359 68.5052 93.694C68.6174 93.8293 68.5503 94.0335 68.5883 94.2051C68.719 94.7925 69.7667 94.5112 70.1038 95.0099C70.3261 95.3388 70.092 95.597 69.9439 95.8864C69.7685 96.2299 69.6268 96.6273 69.7475 97.0123C69.7816 97.1217 69.8363 97.2251 69.8562 97.338C69.8789 97.4669 69.8551 97.6012 69.8793 97.7297C69.9127 97.9059 70.0327 98.0526 70.1627 98.1762C70.4675 98.4664 70.8453 98.6716 71.1476 98.9643C71.4498 99.2569 71.6771 99.6881 71.5582 100.092C71.5244 100.206 71.4644 100.313 71.4445 100.43C71.3827 100.793 71.7105 101.116 71.7247 101.484C71.7386 101.845 71.4779 102.204 71.3522 102.529C71.1884 102.954 71.2886 103.403 71.289 103.849C71.2893 104.469 71.0961 105.093 71.2087 105.703C71.3067 106.234 71.8437 106.826 72.4319 106.749C72.4518 106.747 72.4727 106.742 72.4859 106.727C72.4958 106.715 72.499 106.7 72.5004 106.685C72.5129 106.549 72.4081 106.434 72.342 106.315C72.1037 105.886 72.4255 105.651 72.5775 105.292C72.6826 105.043 72.6808 104.784 72.7721 104.532C72.8922 104.199 73.2534 104.035 73.5251 103.81C73.8575 103.534 74.0767 103.125 74.1228 102.696C74.1381 102.555 74.1381 102.404 74.2166 102.287C74.3555 102.079 74.6531 102.08 74.8921 102.007C75.2341 101.902 75.503 101.59 75.5566 101.236C75.5822 101.067 75.5641 100.884 75.6458 100.733C75.7779 100.489 76.0958 100.44 76.3614 100.362C77.076 100.151 77.6723 99.3692 77.4149 98.6699C77.3644 98.5324 77.2831 98.3967 77.2991 98.2511C77.336 97.9176 77.7931 97.8516 78.0375 97.6214C78.3244 97.3515 78.2662 96.8468 77.9995 96.5566C77.7349 96.2672 77.3264 96.1532 76.9343 96.1144Z" fill="white"/>
<path d="M81.6303 87.8283C81.4857 87.9199 81.316 88.0161 81.2801 88.1834C81.2456 88.3436 81.3263 88.5663 81.1792 88.6391C81.1334 88.6618 81.0688 88.665 81.0503 88.7126C81.0301 88.7641 81.0837 88.8124 81.1288 88.8448C81.495 89.1076 81.6896 89.5423 81.8675 89.9564C81.8913 90.0122 81.9158 90.0697 81.9144 90.1301C81.9105 90.3265 81.6466 90.4934 81.7368 90.6682C81.8047 90.7445 81.9166 90.644 81.9869 90.5701C82.239 90.3055 82.6695 90.3691 83.0254 90.4533C83.063 90.3624 83.074 90.2604 83.0559 90.1638C82.9096 90.1443 82.8616 89.9518 82.8865 89.8062C82.9114 89.6606 82.9717 89.5057 82.9092 89.3715C82.8538 89.2525 82.6993 89.191 82.5775 89.2401C82.5345 89.2571 82.4933 89.2862 82.4475 89.2827C82.4184 89.2805 82.3921 89.2653 82.3676 89.2489C82.1627 89.1147 82.0103 88.9019 81.9492 88.6643C81.9375 88.6182 81.9293 88.5677 81.9492 88.5247C81.9872 88.4434 82.0966 88.4345 82.1776 88.3951C82.4937 88.242 82.216 88.0076 82.1602 87.8091C82.1154 87.6496 82.1595 87.379 81.8974 87.4276C81.9052 87.6084 81.7738 87.7373 81.6303 87.8283Z" fill="white"/>
<path d="M80.4434 89.4835C80.3965 89.4646 80.3514 89.4369 80.3013 89.4405C80.2239 89.4455 80.1671 89.5229 80.09 89.5332C80.051 89.5385 80.0112 89.5257 79.9725 89.5321C79.7746 89.5655 79.7274 89.9509 79.8123 90.0851C79.8918 90.2108 80.0286 90.2872 80.1593 90.3579C80.2392 90.4012 80.3216 90.4453 80.4118 90.457C80.7513 90.5003 80.9126 90.2069 80.8874 89.9267C80.8792 89.8358 80.881 89.7378 80.9321 89.6625C80.9584 89.6238 80.9964 89.5939 81.0266 89.5581C81.1381 89.4252 81.1339 89.004 80.8767 89.1539C80.8004 89.1983 80.7609 89.2839 80.7137 89.3584C80.6665 89.433 80.5936 89.5066 80.5059 89.4998C80.4843 89.498 80.4637 89.4913 80.4434 89.4835Z" fill="white"/>
<path d="M84.6637 94.0252C84.6637 95.3837 84.4719 96.6978 84.116 97.943C84.0851 97.9224 84.051 97.8986 84.0201 97.878C83.8969 97.7924 83.7705 97.7068 83.6643 97.5974C83.5822 97.5118 83.5137 97.4128 83.4249 97.3304C83.0452 96.9915 82.3743 97.0565 82.0973 96.6325C81.9808 96.4545 81.9673 96.2322 81.957 96.0233C81.9229 95.4313 81.9023 94.7916 82.234 94.3022C82.4052 94.0454 82.6719 93.8302 82.7199 93.5219C82.7405 93.3713 82.706 93.2104 82.7437 93.0634C82.8055 92.8272 83.031 92.6802 83.2466 92.5708C83.5819 92.3996 84.0848 92.1329 84.5334 92.0952C84.619 92.7249 84.6637 93.3717 84.6637 94.0252Z" fill="white"/>
<path d="M71.0201 92.5397C70.9075 92.5443 70.7818 92.5358 70.704 92.4545C70.6671 92.4157 70.6454 92.3646 70.6092 92.3248C70.4213 92.1188 70.0878 92.0627 69.8381 92.0993C69.7799 92.1078 69.7149 92.1202 69.6801 92.1678C69.635 92.2296 69.6666 92.3223 69.7255 92.3713C69.7845 92.4204 69.8619 92.4385 69.9351 92.4612C70.0082 92.4839 70.0842 92.517 70.124 92.5823C70.1602 92.642 70.1599 92.7191 70.1982 92.7777C70.2501 92.8569 70.3566 92.8796 70.4511 92.8753C70.4692 92.8746 70.4888 92.8725 70.5012 92.8593C70.5136 92.8466 70.5154 92.8263 70.5253 92.8114C70.5424 92.7858 70.5768 92.7812 70.6074 92.7794C70.7899 92.7698 70.9743 92.7933 71.1476 92.8515C71.2321 92.8796 71.3319 92.914 71.403 92.8608C71.4932 92.7933 71.4481 92.6367 71.3504 92.5805C71.2531 92.5241 71.1327 92.5351 71.0201 92.5397Z" fill="white"/>
<path d="M67.5285 80.434C67.7934 80.6269 67.7732 81.1433 68.1596 81.1006C68.28 81.0875 68.3915 81.0342 68.5077 81.0005C68.8202 80.9099 69.1537 80.9628 69.4744 81.0165C69.5483 81.0289 69.625 81.0424 69.6847 81.0875C69.7781 81.1582 69.8044 81.2878 69.7983 81.4047C69.7923 81.5215 69.7607 81.6369 69.7667 81.7538C69.7681 81.7826 69.7721 81.812 69.7873 81.8365C69.8264 81.8991 69.9163 81.8998 69.9891 81.8873C70.113 81.8657 70.2363 81.8266 70.3616 81.8355C70.487 81.8444 70.6205 81.9179 70.6468 82.0408C70.6816 82.202 70.5232 82.3512 70.5357 82.5156C70.5449 82.6399 70.6507 82.7369 70.7626 82.7919C70.8748 82.847 70.9995 82.8743 71.1075 82.9365C71.219 83.0004 71.3074 83.0981 71.4126 83.1723C71.5177 83.2469 71.6544 83.298 71.7745 83.2519C71.9027 83.2025 71.9712 83.0501 71.9524 82.9145C71.9336 82.7784 71.8434 82.6609 71.7347 82.5774C71.6757 82.532 71.6044 82.4499 71.6583 82.3984C71.8704 82.3455 72.1446 82.4989 72.2877 82.3341C72.3655 82.2446 72.3459 82.0987 72.2692 82.0084C72.1925 81.9182 72.0735 81.8749 71.9567 81.8557C71.8757 81.8422 71.788 81.8369 71.7233 81.7865C71.5202 81.6284 71.7503 81.2622 71.5987 81.0541C71.4943 80.9106 71.2776 80.9312 71.1043 80.9696C70.931 81.0079 70.7179 81.0367 70.6042 80.9003C70.5314 80.813 70.5271 80.6837 70.4561 80.5945C70.3027 80.4031 69.988 80.527 69.7575 80.4439C69.5913 80.3839 69.4862 80.2202 69.4176 80.0572C69.3835 79.9765 69.3551 79.8924 69.3221 79.811C68.5556 79.8686 67.8062 79.9861 67.0781 80.1605C67.2308 80.2536 67.3928 80.3353 67.5285 80.434Z" fill="white"/>
<path d="M74.3282 80.9663C74.2926 81.0469 74.2198 81.1034 74.1527 81.1602C73.9467 81.3353 73.7595 81.6088 73.8618 81.8592C73.9318 82.0304 74.1119 82.1231 74.2532 82.242C74.4422 82.4011 74.5736 82.6267 74.6187 82.8696C74.6539 83.0578 74.6443 83.2699 74.7675 83.4166C74.8218 83.4816 74.8971 83.5256 74.9593 83.5831C75.1372 83.7479 75.1937 84.0037 75.2289 84.2437C75.2473 84.3698 75.2903 84.5261 75.416 84.5453C75.4476 84.5503 75.48 84.5446 75.5102 84.5343C75.67 84.4792 75.7534 84.3031 75.7893 84.1379C75.8252 83.9728 75.8334 83.7962 75.9175 83.6496C76.0877 83.3534 76.4972 83.2869 76.7174 83.0259C76.9045 82.8039 76.923 82.4789 77.097 82.2467C77.2199 82.0829 77.4146 81.9728 77.498 81.786C77.514 81.7498 77.52 81.7114 77.5268 81.6734C76.4744 81.0654 75.3379 80.5873 74.1374 80.2627C74.2554 80.4879 74.4365 80.7205 74.3282 80.9663Z" fill="white"/>
<path d="M104.753 99.7907C104.544 99.7598 104.226 99.5308 104.028 99.7293C103.881 99.8799 103.994 100.02 104.172 100.075C104.237 100.092 104.305 100.109 104.373 100.113C104.432 100.116 104.49 100.109 104.548 100.119C104.709 100.143 105.102 100.41 105.143 100.085C105.174 99.8216 104.928 99.8145 104.753 99.7907ZM105.571 97.4296C105.273 97.4431 104.962 97.8061 104.692 97.9222C104.548 97.9805 104.37 98.0625 104.37 98.2163C104.37 98.2678 104.387 98.336 104.339 98.3601C104.318 98.374 104.291 98.3669 104.267 98.3669C104.127 98.3633 104.031 98.5381 104.065 98.6713C104.103 98.808 104.229 98.9039 104.363 98.9554C104.493 99.0069 104.636 99.0271 104.766 99.0786C104.883 99.1198 104.989 99.188 105.108 99.2154C105.228 99.2427 105.368 99.2257 105.447 99.1298C105.529 99.0271 105.502 98.873 105.529 98.7398C105.563 98.5551 105.704 98.4077 105.772 98.2333C105.869 97.9908 105.961 97.4125 105.571 97.4296ZM102.741 98.6684C102.7 98.6343 102.672 98.5864 102.638 98.5416C102.498 98.3466 102.241 98.2472 102.005 98.2951C101.991 98.4287 102.108 98.5416 102.224 98.6134C102.337 98.6851 102.471 98.7469 102.532 98.8701C102.566 98.9387 102.573 99.0207 102.611 99.0893C102.7 99.2363 103.206 99.5169 103.312 99.3187C103.463 99.0346 102.895 98.7814 102.741 98.6684ZM93.8479 101.337C93.8206 101.16 93.5606 101.177 93.4097 101.259C93.3308 101.3 93.3138 101.402 93.2864 101.488C93.2385 101.639 93.1188 101.762 92.9718 101.817C92.9274 101.834 92.8759 101.847 92.8382 101.875C92.7562 101.936 92.7491 102.06 92.7768 102.159C92.8041 102.258 92.8624 102.347 92.8862 102.446C92.927 102.621 92.8656 102.806 92.8588 102.987C92.8553 103.134 92.8897 103.284 92.9615 103.414C92.9888 103.466 93.0332 103.521 93.0914 103.521C93.1291 103.521 93.16 103.497 93.1873 103.473C93.3447 103.343 93.4267 103.13 93.4267 102.925C93.4303 102.826 93.4132 102.723 93.4406 102.624C93.4988 102.419 93.7418 102.275 93.7247 102.059C93.7212 101.994 93.6906 101.932 93.6871 101.871C93.67 101.68 93.8717 101.515 93.8479 101.337ZM96.1164 81.4599C95.9896 81.4358 95.8632 81.4976 95.757 81.5661C95.5481 81.7029 95.367 81.8911 95.1273 81.9632C94.9493 82.0147 94.7611 81.9941 94.5831 82.0488C94.3367 82.1205 94.1658 82.3191 93.9705 82.4732C93.8369 82.5759 93.5635 82.6341 93.4811 82.795C93.3955 82.9662 93.4743 83.3391 93.4775 83.5341C93.4775 83.5511 93.4775 83.5717 93.4843 83.5923C93.4946 83.6197 93.5219 83.6367 93.5457 83.6538C93.7304 83.7735 94.1342 83.9106 94.3498 83.8555C94.5345 83.8076 94.6716 83.5682 94.5586 83.4176C94.4592 83.2876 94.2337 83.2634 94.1992 83.1061C94.1651 82.9591 94.3327 82.8493 94.4798 82.8152C94.6268 82.7811 94.8016 82.7637 94.8765 82.6337C94.9007 82.5893 94.911 82.5379 94.9348 82.4899C95.0647 82.2232 95.4789 82.2914 95.7218 82.117C95.78 82.0726 95.8276 82.0143 95.8894 81.9767C96.0365 81.8875 96.2624 81.8946 96.3171 81.7338C96.3593 81.6105 96.2464 81.4805 96.1164 81.4599ZM91.7503 90.935C91.6544 91.1027 91.4012 91.0686 91.2201 91.1471C91.1721 91.1677 91.1242 91.1986 91.073 91.2188C90.8781 91.2874 90.6522 91.1606 90.4572 91.2327C90.3783 91.2636 90.3169 91.3215 90.2451 91.3627C90.1255 91.4312 89.9816 91.4447 89.8516 91.4003C89.8243 91.3935 89.8005 91.3797 89.7831 91.3591C89.7522 91.3179 89.7625 91.2632 89.7728 91.2188C89.8413 90.9279 89.9095 90.6371 89.9745 90.3497C89.9916 90.2883 90.0086 90.2197 90.0534 90.1785C90.1286 90.1135 90.2483 90.1341 90.3304 90.1888C90.4128 90.2435 90.4742 90.3224 90.5495 90.3838C90.6863 90.4932 90.8163 90.3838 90.8781 90.2538C90.926 90.1547 90.9193 90.0073 91.0219 89.9697C91.0972 89.9423 91.1792 90.0006 91.2101 90.0688C91.2442 90.1405 91.241 90.2229 91.2442 90.3014C91.2478 90.3803 91.2648 90.4655 91.3227 90.517C91.4151 90.6061 91.5692 90.5717 91.675 90.6402C91.7706 90.6988 91.805 90.8359 91.7503 90.935ZM100.616 81.6517C100.366 81.8058 100.13 81.987 99.911 82.1205C99.2951 82.4935 98.669 82.8735 97.9707 83.0514C97.8304 83.0855 97.6834 83.1164 97.5637 83.202C97.4472 83.2876 97.3719 83.4517 97.4369 83.5817C97.5157 83.7426 97.7313 83.7561 97.9057 83.7802C98.0837 83.804 98.2957 83.9308 98.2477 84.0984C98.2168 84.2046 98.1039 84.2558 98.0048 84.2934C97.7072 84.4064 97.2931 84.4817 97.1357 84.2043C97.0945 84.129 97.081 84.0402 97.0707 83.951C97.0537 83.7149 96.9066 83.5266 97.0366 83.294C97.0608 83.2461 97.0913 83.2052 97.1084 83.1573C97.2419 82.757 96.5131 82.9417 96.359 83.0067C96.1743 83.0887 96.0407 83.3181 96.1228 83.5028C96.1945 83.6669 96.3895 83.739 96.4822 83.8896C96.6328 84.1428 96.3249 84.5122 96.0475 84.4064C95.7055 84.2764 95.5925 83.657 95.2366 83.7529C95.0005 83.8143 94.9699 84.1531 94.7781 84.3037C94.5078 84.5193 94.0937 84.2593 93.7652 84.3723C93.5429 84.444 93.382 84.6838 93.1493 84.7008C92.9714 84.7111 92.7693 84.5946 92.6326 84.7044C92.5402 84.7761 92.5299 84.9164 92.4479 85.0055C92.3623 85.0979 92.222 85.1117 92.1023 85.1526C91.88 85.2311 91.7191 85.4229 91.5479 85.5869C91.3767 85.7514 91.1544 85.9016 90.9182 85.8608C90.6855 85.8164 90.5282 85.4811 90.7165 85.3337C90.85 85.2275 91.045 85.2925 91.2126 85.2584C91.5174 85.197 91.6541 84.7793 91.4896 84.5158C91.322 84.2558 90.9455 84.1805 90.6618 84.3069C90.6035 84.3311 90.5488 84.3652 90.4838 84.3719C90.3023 84.3957 90.1723 84.2146 90.0459 84.081C89.7312 83.7525 89.2418 83.6637 88.7868 83.6808C88.1365 83.7049 87.4592 83.9511 87.0792 84.4781C86.7404 84.9537 86.6413 85.6416 86.1281 85.9222C85.9604 86.0181 85.7587 86.0558 85.6113 86.179C85.3751 86.374 85.3442 86.7231 85.3343 87.031C85.324 87.2704 85.3925 87.5958 85.6319 87.5958C85.8407 87.5958 85.9842 87.3219 86.1895 87.3461C86.4154 87.3734 86.436 87.6952 86.5795 87.8731C86.7095 88.0372 86.9627 88.0681 87.1612 87.9861C87.3562 87.9072 87.5068 87.7396 87.6301 87.5688C87.7569 87.3873 87.8662 87.1546 87.7704 86.9561C87.7089 86.8226 87.5583 86.7029 87.613 86.5661C87.661 86.4464 87.8286 86.4393 87.9483 86.3847C88.1571 86.2856 88.2118 86.022 88.2974 85.81C88.383 85.5944 88.6295 85.3788 88.8209 85.5088C88.8756 85.7894 88.7936 86.0938 88.6018 86.3094C88.4615 86.4702 88.2495 86.689 88.3898 86.8499C88.6053 87.0996 89.0504 86.5317 89.2965 86.7508C89.4265 86.8673 89.3373 87.0932 89.1903 87.182C89.0465 87.2743 88.8653 87.2882 88.708 87.3599C88.3862 87.5105 88.2289 87.8803 87.9586 88.1129C87.1818 88.7767 85.9327 88.2223 85.0533 88.674C85.0089 88.6978 84.9645 88.7255 84.9233 88.7596C85.2416 89.5534 85.4881 90.3817 85.6557 91.2405C85.8098 91.1719 85.9604 91.0419 86.0833 90.9908C86.2783 90.9088 86.4701 90.9599 86.6409 91.0696C86.9591 91.2714 87.2841 91.7025 87.3594 92.0755C87.363 92.0925 87.3662 92.1096 87.3765 92.1234C87.4177 92.1884 87.5271 92.144 87.558 92.0755C87.5853 92.014 87.558 91.8052 87.6194 91.7743C87.6365 91.764 87.6571 91.764 87.6777 91.7608C87.8179 91.7196 87.7117 91.6035 87.6468 91.5587C87.4688 91.439 87.3559 91.2405 87.2497 91.049C87.2053 90.9634 87.1573 90.8814 87.1129 90.7958C87.1026 90.7823 87.0959 90.7649 87.0959 90.7479C87.0994 90.7067 87.1541 90.6896 87.195 90.6896C87.6194 90.6726 88.2591 90.9908 88.2079 91.4937C88.2044 91.5246 88.2012 91.552 88.2147 91.5793C88.225 91.5999 88.2456 91.6169 88.2662 91.6272C88.3859 91.6922 88.5329 91.6819 88.6597 91.7299C88.7282 91.7537 88.7897 91.7949 88.8582 91.8187C88.9268 91.8428 89.0124 91.846 89.0671 91.7981C89.1562 91.7263 89.1388 91.5619 89.2414 91.5108C89.3405 91.4593 89.4535 91.5655 89.4741 91.6748C89.5288 91.9792 89.5085 92.383 89.9465 92.4036C90.2647 92.4207 90.6582 91.9863 90.9626 92.2495C91.3252 92.5642 90.764 93.1051 90.7264 93.4368C90.7125 93.5736 90.6443 93.738 90.5041 93.738C90.4082 93.7344 90.3091 93.6421 90.2235 93.6865C90.1894 93.7035 90.1652 93.738 90.1343 93.755C90.0352 93.8097 89.9255 93.6936 89.9085 93.5839C89.8914 93.4745 89.9187 93.3544 89.8676 93.2553C89.8129 93.1424 89.6726 93.0944 89.5458 93.0877C89.4158 93.0841 89.2894 93.1118 89.1626 93.0944C88.9605 93.0738 88.752 92.9506 88.5741 93.0465C88.5023 93.0877 88.4508 93.1559 88.3894 93.2106C88.1944 93.3782 87.8694 93.3647 87.6915 93.1797C87.6368 93.125 87.5956 93.0529 87.5342 93.0053C87.3289 92.8377 86.9627 92.9336 86.8089 92.718C86.7542 92.6462 86.7404 92.5539 86.6924 92.4786C86.6136 92.3656 86.4733 92.3177 86.3433 92.28C86.1689 92.2321 85.991 92.198 85.813 92.1739C85.8883 92.7794 85.9295 93.3988 85.9295 94.025C85.9295 95.4041 85.7345 96.7384 85.3684 97.9979C85.5499 98.1176 85.786 98.152 85.9981 98.217C86.2616 98.2958 86.5457 98.5043 86.5148 98.7782C86.5045 98.8535 86.4704 98.922 86.4566 98.9973C86.3983 99.3088 86.6619 99.5755 86.8604 99.822C87.0668 100.088 87.25 100.396 87.3466 100.719C87.4525 101.073 87.1801 101.267 87.1705 101.616C87.1627 101.901 87.4148 102.092 87.5825 102.288C87.7998 102.543 87.8545 102.796 87.8027 103.126C87.7672 103.351 87.7167 103.588 87.7988 103.8C87.8783 104.006 88.0719 104.155 88.139 104.365C88.2211 104.622 88.1095 104.937 88.2971 105.158C88.3862 105.263 88.5137 105.33 88.6455 105.37C88.838 105.429 89.0539 105.434 89.234 105.344C89.3572 105.283 89.4556 105.181 89.571 105.106C89.8193 104.943 90.1375 104.905 90.3723 104.722C90.6731 104.489 90.7637 104.096 90.9604 103.787C91.1661 103.465 91.4566 103.331 91.3948 102.897C91.3881 102.849 91.381 102.801 91.3504 102.767C91.3231 102.74 91.2819 102.726 91.2545 102.702C91.1483 102.617 91.203 102.439 91.3128 102.36C91.419 102.282 91.5593 102.261 91.679 102.196C91.8807 102.087 91.9972 101.871 92.0963 101.662C92.2263 101.385 92.346 101.064 92.2298 100.776C92.1478 100.578 91.9595 100.417 91.946 100.201C91.9322 99.9719 92.1272 99.7769 92.1478 99.5478C92.1581 99.4555 92.1375 99.3596 92.1513 99.2672C92.1925 98.949 92.5654 98.8123 92.8492 98.6617C93.5198 98.299 93.8004 97.5702 93.8586 96.8446C93.7322 96.7626 93.561 96.8311 93.4445 96.9235C93.3315 97.0194 93.2289 97.1426 93.0886 97.1902C92.7842 97.2929 92.4965 97.0055 92.3154 96.742C91.7883 95.9858 91.3334 95.1817 90.9228 94.3571C90.8681 94.2406 90.8166 94.0832 90.9125 93.9944C91.0425 93.8747 91.2343 94.0388 91.3334 94.1859C91.7784 94.877 92.2263 95.5682 92.6748 96.2597C92.7398 96.3623 92.8254 96.4753 92.9451 96.482C93.0066 96.4888 93.0648 96.465 93.1195 96.4408C93.7869 96.1567 94.4166 95.7905 94.9912 95.3494C95.2746 95.1317 95.3677 94.8795 94.9678 94.7349C94.8978 94.7097 94.8275 94.6842 94.755 94.6671C94.5451 94.6177 94.3171 94.6383 94.1232 94.5435C94.0135 94.4899 93.9243 94.4036 93.8376 94.318C93.5851 94.0676 93.3401 93.8097 93.1028 93.5448C93.0467 93.4819 92.987 93.3978 93.0218 93.321C93.0467 93.266 93.1135 93.2404 93.1735 93.2457C93.2335 93.2507 93.2886 93.2802 93.3415 93.3086C93.7858 93.5483 94.3271 93.9848 94.8367 94.0346C95.1177 94.0619 95.3919 93.9532 95.6699 93.906C95.9154 93.8644 96.1413 93.8957 96.3487 94.0331C96.5753 94.183 96.4925 94.3379 96.6094 94.5517C96.712 94.7399 96.9894 94.7261 97.167 94.8426C97.3037 94.9314 97.3758 95.0855 97.4408 95.2325C97.6255 95.6467 97.8102 96.0572 97.9952 96.4714C98.0911 96.6869 98.187 96.899 98.2825 97.1146C98.3099 97.1728 98.3408 97.2343 98.3987 97.2584C98.4946 97.2925 98.5869 97.2037 98.6452 97.1217C98.8881 96.7864 99.0763 96.4099 99.196 96.0128C99.2404 95.869 99.2816 95.7117 99.3978 95.6126C99.4798 95.544 99.5892 95.5135 99.6819 95.4584C99.846 95.3661 99.9589 95.2016 100.058 95.0375C100.144 94.9008 100.23 94.757 100.352 94.6543C100.479 94.5517 100.654 94.497 100.804 94.5584C101.092 94.6781 101.071 95.0958 101.242 95.359C101.437 95.6499 101.882 95.739 102.002 96.0707C102.087 96.3137 101.954 96.591 102.015 96.8439C102.043 96.9533 102.104 97.0492 102.166 97.1451C102.419 97.5319 102.768 97.8228 103.008 98.2127C103.24 98.5892 103.323 97.9662 103.189 97.7677C103.066 97.5862 102.874 97.4701 102.717 97.3195C102.543 97.1554 102.409 96.943 102.341 96.7104C102.32 96.6418 102.303 96.5633 102.334 96.4983C102.399 96.341 102.632 96.3648 102.769 96.3922C103.005 96.4469 103.169 96.553 103.419 96.4504C103.641 96.3581 103.805 96.146 103.836 95.9098C103.847 95.8072 103.836 95.701 103.785 95.6122C103.696 95.4581 103.497 95.3796 103.446 95.2084C103.394 95.0372 103.518 94.8696 103.634 94.7328C103.733 94.6163 103.843 94.4934 103.994 94.459C104.107 94.4316 104.226 94.4625 104.343 94.4796C104.846 94.5446 105.335 94.2981 105.739 93.9937C105.848 93.9117 105.961 93.8193 106.009 93.689C106.04 93.6034 106.043 93.5111 106.043 93.4187C106.047 93.1243 106.05 92.8302 106.054 92.5358C106.054 92.447 106.054 92.3511 106.012 92.2722C105.964 92.1831 105.879 92.1319 105.804 92.0669C105.619 91.9096 105.513 91.6667 105.519 91.4237C105.523 91.3793 105.526 91.335 105.554 91.3005C105.618 91.2117 105.755 91.249 105.868 91.2391C106.022 91.222 106.149 91.0885 106.306 91.0817C106.597 91.0714 106.72 91.4546 106.966 91.602C107.103 91.6841 107.268 91.6908 107.421 91.7185C107.483 91.7324 107.548 91.7494 107.61 91.77C106.923 87.4345 104.281 83.7525 100.616 81.6517Z" fill="white"/>
<path d="M105.528 58.8577V52.8518H103.265V51.1426H110.056V52.8518H107.792V58.8577H105.528Z" fill="white"/>
<path d="M96.0173 58.8577V51.1426H99.1498C99.7728 51.1426 100.348 51.2217 100.874 51.38C101.4 51.5382 101.822 51.8033 102.138 52.1752C102.462 52.5471 102.625 53.0575 102.625 53.7064C102.625 54.3315 102.462 54.8458 102.138 55.2494C101.822 55.6451 101.4 55.9378 100.874 56.1277C100.356 56.3177 99.7991 56.4126 99.2025 56.4126H98.2812V58.8577H96.0173ZM98.2812 54.7984H99.0972C99.5447 54.7984 99.8737 54.7034 100.084 54.5135C100.304 54.3157 100.413 54.0466 100.413 53.7064C100.413 53.3582 100.295 53.1129 100.058 52.9705C99.8211 52.828 99.4833 52.7568 99.0445 52.7568H98.2812V54.7984Z" fill="white"/>
<path d="M90.5107 59C89.721 59 89.0278 58.8417 88.4312 58.5252C87.8345 58.2008 87.3695 57.7379 87.036 57.1365C86.7026 56.5351 86.5359 55.8111 86.5359 54.9644C86.5359 54.1177 86.7026 53.4016 87.036 52.816C87.3695 52.2226 87.8345 51.7715 88.4312 51.4629C89.0278 51.1543 89.721 51 90.5107 51C91.3004 51 91.9936 51.1543 92.5903 51.4629C93.187 51.7715 93.652 52.2226 93.9854 52.816C94.3189 53.4016 94.4856 54.1177 94.4856 54.9644C94.4856 55.8111 94.3189 56.5351 93.9854 57.1365C93.652 57.7379 93.187 58.2008 92.5903 58.5252C91.9936 58.8417 91.3004 59 90.5107 59ZM90.5107 57.2433C90.8529 57.2433 91.1469 57.1523 91.3926 56.9703C91.647 56.7804 91.8401 56.5153 91.9717 56.1751C92.1033 55.8348 92.1691 55.4313 92.1691 54.9644C92.1691 54.4975 92.1033 54.1019 91.9717 53.7774C91.8401 53.4451 91.647 53.1919 91.3926 53.0178C91.1469 52.8437 90.8529 52.7567 90.5107 52.7567C90.1685 52.7567 89.8702 52.8437 89.6157 53.0178C89.3701 53.1919 89.1814 53.4451 89.0498 53.7774C88.9182 54.1019 88.8524 54.4975 88.8524 54.9644C88.8524 55.4313 88.9182 55.8348 89.0498 56.1751C89.1814 56.5153 89.3701 56.7804 89.6157 56.9703C89.8702 57.1523 90.1685 57.2433 90.5107 57.2433Z" fill="white"/>
<path d="M78.0872 58.8577V51.1426H85.0102V58.8577H82.7464V52.8518H80.351V58.8577H78.0872Z" fill="white"/>
<path d="M74.1394 59C73.4023 59 72.7179 58.8576 72.0861 58.5727C71.4632 58.2799 70.9586 57.8408 70.5725 57.2552C70.1952 56.6696 70.0066 55.9377 70.0066 55.0593C70.0066 54.4105 70.1163 53.8368 70.3356 53.3383C70.5638 52.8318 70.8709 52.4045 71.257 52.0564C71.6518 51.7082 72.0949 51.4471 72.5863 51.273C73.0864 51.091 73.6041 51 74.1394 51C74.7097 51 75.2186 51.0989 75.6661 51.2967C76.1224 51.4946 76.4997 51.7359 76.7981 52.0208L75.6135 53.2552C75.4029 53.089 75.1835 52.9664 74.9554 52.8872C74.736 52.8002 74.4816 52.7567 74.192 52.7567C73.8674 52.7567 73.5603 52.8477 73.2707 53.0297C72.9899 53.2117 72.7618 53.4688 72.5863 53.8012C72.4108 54.1335 72.3231 54.5292 72.3231 54.9881C72.3231 55.4708 72.4064 55.8823 72.5731 56.2226C72.7398 56.5549 72.9724 56.8081 73.2707 56.9822C73.569 57.1563 73.9112 57.2433 74.2973 57.2433C74.6044 57.2433 74.8808 57.1879 75.1265 57.0772C75.3722 56.9585 75.5784 56.8239 75.7451 56.6736L76.877 57.8843C76.4997 58.2641 76.0785 58.545 75.6135 58.727C75.1572 58.909 74.6659 59 74.1394 59Z" fill="white"/>
<path d="M61.738 58.8577L64.3441 51.1426H67.0817L69.6877 58.8577H67.2923L66.3183 55.107C66.213 54.7351 66.1077 54.3315 66.0024 53.8963C65.8972 53.4611 65.7919 53.0496 65.6866 52.6619H65.6339C65.5462 53.0496 65.4497 53.4611 65.3444 53.8963C65.2391 54.3315 65.1338 54.7351 65.0285 55.107L64.0545 58.8577H61.738ZM63.607 57.2197V55.6411H67.7924V57.2197H63.607Z" fill="white"/>
<path d="M54 58.8577V51.1426H60.9231V58.8577H58.6593V52.8518H56.2638V58.8577H54Z" fill="white"/>
<defs>
<linearGradient id="paint0_linear_566_4225" x1="163.523" y1="-33.5657" x2="75.3633" y2="142.485" gradientUnits="userSpaceOnUse">
<stop stop-color="#042856"/>
<stop offset="1" stop-color="#034782"/>
<stop offset="1" stop-color="#03417A"/>
</linearGradient>
</defs>
</svg>
