<svg width="660" height="339" viewBox="0 0 660 339" fill="none" xmlns="http://www.w3.org/2000/svg">
<g clip-path="url(#clip0_373_1736)">
<path d="M16.0045 124.293C16.0045 124.293 28.2789 59.2555 97.2045 22.9117C166.13 -13.4331 250.163 -3.86868 285.098 36.3014C320.032 76.4716 317.2 147.247 354.023 145.335C390.846 143.422 405.009 92.7308 455.995 125.25C506.981 157.769 480.544 201.765 484.321 229.501C488.097 257.238 531.53 214.199 566.465 225.676C601.4 237.153 617.451 269.671 613.674 288.8C609.897 307.929 626.893 331.84 626.893 331.84H10.3394C10.3394 331.84 0.897522 207.503 16.0045 124.293Z" fill="#E6F3FF"/>
<path d="M659.021 332.208H0.569709" stroke="#263238" stroke-miterlimit="10" stroke-linecap="round" stroke-linejoin="round"/>
<path d="M547.275 228.587C544.51 229.798 537.748 229.644 537.743 229.644C537.673 229.642 539.196 225.208 539.325 224.939C540.808 221.828 545.5 216.691 549.318 217.208C552.069 217.581 553.598 220.34 552.978 222.935C552.343 225.587 549.63 227.556 547.275 228.587Z" fill="#1A8EF1"/>
<path d="M544.942 248.22C542.074 248.64 536.039 246.886 535.56 246.744C534.607 250.13 533.355 253.528 531.9 256.895C531.07 258.822 530.174 260.736 529.251 262.643C529.802 261.835 530.299 261.117 530.38 261.023C532.632 258.415 538.509 254.703 542.055 256.213C544.61 257.299 545.357 260.365 544.075 262.704C542.766 265.093 539.629 266.275 537.087 266.646C534.507 267.022 529.333 265.63 527.967 265.244C527.606 265.973 527.254 266.704 526.888 267.43C525.141 270.918 523.382 274.391 521.761 277.85C521.189 279.069 520.671 280.29 520.148 281.511C520.638 280.794 521.056 280.194 521.13 280.107C523.38 277.5 529.258 273.787 532.804 275.297C535.359 276.384 536.107 279.45 534.825 281.789C533.514 284.178 530.379 285.36 527.836 285.73C525.375 286.09 520.587 284.848 518.963 284.397C518.464 285.663 517.963 286.929 517.537 288.178C517.265 289.038 516.944 289.846 516.72 290.724C516.478 291.589 516.241 292.446 516.005 293.294C515.61 294.943 515.192 296.643 514.848 298.262C514.6 299.387 514.383 300.463 514.163 301.546C514.719 300.326 515.855 297.961 515.973 297.774C517.803 294.854 523.053 290.294 526.786 291.247C529.475 291.934 530.678 294.851 529.763 297.358C528.829 299.918 525.909 301.561 523.452 302.315C520.747 303.144 514.757 302.386 514.009 302.286C513.651 304.08 513.318 305.829 513.031 307.483C512.389 311.134 511.904 314.408 511.536 317.178H509.011C509.451 314.311 510.027 310.897 510.788 307.063C511.145 305.24 511.563 303.299 512.011 301.31C511.56 301.13 509.006 300.095 506.742 298.826C504.771 300.967 499.718 303.471 499.064 303.79C499.751 305.485 500.437 307.127 501.108 308.665C502.505 311.888 503.832 314.746 505.004 317.178H502.273C501.266 314.937 500.159 312.385 499.005 309.556C498.3 307.838 497.58 305.987 496.859 304.082C496.135 304.233 490.206 305.441 487.442 304.815C484.936 304.247 481.9 302.826 480.779 300.343C479.681 297.911 480.664 294.913 483.295 294.027C486.946 292.797 492.521 296.954 494.563 299.729C494.684 299.893 495.793 301.815 496.473 303.039C496.183 302.259 495.892 301.504 495.603 300.696C495.02 299.105 494.486 297.498 493.904 295.772C493.652 294.929 493.398 294.076 493.141 293.217C492.868 292.369 492.688 291.439 492.455 290.543C491.958 288.452 491.557 286.31 491.2 284.143C489.807 284.65 484.837 286.384 482.263 286.202C479.7 286.022 476.486 285.078 475.001 282.793C473.548 280.557 474.067 277.444 476.533 276.169C479.956 274.399 486.096 277.662 488.533 280.094C488.685 280.246 490.24 282.188 491.072 283.271C490.867 281.967 490.658 280.666 490.494 279.34C490.019 275.512 489.659 271.621 489.281 267.742C489.167 266.553 489.038 265.371 488.913 264.186C488.419 264.373 482.557 266.56 479.672 266.357C477.109 266.177 473.894 265.233 472.41 262.948C470.957 260.712 471.476 257.598 473.943 256.324C477.367 254.555 483.505 257.817 485.943 260.249C486.126 260.433 488.358 263.231 488.891 263.97C488.616 261.361 488.318 258.765 487.921 256.216C487.377 252.701 486.65 249.28 485.7 246.019C485.47 246.106 479.362 248.417 476.407 248.21C473.844 248.029 470.629 247.086 469.145 244.801C467.691 242.565 468.21 239.452 470.677 238.176C474.102 236.406 480.239 239.67 482.678 242.102C482.868 242.293 485.268 245.304 485.664 245.882C485.606 245.688 485.57 245.48 485.51 245.288C484.453 241.82 482.994 238.593 481.48 235.639C480.604 233.92 479.67 232.327 478.728 230.797C477.634 231.345 472.608 233.79 469.929 233.898C467.362 234.002 464.062 233.417 462.338 231.31C460.648 229.247 460.822 226.095 463.134 224.556C466.343 222.42 472.801 224.988 475.491 227.137C475.638 227.254 476.994 228.607 477.967 229.606C477.531 228.922 477.095 228.209 476.663 227.562C475.051 225.129 473.426 223.001 471.971 221.128C471.136 220.069 470.36 219.129 469.623 218.257C468.271 218.233 462.819 218.068 460.436 216.946C458.111 215.851 455.451 213.81 454.888 211.142C454.338 208.53 455.941 205.814 458.7 205.517C462.531 205.103 467.082 210.364 468.482 213.515C468.603 213.787 470.006 218.262 469.936 218.262C469.936 218.262 469.87 218.261 469.854 218.261C470.579 219.086 471.346 219.979 472.166 220.971C473.664 222.817 475.34 224.914 477.011 227.322C478.686 229.723 480.44 232.379 482.035 235.343C483.637 238.313 485.171 241.519 486.326 245.026C486.339 245.066 486.348 245.108 486.361 245.148C486.341 244.017 486.39 240.853 486.422 240.61C486.864 237.191 489.723 230.843 493.512 230.141C496.242 229.636 498.552 231.779 498.77 234.44C498.992 237.157 497.027 239.876 495.111 241.592C492.949 243.526 486.951 245.4 486.473 245.549C487.543 248.899 488.367 252.424 489.007 256.038C489.376 258.104 489.682 260.196 489.962 262.297C489.976 261.319 489.996 260.443 490.012 260.322C490.455 256.902 493.314 250.556 497.102 249.854C499.832 249.347 502.142 251.492 502.359 254.151C502.582 256.869 500.616 259.588 498.7 261.302C496.755 263.044 491.674 264.744 490.323 265.176C490.422 265.983 490.529 266.789 490.626 267.596C491.088 271.471 491.532 275.34 492.084 279.121C492.277 280.455 492.517 281.76 492.752 283.066C492.765 282.197 492.784 281.466 492.798 281.354C493.241 277.934 496.099 271.587 499.887 270.885C502.617 270.379 504.928 272.522 505.146 275.183C505.368 277.899 503.402 280.619 501.486 282.334C499.631 283.996 494.954 285.608 493.351 286.128C493.631 287.46 493.911 288.794 494.243 290.071C494.489 290.938 494.667 291.79 494.962 292.647C495.237 293.501 495.51 294.348 495.779 295.186C496.358 296.78 496.945 298.429 497.548 299.97C497.96 301.045 498.373 302.061 498.784 303.087C498.577 301.763 498.223 299.161 498.218 298.941C498.166 296.651 498.976 292.926 500.592 290.309C500.581 289.971 500.601 289.633 500.654 289.298C501.077 286.663 503.547 284.705 506.228 285.422C509.951 286.415 512.312 292.965 512.488 296.407C512.5 296.611 512.367 298.827 512.26 300.225C512.448 299.413 512.62 298.623 512.823 297.79C513.213 296.14 513.652 294.504 514.115 292.742C514.369 291.9 514.627 291.049 514.887 290.189C515.125 289.331 515.487 288.456 515.786 287.578C516.523 285.561 517.367 283.551 518.262 281.547C516.82 281.201 511.722 279.897 509.675 278.323C507.636 276.755 505.474 274.19 505.494 271.465C505.513 268.795 507.658 266.485 510.418 266.786C514.247 267.202 517.572 273.318 518.267 276.696C518.31 276.907 518.537 279.385 518.635 280.75C519.183 279.55 519.723 278.348 520.317 277.151C522.028 273.696 523.868 270.251 525.688 266.807C526.246 265.751 526.79 264.694 527.339 263.638C526.824 263.52 520.73 262.102 518.436 260.339C516.397 258.772 514.235 256.206 514.255 253.48C514.274 250.812 516.42 248.501 519.179 248.802C523.008 249.219 526.333 255.334 527.028 258.712C527.08 258.967 527.402 262.535 527.439 263.445C528.644 261.118 529.825 258.787 530.896 256.442C532.378 253.208 533.653 249.954 534.656 246.709C534.416 246.654 528.049 245.203 525.7 243.397C523.662 241.83 521.5 239.264 521.519 236.539C521.538 233.87 523.684 231.56 526.443 231.861C530.273 232.277 533.597 238.393 534.291 241.77C534.346 242.035 534.69 245.874 534.702 246.574C534.762 246.38 534.845 246.187 534.901 245.994C535.928 242.516 536.488 239.017 536.85 235.716C537.065 233.799 537.163 231.954 537.218 230.157C536.005 230.009 530.467 229.269 528.173 227.878C525.975 226.544 523.545 224.233 523.265 221.521C522.992 218.867 524.871 216.334 527.646 216.328C531.499 216.321 535.473 222.034 536.534 225.314C536.592 225.493 536.979 227.371 537.239 228.743C537.252 227.932 537.281 227.095 537.277 226.317C537.271 223.397 537.088 220.723 536.905 218.357C536.79 217.012 536.66 215.797 536.525 214.664C535.41 213.895 530.956 210.743 529.585 208.489C528.248 206.29 527.153 203.117 528.152 200.581C529.13 198.099 531.962 196.72 534.427 197.997C537.85 199.77 538.75 206.676 538.184 210.076C538.134 210.37 536.843 214.878 536.784 214.84C536.784 214.84 536.729 214.802 536.717 214.793C536.868 215.882 537.016 217.051 537.152 218.333C537.387 220.7 537.63 223.377 537.698 226.308C537.775 229.237 537.775 232.422 537.473 235.777C537.175 239.14 536.691 242.661 535.723 246.226C535.712 246.266 535.695 246.308 535.684 246.347C536.29 245.393 538.074 242.781 538.234 242.597C540.484 239.989 546.363 236.277 549.909 237.785C552.463 238.874 553.212 241.939 551.929 244.278C550.619 246.667 547.484 247.848 544.942 248.22Z" fill="#1A8EF1"/>
<path d="M478.88 230.079C478.821 230.116 477.65 225.574 477.609 225.278C477.135 221.864 478.221 214.985 481.691 213.306C484.189 212.095 486.983 213.551 487.893 216.06C488.823 218.621 487.644 221.764 486.248 223.926C484.608 226.464 478.884 230.075 478.88 230.079Z" fill="#1A8EF1"/>
<path d="M61.1194 278.855C59.4661 279.579 55.4221 279.488 55.4183 279.488C55.3768 279.487 56.2879 276.834 56.3644 276.673C57.252 274.812 60.0581 271.74 62.3411 272.05C63.9859 272.272 64.9008 273.923 64.5298 275.475C64.1502 277.061 62.5281 278.238 61.1194 278.855Z" fill="#1A8EF1"/>
<path d="M59.7237 290.596C58.0081 290.847 54.3995 289.798 54.1124 289.713C53.5422 291.739 52.7944 293.771 51.9238 295.785C51.4272 296.936 50.8918 298.082 50.3404 299.223C50.6699 298.739 50.9674 298.31 51.0155 298.254C52.362 296.694 55.8781 294.474 57.9978 295.377C59.5265 296.027 59.973 297.86 59.2063 299.259C58.4236 300.688 56.5475 301.394 55.0274 301.616C53.4846 301.842 50.3895 301.01 49.5728 300.778C49.3566 301.213 49.1461 301.65 48.9279 302.086C47.8827 304.172 46.8309 306.249 45.8612 308.318C45.5194 309.047 45.2097 309.777 44.8963 310.507C45.189 310.077 45.4392 309.719 45.4835 309.667C46.83 308.108 50.3452 305.887 52.4658 306.79C53.9935 307.441 54.441 309.274 53.6744 310.673C52.8907 312.102 51.0155 312.809 49.4944 313.031C48.0225 313.247 45.1588 312.504 44.1872 312.233C43.8888 312.99 43.5895 313.748 43.3346 314.495C43.1722 315.009 42.9795 315.493 42.8464 316.018C42.7019 316.535 42.5594 317.047 42.4187 317.555C42.1827 318.541 41.9325 319.558 41.7266 320.526C41.5784 321.199 41.449 321.843 41.3168 322.49C41.6492 321.761 42.329 320.346 42.3989 320.234C43.4932 318.488 46.6326 315.76 48.8656 316.33C50.4745 316.741 51.194 318.485 50.6464 319.984C50.0884 321.515 48.3416 322.499 46.8715 322.949C45.2531 323.445 41.6709 322.992 41.2243 322.932C41.01 324.005 40.8108 325.05 40.6389 326.04C40.2547 328.224 39.9648 330.182 39.7448 331.839H38.235C38.4985 330.125 38.8421 328.083 39.2982 325.789C39.5115 324.699 39.7618 323.539 40.0299 322.349C39.7608 322.242 38.2332 321.622 36.8792 320.864C35.6999 322.145 32.6785 323.642 32.2867 323.833C32.6974 324.847 33.1081 325.829 33.5094 326.749C34.345 328.677 35.1381 330.386 35.8387 331.841H34.2052C33.6028 330.501 32.941 328.974 32.2508 327.282C31.8287 326.254 31.3982 325.148 30.9676 324.007C30.5342 324.098 26.9879 324.82 25.3356 324.446C23.8371 324.107 22.0215 323.257 21.3502 321.772C20.693 320.318 21.2812 318.525 22.8552 317.995C25.0391 317.259 28.373 319.746 29.5939 321.405C29.6666 321.502 30.3293 322.652 30.7363 323.385C30.5626 322.918 30.3889 322.467 30.2161 321.984C29.8667 321.032 29.5476 320.071 29.2001 319.039C29.0491 318.534 28.898 318.024 28.7441 317.51C28.5807 317.003 28.4731 316.446 28.3334 315.911C28.0359 314.661 27.7961 313.379 27.5827 312.084C26.75 312.387 23.7777 313.424 22.2377 313.315C20.7043 313.207 18.782 312.643 17.8945 311.276C17.0249 309.939 17.3355 308.076 18.8103 307.314C20.8582 306.256 24.5292 308.207 25.9871 309.662C26.0777 309.753 27.0077 310.914 27.5053 311.562C27.3825 310.782 27.257 310.004 27.1588 309.211C26.8755 306.922 26.6593 304.595 26.4336 302.275C26.3647 301.564 26.2882 300.857 26.2137 300.148C25.9181 300.26 22.4123 301.568 20.6873 301.447C19.1549 301.339 17.2316 300.775 16.3441 299.408C15.4754 298.071 15.7851 296.209 17.2609 295.447C19.3088 294.388 22.9798 296.339 24.4377 297.794C24.5472 297.904 25.8822 299.577 26.2014 300.02C26.0371 298.46 25.8587 296.907 25.6207 295.382C25.2959 293.279 24.8606 291.234 24.2932 289.284C24.1563 289.336 20.5023 290.719 18.7357 290.594C17.2024 290.486 15.28 289.921 14.3924 288.555C13.5238 287.218 13.8335 285.355 15.3083 284.592C17.3563 283.534 21.0263 285.486 22.4851 286.939C22.5993 287.054 24.0345 288.855 24.2715 289.2C24.2375 289.085 24.2148 288.961 24.1799 288.846C23.5473 286.771 22.6748 284.841 21.7693 283.074C21.2453 282.047 20.6873 281.094 20.1236 280.178C19.4693 280.506 16.4631 281.969 14.8608 282.033C13.3255 282.095 11.3522 281.746 10.3202 280.485C9.30989 279.251 9.41377 277.367 10.7961 276.446C12.7156 275.168 16.5783 276.704 18.1872 277.989C18.275 278.059 19.0851 278.869 19.6676 279.467C19.407 279.058 19.1454 278.631 18.8877 278.244C17.9237 276.789 16.9521 275.516 16.0816 274.396C15.5821 273.764 15.1176 273.201 14.6767 272.679C13.8675 272.665 10.6081 272.566 9.1824 271.895C7.79162 271.241 6.20069 270.02 5.86456 268.424C5.53503 266.862 6.49431 265.238 8.14474 265.06C10.4353 264.812 13.1575 267.959 13.995 269.843C14.0667 270.005 14.9061 272.682 14.8645 272.682C14.8645 272.682 14.8249 272.682 14.8154 272.681C15.2497 273.174 15.7086 273.708 16.1987 274.302C17.0947 275.406 18.0974 276.661 19.0964 278.1C20.0991 279.536 21.1471 281.125 22.1008 282.897C23.0591 284.674 23.9769 286.59 24.6671 288.688C24.6746 288.712 24.6803 288.738 24.6878 288.761C24.6756 288.085 24.7058 286.192 24.7247 286.047C24.989 284.002 26.699 280.206 28.965 279.786C30.5975 279.484 31.9798 280.765 32.1101 282.356C32.2423 283.981 31.0677 285.607 29.9215 286.634C28.6289 287.791 25.041 288.912 24.7558 289C25.395 291.003 25.8888 293.112 26.2712 295.274C26.4912 296.51 26.6744 297.761 26.8425 299.017C26.851 298.433 26.8623 297.909 26.8727 297.836C27.1371 295.791 28.847 291.995 31.1131 291.575C32.7456 291.272 34.1278 292.555 34.2572 294.145C34.3903 295.77 33.2148 297.396 32.0685 298.422C30.9053 299.463 27.866 300.481 27.0577 300.739C27.1172 301.222 27.1814 301.703 27.239 302.187C27.5157 304.505 27.781 306.819 28.1115 309.081C28.2267 309.878 28.3702 310.658 28.5118 311.44C28.5203 310.92 28.5316 310.482 28.5401 310.416C28.8045 308.371 30.5144 304.575 32.7795 304.155C34.412 303.853 35.7943 305.134 35.9246 306.725C36.0577 308.349 34.8813 309.976 33.735 311.002C32.6256 311.996 29.828 312.96 28.8696 313.271C29.0377 314.067 29.2048 314.865 29.4031 315.629C29.5504 316.147 29.6571 316.657 29.8337 317.17C29.9979 317.681 30.1613 318.187 30.3227 318.688C30.6693 319.642 31.0205 320.627 31.3812 321.549C31.6276 322.191 31.874 322.8 32.1205 323.413C31.9958 322.621 31.7843 321.065 31.7815 320.933C31.7503 319.564 32.2357 317.336 33.2016 315.771C33.1959 315.568 33.2072 315.367 33.2393 315.166C33.4924 313.59 34.9691 312.42 36.5733 312.847C38.7996 313.442 40.2122 317.359 40.317 319.418C40.3236 319.539 40.2443 320.865 40.18 321.701C40.2924 321.215 40.3953 320.743 40.5171 320.244C40.7503 319.257 41.0128 318.28 41.2904 317.225C41.4425 316.722 41.5963 316.213 41.7512 315.699C41.8937 315.186 42.11 314.663 42.2894 314.138C42.7294 312.932 43.2345 311.73 43.7698 310.531C42.9078 310.323 39.8581 309.544 38.6335 308.602C37.4145 307.664 36.121 306.13 36.1333 304.5C36.1446 302.903 37.4278 301.522 39.0782 301.702C41.3688 301.95 43.3563 305.608 43.7727 307.628C43.7982 307.754 43.9342 309.237 43.9927 310.053C44.3203 309.334 44.6432 308.616 44.9983 307.9C46.0218 305.833 47.1217 303.773 48.2113 301.713C48.5455 301.082 48.8704 300.449 49.198 299.818C48.8902 299.747 45.2456 298.9 43.8737 297.845C42.6548 296.908 41.3612 295.373 41.3735 293.743C41.3848 292.148 42.668 290.766 44.3184 290.946C46.609 291.195 48.5965 294.852 49.0129 296.872C49.0441 297.024 49.2367 299.158 49.2584 299.703C49.9797 298.312 50.686 296.916 51.3262 295.514C52.2128 293.58 52.9757 291.634 53.5752 289.693C53.4317 289.659 49.6238 288.792 48.2188 287.712C46.9999 286.774 45.7064 285.24 45.7187 283.61C45.73 282.013 47.0131 280.633 48.6635 280.812C50.9541 281.061 52.9417 284.719 53.3571 286.739C53.3902 286.898 53.595 289.194 53.6026 289.612C53.6385 289.497 53.6876 289.381 53.7215 289.266C54.3353 287.186 54.6705 285.093 54.8877 283.119C55.0161 281.972 55.0746 280.868 55.1076 279.794C54.3816 279.705 51.0694 279.263 49.6975 278.431C48.3832 277.634 46.9291 276.251 46.762 274.63C46.5986 273.042 47.7232 271.527 49.3821 271.524C51.6859 271.52 54.0624 274.937 54.6969 276.898C54.7318 277.005 54.9622 278.128 55.119 278.949C55.1265 278.463 55.1435 277.963 55.1416 277.498C55.1388 275.752 55.0283 274.153 54.9198 272.738C54.8508 271.933 54.7734 271.207 54.6932 270.529C54.0266 270.069 51.362 268.184 50.5425 266.836C49.7427 265.52 49.0884 263.623 49.6861 262.107C50.2706 260.622 51.9645 259.798 53.4393 260.561C55.4863 261.622 56.0245 265.752 55.6865 267.786C55.6572 267.961 54.8839 270.658 54.8489 270.635C54.8489 270.635 54.8159 270.612 54.8093 270.607C54.899 271.259 54.9877 271.958 55.0699 272.725C55.2106 274.14 55.356 275.742 55.3966 277.494C55.4419 279.246 55.4419 281.151 55.2616 283.158C55.0831 285.169 54.7942 287.275 54.2144 289.407C54.2078 289.43 54.1984 289.455 54.1908 289.479C54.5534 288.908 55.6203 287.346 55.7157 287.236C57.0621 285.676 60.5773 283.456 62.6979 284.359C64.2256 285.01 64.6732 286.843 63.9065 288.242C63.1191 289.668 61.2439 290.375 59.7237 290.596Z" fill="#1A8EF1"/>
<path d="M20.2146 279.747C20.1787 279.77 19.4791 277.052 19.4545 276.876C19.1713 274.834 19.8209 270.72 21.8953 269.716C23.3899 268.992 25.0602 269.863 25.6049 271.363C26.1611 272.894 25.4558 274.774 24.6211 276.067C23.641 277.585 20.2174 279.745 20.2146 279.747Z" fill="#1A8EF1"/>
<path d="M255.2 283.174C255.2 283.174 239.381 280.767 222.438 280.489C205.496 280.211 199.941 281.324 195.775 282.716C191.61 284.108 187.887 295.819 193.358 306.945C198.83 318.072 217.995 327.259 244.102 325.032C270.21 322.805 288.819 317.516 298.817 309.999C308.816 302.482 299.928 298.306 288.818 292.182C277.709 286.056 262.687 282.797 255.2 283.174Z" fill="#263238" stroke="#263238" stroke-miterlimit="10" stroke-linecap="round" stroke-linejoin="round"/>
<path d="M276.875 308.885C276.875 308.885 237.992 287.449 224.382 283.551C210.773 279.654 195.219 278.818 187.998 283.551C180.777 288.284 182.443 303.596 185.776 309.442C189.109 315.288 216.05 327.537 231.048 331.992C246.047 336.447 304.649 336.168 320.758 337.56C336.867 338.952 375.751 338.116 381.306 335.054C386.861 331.991 383.528 328.65 375.474 326.702C367.419 324.753 340.756 324.753 328.258 321.134C315.76 317.515 286.041 313.618 276.875 308.885Z" fill="white" stroke="#263238" stroke-miterlimit="10" stroke-linecap="round" stroke-linejoin="round"/>
<path d="M185.776 309.442C184.152 306.593 182.927 301.496 182.931 296.471C192.998 304.467 208.677 313.936 230.356 321.697C250.914 329.056 309.124 335.644 333.199 338.137C328.411 338.04 324.093 337.848 320.759 337.561C304.65 336.169 246.047 336.447 231.049 331.993C216.05 327.537 189.109 315.288 185.776 309.442Z" fill="#263238" stroke="#263238" stroke-miterlimit="10" stroke-linecap="round" stroke-linejoin="round"/>
<path d="M213.26 325.41C209.136 323.655 205.015 321.76 201.253 319.865C200.424 315.769 199.441 303.741 208.234 280.549C213.509 280.991 219.091 282.036 224.383 283.551C224.383 283.551 207.912 302.434 213.26 325.41Z" fill="#263238" stroke="#263238" stroke-miterlimit="10" stroke-linecap="round" stroke-linejoin="round"/>
<path d="M314.889 318.088C320.118 319.131 324.835 320.144 328.258 321.135C340.756 324.754 367.42 324.754 375.474 326.703C383.529 328.651 386.862 331.992 381.306 335.055C375.751 338.117 336.868 338.952 320.758 337.561C318.858 337.396 316.359 337.256 313.417 337.127C319.841 330.123 316.914 321.95 314.889 318.088Z" fill="white" stroke="#263238" stroke-miterlimit="10" stroke-linecap="round" stroke-linejoin="round"/>
<path d="M340.201 273.807C340.201 273.807 365.476 276.87 378.252 277.983C391.027 279.097 414.081 289.397 418.802 299.419C423.524 309.441 409.359 321.412 401.304 323.917C393.249 326.423 369.086 331.991 355.755 331.156C342.423 330.321 302.984 318.628 296.04 316.401C289.097 314.174 276.876 308.885 276.876 308.885C276.876 308.885 288.542 308.885 308.261 298.862C327.98 288.841 331.036 278.54 340.201 273.807Z" fill="white" stroke="#263238" stroke-miterlimit="10" stroke-linecap="round" stroke-linejoin="round"/>
<path d="M394.461 281.762C394.461 281.762 374.532 279.681 365.398 286.339C356.264 292.998 350.452 313.391 350.452 313.391L308.261 298.863C308.261 298.863 311.424 295.495 319.313 285.924C327.201 276.352 350.452 270.941 364.153 273.855C377.853 276.768 394.461 281.762 394.461 281.762Z" fill="#263238" stroke="#263238" stroke-miterlimit="10" stroke-linecap="round" stroke-linejoin="round"/>
<path d="M298.037 317.027C297.223 316.776 296.539 316.562 296.039 316.402C289.096 314.175 276.875 308.886 276.875 308.886C276.875 308.886 285.835 308.885 301.32 302.141C299.111 305.867 296.914 311.298 298.037 317.027Z" fill="white" stroke="#263238" stroke-miterlimit="10" stroke-linecap="round" stroke-linejoin="round"/>
<path d="M283.006 311.461C293.678 312.8 312.182 315.726 333.229 321.696C357.244 328.508 386.192 326.08 400.223 324.243C391.274 326.871 368.539 331.957 355.755 331.155C342.423 330.321 302.984 318.628 296.04 316.401C292.313 315.207 287.068 313.129 283.006 311.461Z" fill="#263238" stroke="#263238" stroke-miterlimit="10" stroke-linecap="round" stroke-linejoin="round"/>
<path d="M256.701 192.902L262.405 249.171C262.405 249.171 259.703 262.712 257.902 268.129C256.101 273.545 254.3 282.272 255.2 283.174C256.101 284.077 256.701 283.475 263.005 285.28C269.31 287.086 276.814 297.919 286.421 302.131C296.027 306.344 303.833 304.238 312.839 300.626C321.844 297.016 338.656 275.049 342.258 274.448C345.86 273.846 356.669 272.04 361.171 270.536C365.674 269.032 371.078 262.712 371.078 262.712C371.078 262.712 371.979 262.713 371.979 259.403C371.979 256.093 371.678 255.792 371.678 255.792C371.678 255.792 374.079 253.686 374.68 250.978C375.28 248.269 368.976 233.826 368.976 224.8C368.976 215.772 364.473 181.77 364.473 177.557C364.473 173.345 358.169 172.442 351.564 169.733C344.96 167.024 310.136 154.086 309.536 150.475C308.935 146.864 306.533 121.588 306.533 121.588C306.533 121.588 287.853 141.615 285.519 143.253C282.517 145.359 281.017 147.465 281.017 147.465L283.118 157.395C283.118 157.395 274.113 164.015 268.109 167.625C262.105 171.236 253.999 174.546 253.699 176.953" fill="white"/>
<path d="M256.701 192.902L262.405 249.171C262.405 249.171 259.703 262.712 257.902 268.129C256.101 273.545 254.3 282.272 255.2 283.174C256.101 284.077 256.701 283.475 263.005 285.28C269.31 287.086 276.814 297.919 286.421 302.131C296.027 306.344 303.833 304.238 312.839 300.626C321.844 297.016 338.656 275.049 342.258 274.448C345.86 273.846 356.669 272.04 361.171 270.536C365.674 269.032 371.078 262.712 371.078 262.712C371.078 262.712 371.979 262.713 371.979 259.403C371.979 256.093 371.678 255.792 371.678 255.792C371.678 255.792 374.079 253.686 374.68 250.978C375.28 248.269 368.976 233.826 368.976 224.8C368.976 215.772 364.473 181.77 364.473 177.557C364.473 173.345 358.169 172.442 351.564 169.733C344.96 167.024 310.136 154.086 309.536 150.475C308.935 146.864 306.533 121.588 306.533 121.588C306.533 121.588 287.853 141.615 285.519 143.253C282.517 145.359 281.017 147.465 281.017 147.465L283.118 157.395C283.118 157.395 274.113 164.015 268.109 167.625C262.105 171.236 253.999 174.546 253.699 176.953" stroke="#263238" stroke-miterlimit="10" stroke-linecap="round" stroke-linejoin="round"/>
<path d="M351.063 259.086C349.684 260.16 348.338 261.547 347.062 263.314" stroke="#263238" stroke-miterlimit="10" stroke-linecap="round" stroke-linejoin="round"/>
<path d="M371.979 259.402C371.979 259.402 363.356 253.405 354.733 256.941" stroke="#263238" stroke-miterlimit="10" stroke-linecap="round" stroke-linejoin="round"/>
<path d="M277.714 161.262C280.79 159.106 283.118 157.395 283.118 157.395L281.017 147.465C281.017 147.465 282.518 145.358 285.519 143.253C287.853 141.615 306.533 121.588 306.533 121.588C306.533 121.588 308.935 146.864 309.536 150.475C309.73 151.646 313.535 153.8 318.801 156.268C317.882 162.074 314.586 171.761 302.931 175.45C291.278 179.138 282.274 168.454 277.714 161.262Z" fill="white" stroke="#263238" stroke-miterlimit="10" stroke-linecap="round" stroke-linejoin="round"/>
<path d="M283.031 157.459C283.086 157.419 283.118 157.395 283.118 157.395L281.017 147.465C281.017 147.465 282.518 145.358 285.519 143.253C286.844 142.323 293.439 135.465 298.893 129.71L300.276 136.298C300.276 136.298 300.261 155.222 283.031 157.459Z" fill="#263238"/>
<path d="M301.901 59.5063C301.901 59.5063 302.761 52.3221 308.495 50.8855C314.229 49.4489 327.418 50.311 332.005 58.9318C336.591 67.5526 333.152 74.1623 331.431 75.3122C329.711 76.4621 328.278 77.0365 328.278 77.0365L326.845 69.8524C326.845 69.8524 326.271 76.1744 322.258 77.611C318.244 79.0477 309.93 77.611 309.93 77.611C309.93 77.611 302.761 72.438 301.901 59.5063Z" fill="#263238" stroke="#263238" stroke-miterlimit="10" stroke-linecap="round" stroke-linejoin="round"/>
<path d="M248.895 85.1775C248.895 85.1775 238.689 91.7976 238.689 98.4177C238.689 105.038 251.297 107.445 251.297 107.445L248.895 85.1775Z" fill="#263238" stroke="#263238" stroke-miterlimit="10" stroke-linecap="round" stroke-linejoin="round"/>
<path d="M246.569 86.5195C246.569 86.5195 247.716 100.313 248.862 108.072C250.01 115.831 254.882 122.154 255.17 127.326C255.457 132.499 266.924 145.143 272.658 149.453C278.392 153.764 286.992 152.327 291.293 148.879C295.594 145.43 302.761 137.097 306.202 128.189C309.642 119.28 307.062 106.349 306.202 102.325C305.342 98.3022 283.84 82.4963 267.498 82.4963C251.156 82.4963 246.569 86.5195 246.569 86.5195Z" fill="white" stroke="#263238" stroke-miterlimit="10" stroke-linecap="round" stroke-linejoin="round"/>
<path d="M264.631 118.705C264.631 118.705 263.484 129.05 263.484 129.912C263.484 130.774 266.064 133.361 270.365 130.774" stroke="#263238" stroke-miterlimit="10" stroke-linecap="round" stroke-linejoin="round"/>
<path d="M281.833 130.774C281.833 130.774 277.246 136.522 269.791 136.234" stroke="#263238" stroke-miterlimit="10" stroke-linecap="round" stroke-linejoin="round"/>
<path d="M266.352 109.509C266.352 109.509 275.812 103.761 287.853 105.485C287.853 105.485 291.294 105.486 289.287 108.072C289.287 108.072 290.147 116.693 288.14 119.279C286.132 121.866 281.545 123.877 276.958 123.877C272.372 123.878 267.785 118.417 266.352 109.509Z" stroke="#263238" stroke-width="2" stroke-miterlimit="10" stroke-linecap="round" stroke-linejoin="round"/>
<path d="M289.574 105.773L308.209 104.623" stroke="#263238" stroke-width="2" stroke-miterlimit="10" stroke-linecap="round" stroke-linejoin="round"/>
<path d="M266.352 109.509L261.478 110.945C261.478 110.945 263.484 121.578 262.338 124.451C261.592 126.321 260 127.716 258.055 128.22C256.435 128.64 254.568 129.049 253.45 129.049C251.157 129.049 246.283 124.451 245.136 116.405C245.136 116.405 243.702 115.831 244.276 114.968C244.849 114.106 251.778 110.088 261.239 110.95" stroke="#263238" stroke-width="2" stroke-miterlimit="10" stroke-linecap="round" stroke-linejoin="round"/>
<path d="M266.638 112.095C266.638 112.095 262.979 112.335 261.899 113.718" stroke="#263238" stroke-width="2" stroke-miterlimit="10" stroke-linecap="round" stroke-linejoin="round"/>
<path d="M276.537 115.378C276.868 117.261 277.798 118.67 278.615 118.525C279.431 118.381 279.825 116.738 279.494 114.856C279.163 112.973 278.233 111.565 277.416 111.709C276.6 111.854 276.206 113.497 276.537 115.378Z" fill="#263238"/>
<path d="M255.636 120.445C255.178 118.792 255.388 117.29 256.105 117.09C256.822 116.89 257.775 118.069 258.233 119.722C258.691 121.376 258.481 122.878 257.764 123.077C257.047 123.277 256.095 122.098 255.636 120.445Z" fill="#263238"/>
<path d="M282.518 108.648C282.518 108.648 275.313 106.241 272.011 110.153" stroke="#263238" stroke-width="2" stroke-miterlimit="10" stroke-linecap="round" stroke-linejoin="round"/>
<path d="M258.802 114.065C258.802 114.065 255.5 111.055 252.798 115.268" stroke="#263238" stroke-width="2" stroke-miterlimit="10" stroke-linecap="round" stroke-linejoin="round"/>
<path d="M296.168 102.899C296.168 102.899 280.686 94.5649 267.498 91.9793C254.31 89.3928 244.276 90.5427 241.982 82.7831C239.689 75.0235 255.171 62.0919 271.226 57.4942C287.28 52.8966 306.489 57.7819 314.23 69.276C321.971 80.7711 319.391 94.5649 317.097 99.737C314.804 104.91 313.083 108.933 308.782 109.508C304.482 110.082 296.168 102.899 296.168 102.899Z" fill="#263238" stroke="#263238" stroke-miterlimit="10" stroke-linecap="round" stroke-linejoin="round"/>
<path d="M307.374 93.7822C309.037 94.7949 310.455 95.94 311.552 97.2499" stroke="white" stroke-miterlimit="10" stroke-linecap="round" stroke-linejoin="round"/>
<path d="M253.45 74.2059C253.45 74.2059 249.27 76.7195 261.392 81.7478C270.192 85.398 288.025 86.3984 300.495 90.6799" stroke="white" stroke-miterlimit="10" stroke-linecap="round" stroke-linejoin="round"/>
<path d="M269.547 71.2616C268.55 70.16 267.766 68.9164 267.244 67.5025" stroke="white" stroke-miterlimit="10" stroke-linecap="round" stroke-linejoin="round"/>
<path d="M314.479 92.2216C314.479 92.2216 318.24 86.7751 305.282 83.0036C295.936 80.2837 282.459 79.3079 274.103 74.7302" stroke="white" stroke-miterlimit="10" stroke-linecap="round" stroke-linejoin="round"/>
<path d="M304.195 113.819C304.195 113.819 306.472 102.612 311.349 102.612C316.227 102.612 316.878 107.785 314.926 114.107C312.975 120.429 309.724 122.441 306.797 120.429" fill="white"/>
<path d="M304.195 113.819C304.195 113.819 306.472 102.612 311.349 102.612C316.227 102.612 316.878 107.785 314.926 114.107C312.975 120.429 309.724 122.441 306.797 120.429" stroke="#263238" stroke-miterlimit="10" stroke-linecap="round" stroke-linejoin="round"/>
<path d="M342.258 274.448C342.258 274.448 341.057 272.943 341.057 268.129C341.057 263.314 344.359 247.367 345.861 236.233C347.362 225.1 348.863 203.735 348.863 194.708" stroke="#263238" stroke-miterlimit="10" stroke-linecap="round" stroke-linejoin="round"/>
<path d="M312.01 239.667C311.21 240.961 310.386 242.133 309.537 243.153" stroke="#263238" stroke-miterlimit="10" stroke-linecap="round" stroke-linejoin="round"/>
<path d="M328.749 184.176C328.749 184.176 323.368 217.437 314.156 235.793" stroke="#263238" stroke-miterlimit="10" stroke-linecap="round" stroke-linejoin="round"/>
<path d="M309.905 212.48C308.692 214.783 307.46 216.917 306.234 218.78" stroke="#263238" stroke-miterlimit="10" stroke-linecap="round" stroke-linejoin="round"/>
<path d="M325.147 174.847C325.147 174.847 319.124 193.525 311.996 208.323" stroke="#263238" stroke-miterlimit="10" stroke-linecap="round" stroke-linejoin="round"/>
<path d="M389.69 261.509C389.69 261.509 386.388 264.217 379.783 264.217C373.179 264.217 367.475 260.908 359.07 263.013C350.664 265.12 350.665 273.545 351.564 275.953C352.464 278.36 360.57 279.864 368.075 278.962C375.581 278.059 390.891 276.555 390.891 276.555C390.891 276.555 388.49 267.828 389.69 261.509Z" fill="white" stroke="#263238" stroke-miterlimit="10" stroke-linecap="round" stroke-linejoin="round"/>
<path d="M395.813 253.863C395.813 253.863 395.118 256.996 391.298 259.085C387.477 261.174 386.088 266.744 386.088 269.878C386.088 273.011 386.782 274.752 386.782 274.752C386.782 274.752 387.824 278.929 391.298 279.626C394.771 280.322 396.855 282.411 401.023 278.234C405.19 274.056 411.095 260.826 411.095 260.826L410.4 258.738C410.4 258.738 406.928 258.738 404.149 257.345C401.37 255.951 395.813 253.863 395.813 253.863Z" fill="white" stroke="#263238" stroke-miterlimit="10" stroke-linecap="round" stroke-linejoin="round"/>
<path d="M415.263 239.589L391.298 279.625" stroke="#263238" stroke-width="3" stroke-miterlimit="10" stroke-linecap="round" stroke-linejoin="round"/>
<path d="M407.969 279.277C407.969 279.277 405.19 282.062 400.328 282.062C395.465 282.062 390.603 278.928 393.034 277.884C395.465 276.84 397.201 275.796 398.939 276.492C400.675 277.188 407.969 279.277 407.969 279.277Z" fill="white" stroke="#263238" stroke-miterlimit="10" stroke-linecap="round" stroke-linejoin="round"/>
<path d="M411.443 274.054C411.443 274.054 409.359 279.973 407.623 280.669C405.886 281.365 398.592 279.624 396.508 278.232C394.424 276.84 397.897 274.403 401.023 274.403C404.149 274.403 411.443 274.054 411.443 274.054Z" fill="white" stroke="#263238" stroke-miterlimit="10" stroke-linecap="round" stroke-linejoin="round"/>
<path d="M412.832 265.003C412.832 265.003 414.221 272.314 411.443 274.054C408.664 275.795 397.898 276.491 396.855 274.402C395.813 272.314 399.634 271.269 403.454 269.528C407.274 267.788 412.832 265.003 412.832 265.003Z" fill="white" stroke="#263238" stroke-miterlimit="10" stroke-linecap="round" stroke-linejoin="round"/>
<path d="M402.065 254.907C402.065 254.907 401.718 268.484 400.329 269.877C398.94 271.269 395.814 271.617 395.119 270.573C394.424 269.529 393.73 257.692 395.814 253.863C397.897 250.033 402.065 254.907 402.065 254.907Z" fill="white" stroke="#263238" stroke-miterlimit="10" stroke-linecap="round" stroke-linejoin="round"/>
<path d="M410.4 258.737C410.4 258.737 414.916 257.693 414.916 262.218C414.916 266.744 408.664 269.529 405.885 269.878C403.107 270.226 399.98 269.181 402.412 267.092C404.843 265.004 408.317 260.477 410.4 258.737Z" fill="white" stroke="#263238" stroke-miterlimit="10" stroke-linecap="round" stroke-linejoin="round"/>
<path d="M376.308 280.767L356.866 277.983C356.866 277.983 359.366 274.364 365.754 274.364C372.142 274.364 376.03 277.426 376.863 278.539C377.696 279.654 376.308 280.767 376.308 280.767Z" fill="#263238" stroke="#263238" stroke-miterlimit="10" stroke-linecap="round" stroke-linejoin="round"/>
<path d="M337.146 303.873L306.038 293.016C306.038 293.016 313.537 277.148 327.702 271.58C341.867 266.013 362.878 267.445 371.766 270.786L368.529 274.364C368.529 274.364 362.141 274.642 355.198 282.716C348.254 290.789 341.31 303.595 341.31 303.595L337.146 303.873Z" fill="white" stroke="#263238" stroke-miterlimit="10" stroke-linecap="round" stroke-linejoin="round"/>
<path d="M356.552 272.293C356.552 272.293 344.201 270.524 331.262 298.233" stroke="#1A8EF1" stroke-miterlimit="10" stroke-linecap="round" stroke-linejoin="round"/>
<path d="M350.465 271.073C350.465 271.073 338.113 269.304 325.174 297.013" stroke="#1A8EF1" stroke-miterlimit="10" stroke-linecap="round" stroke-linejoin="round"/>
<path d="M345.353 270.096C345.353 270.096 333.001 268.328 320.062 296.036" stroke="#1A8EF1" stroke-miterlimit="10" stroke-linecap="round" stroke-linejoin="round"/>
<path d="M419.913 300.254C419.913 300.254 406.026 279.653 380.196 281.324L376.308 280.767C376.308 280.767 373.808 274.921 366.586 276.312C359.365 277.704 340.756 306.379 340.756 306.379L337.146 303.874C337.146 303.874 346.972 287.186 354.471 277.721C361.97 268.255 371.767 268.579 374.912 272.047C376.835 274.168 379.464 278.963 379.464 278.963C379.464 278.963 382.348 274.594 390.892 276.554C401.392 278.963 407.179 283.645 410.162 286.875C414.505 291.575 423.258 297.966 422.413 297.47L419.913 300.254Z" fill="white" stroke="#263238" stroke-miterlimit="10" stroke-linecap="round" stroke-linejoin="round"/>
<path d="M340.756 306.38L307.705 294.965L306.038 293.016L337.146 303.873L340.756 306.38Z" fill="white" stroke="#263238" stroke-miterlimit="10" stroke-linecap="round" stroke-linejoin="round"/>
<path d="M259.241 172.589C259.241 172.589 247.317 176.716 245.515 183.035C243.714 189.354 234.786 223.895 232.384 229.01C229.983 234.125 224.579 237.135 224.579 241.046C224.579 244.958 224.278 247.968 224.278 247.968C224.278 247.968 217.974 248.269 217.374 253.384C216.773 258.499 215.572 265.119 215.572 265.119L191.55 302.369C191.55 302.369 177.22 303.525 173.918 303.224C170.617 302.923 160.801 303.555 157.216 305.446C155.826 306.18 153.063 308.568 150.893 316.229C149.815 320.036 147.427 327.408 148.928 327.107C150.429 326.806 152.274 322.618 152.874 321.715C153.475 320.812 155.231 315.672 155.231 315.672C155.231 315.672 154.03 324.399 153.73 326.204C153.43 328.01 154.33 329.814 154.33 329.814L154.458 329.867C155.933 330.467 157.564 330.567 159.1 330.15L160.333 329.814C161.487 330.441 162.841 330.583 164.099 330.211L165.437 329.814C165.437 329.814 167.386 323.633 169.186 321.226C170.988 318.818 176.648 316.207 176.648 316.207C176.648 316.207 170.54 323.194 170.84 327.709C170.962 329.535 170.54 331.018 172.041 330.116C173.543 329.214 175.343 324.7 178.646 323.195C181.948 321.691 189.753 319.585 192.755 317.779C195.757 315.973 200.561 309.353 200.561 309.353L239.887 273.846C239.887 273.846 243.789 269.935 244.39 267.828C244.99 265.721 244.99 265.721 244.99 265.721C244.99 265.721 250.394 262.412 251.895 260.606C253.396 258.8 253.997 254.889 253.997 254.889L262.103 245.561L256.699 194.106" fill="white"/>
<path d="M259.241 172.589C259.241 172.589 247.317 176.716 245.515 183.035C243.714 189.354 234.786 223.895 232.384 229.01C229.983 234.125 224.579 237.135 224.579 241.046C224.579 244.958 224.278 247.968 224.278 247.968C224.278 247.968 217.974 248.268 217.374 253.384C216.773 258.499 215.572 265.119 215.572 265.119L191.55 302.369C191.55 302.369 177.22 303.525 173.918 303.224C170.617 302.923 160.801 303.555 157.216 305.446C155.826 306.18 153.063 308.568 150.893 316.229C149.815 320.036 147.427 327.408 148.928 327.107C150.429 326.806 152.274 322.618 152.874 321.715C153.475 320.812 155.231 315.672 155.231 315.672C155.231 315.672 154.03 324.399 153.73 326.204C153.43 328.01 154.33 329.814 154.33 329.814L154.458 329.867C155.933 330.467 157.564 330.567 159.1 330.149L160.333 329.814C161.487 330.441 162.841 330.583 164.099 330.211L165.437 329.814C165.437 329.814 167.386 323.633 169.186 321.226C170.988 318.818 176.648 316.207 176.648 316.207C176.648 316.207 170.54 323.194 170.84 327.709C170.962 329.535 170.54 331.018 172.041 330.116C173.543 329.214 175.343 324.7 178.646 323.195C181.948 321.691 189.753 319.585 192.755 317.779C195.757 315.973 200.561 309.353 200.561 309.353L239.887 273.846C239.887 273.846 243.789 269.935 244.39 267.828C244.99 265.721 244.99 265.721 244.99 265.721C244.99 265.721 250.394 262.412 251.895 260.606C253.396 258.8 253.997 254.889 253.997 254.889L262.103 245.561L256.699 194.106" stroke="#263238" stroke-miterlimit="10" stroke-linecap="round" stroke-linejoin="round"/>
<path d="M259.763 206.025L262.104 245.561L253.998 254.889C253.998 254.889 253.397 258.8 251.896 260.606C250.395 262.412 244.991 265.721 244.991 265.721C244.991 265.721 244.991 265.721 244.391 267.828C243.79 269.935 239.888 273.846 239.888 273.846L234.002 279.16C231.609 274.484 225.926 266.054 215.646 264.7C215.914 263.187 216.86 257.746 217.372 253.385C217.972 248.27 224.277 247.969 224.277 247.969C224.277 247.969 224.577 244.959 224.577 241.048C224.577 237.136 229.98 234.126 232.382 229.011C234.784 223.896 243.712 189.355 245.513 183.036C247.315 176.717 259.239 172.59 259.239 172.59" fill="white"/>
<path d="M259.763 206.025L262.104 245.561L253.998 254.889C253.998 254.889 253.397 258.8 251.896 260.606C250.395 262.412 244.991 265.721 244.991 265.721C244.991 265.721 244.991 265.721 244.391 267.828C243.79 269.935 239.888 273.846 239.888 273.846L234.002 279.16C231.609 274.484 225.926 266.054 215.646 264.7C215.914 263.187 216.86 257.746 217.372 253.385C217.972 248.27 224.277 247.969 224.277 247.969C224.277 247.969 224.577 244.959 224.577 241.048C224.577 237.136 229.98 234.126 232.382 229.011C234.784 223.896 243.712 189.355 245.513 183.036C247.315 176.717 259.239 172.59 259.239 172.59" stroke="#263238" stroke-miterlimit="10" stroke-linecap="round" stroke-linejoin="round"/>
<path d="M260.234 217.981L256.279 251.799L262.104 245.561L260.234 217.981Z" fill="#263238"/>
<path d="M232.354 253.272C231.526 252.688 230.637 252.12 229.683 251.578" stroke="#263238" stroke-miterlimit="10" stroke-linecap="round" stroke-linejoin="round"/>
<path d="M241.991 264.217C241.991 264.217 240.117 259.949 235.343 255.656" stroke="#263238" stroke-miterlimit="10" stroke-linecap="round" stroke-linejoin="round"/>
<path d="M235.444 247.926C234.173 247.726 232.848 247.628 231.484 247.667" stroke="#263238" stroke-miterlimit="10" stroke-linecap="round" stroke-linejoin="round"/>
<path d="M250.096 255.19C250.096 255.19 246.12 251.352 240.129 249.156" stroke="#263238" stroke-miterlimit="10" stroke-linecap="round" stroke-linejoin="round"/>
<path d="M175.046 318.38C175.046 318.38 178.348 313.867 182.851 313.566" stroke="#263238" stroke-miterlimit="10" stroke-linecap="round" stroke-linejoin="round"/>
<path d="M173.545 308.45C173.545 308.45 169.943 309.353 165.44 315.07C160.937 320.788 159.736 329.213 159.736 329.213" stroke="#263238" stroke-miterlimit="10" stroke-linecap="round" stroke-linejoin="round"/>
<path d="M164.95 307.247C164.95 307.247 158.235 312.663 157.034 317.778C155.833 322.893 154.331 329.814 154.331 329.814" stroke="#263238" stroke-miterlimit="10" stroke-linecap="round" stroke-linejoin="round"/>
<path d="M155.233 315.671C155.233 315.671 156.434 310.255 159.436 306.043" stroke="#263238" stroke-miterlimit="10" stroke-linecap="round" stroke-linejoin="round"/>
<path d="M64.2718 327.695H147.127L124.312 251.866H41.4565L64.2718 327.695Z" fill="white" stroke="#263238" stroke-miterlimit="10" stroke-linecap="round" stroke-linejoin="round"/>
<path d="M64.2718 327.695L44.9406 263.446C69.4072 266.48 83.8014 286.677 106.433 308.834C120.676 322.778 130.563 326.784 136.363 327.695H64.2718Z" fill="#263238" stroke="#263238" stroke-miterlimit="10" stroke-linecap="round" stroke-linejoin="round"/>
<path d="M90.9894 292.488C87.3684 292.488 84.433 289.659 84.433 286.169C84.433 282.679 87.3684 279.85 90.9894 279.85C94.6105 279.85 97.5459 282.679 97.5459 286.169C97.5459 289.659 94.6105 292.488 90.9894 292.488Z" fill="white" stroke="#263238" stroke-miterlimit="10" stroke-linecap="round" stroke-linejoin="round"/>
<path d="M63.3713 327.394H218.275V332.208H63.3713V327.394Z" fill="white" stroke="#263238" stroke-miterlimit="10" stroke-linecap="round" stroke-linejoin="round"/>
<path d="M63.3714 327.394H142.625V332.208H63.3714V327.394Z" fill="#263238" stroke="#263238" stroke-miterlimit="10" stroke-linecap="round" stroke-linejoin="round"/>
<path d="M420.071 314.44H482.159C487.66 314.44 492.12 318.91 492.12 324.424V325.521C492.12 331.034 487.66 335.504 482.159 335.504H420.071C420.071 335.504 423.388 330.511 423.388 324.838C423.388 319.166 420.071 314.44 420.071 314.44Z" fill="white" stroke="#263238" stroke-miterlimit="10" stroke-linecap="round" stroke-linejoin="round"/>
<path d="M449.545 314.44H511.634C517.135 314.44 521.594 318.91 521.594 324.424V325.521C521.594 331.034 517.135 335.504 511.634 335.504H449.545C449.545 335.504 452.862 330.511 452.862 324.838C452.862 319.166 449.545 314.44 449.545 314.44Z" fill="white" stroke="#263238" stroke-miterlimit="10" stroke-linecap="round" stroke-linejoin="round"/>
<path d="M521.594 324.424V325.521C521.594 329.528 519.233 332.975 515.834 334.564L514.467 334.618V315.979L515.271 315.138C518.971 316.594 521.594 320.198 521.594 324.424Z" fill="white" stroke="#263238" stroke-miterlimit="10" stroke-linecap="round" stroke-linejoin="round"/>
<path d="M420.071 314.44H511.634C517.135 314.44 521.594 318.91 521.594 324.424V325.521C521.594 331.034 517.135 335.504 511.634 335.504H420.071" stroke="#263238" stroke-width="3" stroke-miterlimit="10" stroke-linecap="round" stroke-linejoin="round"/>
<path d="M514.157 319.085H483.783" stroke="#263238" stroke-miterlimit="10" stroke-linecap="round" stroke-linejoin="round"/>
<path d="M479.444 321.882H474.795" stroke="#263238" stroke-miterlimit="10" stroke-linecap="round" stroke-linejoin="round"/>
<path d="M508.268 321.882H483.474" stroke="#263238" stroke-miterlimit="10" stroke-linecap="round" stroke-linejoin="round"/>
<path d="M514.157 328.095H498.66" stroke="#263238" stroke-miterlimit="10" stroke-linecap="round" stroke-linejoin="round"/>
<path d="M467.667 331.511H464.258" stroke="#263238" stroke-miterlimit="10" stroke-linecap="round" stroke-linejoin="round"/>
<path d="M489.363 331.511H470.456" stroke="#263238" stroke-miterlimit="10" stroke-linecap="round" stroke-linejoin="round"/>
<path d="M508.268 331.511H494.941" stroke="#263238" stroke-miterlimit="10" stroke-linecap="round" stroke-linejoin="round"/>
<path d="M481.545 314.44H568.518C574.019 314.44 578.479 318.91 578.479 324.424V325.521C578.479 331.034 574.019 335.504 568.518 335.504H481.545C481.545 335.504 484.862 330.511 484.862 324.838C484.861 319.166 481.545 314.44 481.545 314.44Z" fill="white" stroke="#263238" stroke-miterlimit="10" stroke-linecap="round" stroke-linejoin="round"/>
<path d="M534.439 317.754V332.827" stroke="#263238" stroke-miterlimit="10" stroke-linecap="round" stroke-linejoin="round"/>
<path d="M533.969 320.109H509.062" stroke="#263238" stroke-miterlimit="10" stroke-linecap="round" stroke-linejoin="round"/>
<path d="M533.969 323.878H499.664" stroke="#263238" stroke-miterlimit="10" stroke-linecap="round" stroke-linejoin="round"/>
<path d="M523.396 328.117H514.467" stroke="#263238" stroke-miterlimit="10" stroke-linecap="round" stroke-linejoin="round"/>
<path d="M503.188 330.943H529.975" stroke="#263238" stroke-miterlimit="10" stroke-linecap="round" stroke-linejoin="round"/>
<path d="M538.769 325.521V324.424C538.769 318.91 534.309 314.44 528.809 314.44H568.518C574.019 314.44 578.479 318.91 578.479 324.424V325.521C578.479 331.034 574.019 335.504 568.518 335.504H528.809C534.309 335.504 538.769 331.034 538.769 325.521Z" fill="#263238" stroke="#263238" stroke-miterlimit="10" stroke-linecap="round" stroke-linejoin="round"/>
<path d="M486.119 314.44H568.518C574.019 314.44 578.479 318.91 578.479 324.424V325.521C578.479 331.034 574.019 335.504 568.518 335.504H486.119" stroke="#263238" stroke-width="3" stroke-miterlimit="10" stroke-linecap="round" stroke-linejoin="round"/>
<path d="M479.691 314.44H528.574C534.075 314.44 538.535 318.91 538.535 324.424V325.521C538.535 331.034 534.075 335.504 528.574 335.504H479.692" stroke="#263238" stroke-width="3" stroke-miterlimit="10" stroke-linecap="round" stroke-linejoin="round"/>
<path d="M429.944 293.705H492.033C497.534 293.705 501.993 298.175 501.993 303.689V304.786C501.993 310.3 497.534 314.769 492.033 314.769H429.944C429.944 314.769 433.261 309.776 433.261 304.104C433.26 298.431 429.944 293.705 429.944 293.705Z" fill="white" stroke="#263238" stroke-miterlimit="10" stroke-linecap="round" stroke-linejoin="round"/>
<path d="M459.419 293.705H521.507C527.008 293.705 531.468 298.175 531.468 303.689V304.786C531.468 310.3 527.008 314.769 521.507 314.769H459.419C459.419 314.769 462.736 309.776 462.736 304.104C462.736 298.431 459.419 293.705 459.419 293.705Z" fill="white" stroke="#263238" stroke-miterlimit="10" stroke-linecap="round" stroke-linejoin="round"/>
<path d="M531.467 303.689V304.786C531.467 308.793 529.105 312.24 525.706 313.829L524.339 313.884V295.244L525.143 294.403C528.844 295.859 531.467 299.463 531.467 303.689Z" fill="white" stroke="#263238" stroke-miterlimit="10" stroke-linecap="round" stroke-linejoin="round"/>
<path d="M429.944 293.705H521.507C527.008 293.705 531.468 298.175 531.468 303.689V304.786C531.468 310.3 527.008 314.769 521.507 314.769H429.944" stroke="#263238" stroke-width="3" stroke-miterlimit="10" stroke-linecap="round" stroke-linejoin="round"/>
<path d="M524.029 298.35H493.656" stroke="#263238" stroke-miterlimit="10" stroke-linecap="round" stroke-linejoin="round"/>
<path d="M489.317 301.146H484.668" stroke="#263238" stroke-miterlimit="10" stroke-linecap="round" stroke-linejoin="round"/>
<path d="M518.141 301.146H493.346" stroke="#263238" stroke-miterlimit="10" stroke-linecap="round" stroke-linejoin="round"/>
<path d="M524.029 307.36H508.533" stroke="#263238" stroke-miterlimit="10" stroke-linecap="round" stroke-linejoin="round"/>
<path d="M477.54 310.777H474.131" stroke="#263238" stroke-miterlimit="10" stroke-linecap="round" stroke-linejoin="round"/>
<path d="M499.235 310.777H480.329" stroke="#263238" stroke-miterlimit="10" stroke-linecap="round" stroke-linejoin="round"/>
<path d="M518.141 310.777H504.814" stroke="#263238" stroke-miterlimit="10" stroke-linecap="round" stroke-linejoin="round"/>
<path d="M184.593 237.834H205.823C206.72 237.834 207.448 237.105 207.448 236.206V230.022C207.448 229.122 206.72 228.393 205.823 228.393H177.373C176.475 228.393 175.748 229.123 175.748 230.022V232.449" stroke="#263238" stroke-miterlimit="10" stroke-linecap="round" stroke-linejoin="round"/>
<path d="M184.791 247.894V234.666C184.791 233.496 183.845 232.547 182.677 232.547H154.501C153.334 232.547 152.387 233.495 152.387 234.666V250.507" stroke="#263238" stroke-miterlimit="10" stroke-linecap="round" stroke-linejoin="round"/>
<path d="M152.388 263.548V280.045C152.388 281.215 153.334 282.163 154.502 282.163H182.678C183.845 282.163 184.792 281.215 184.792 280.045V251.067" stroke="#263238" stroke-miterlimit="10" stroke-linecap="round" stroke-linejoin="round"/>
<path d="M182.791 240.277H154.405" stroke="#263238" stroke-miterlimit="10" stroke-linecap="round" stroke-linejoin="round"/>
<path d="M169.231 248.857H154.405" stroke="#263238" stroke-miterlimit="10" stroke-linecap="round" stroke-linejoin="round"/>
<path d="M182.791 248.857H171.544" stroke="#263238" stroke-miterlimit="10" stroke-linecap="round" stroke-linejoin="round"/>
<path d="M182.791 257.438H154.405" stroke="#263238" stroke-miterlimit="10" stroke-linecap="round" stroke-linejoin="round"/>
<path d="M159.492 266.019H154.405" stroke="#263238" stroke-miterlimit="10" stroke-linecap="round" stroke-linejoin="round"/>
<path d="M182.791 266.019H162.049" stroke="#263238" stroke-miterlimit="10" stroke-linecap="round" stroke-linejoin="round"/>
<path d="M182.791 274.599H154.405" stroke="#263238" stroke-miterlimit="10" stroke-linecap="round" stroke-linejoin="round"/>
<path d="M201.714 232.901H186.245" stroke="#263238" stroke-miterlimit="10" stroke-linecap="round" stroke-linejoin="round"/>
<path d="M404.778 69.7824H430.984C432.092 69.7824 432.991 68.8824 432.991 67.7713V60.1376C432.991 59.0274 432.093 58.1274 430.984 58.1274H395.866C394.759 58.1274 393.86 59.0274 393.86 60.1376V63.1339" stroke="#263238" stroke-miterlimit="10" stroke-linecap="round" stroke-linejoin="round"/>
<path d="M405.023 82.1992V65.8709C405.023 64.4267 403.855 63.256 402.414 63.256H367.634C366.193 63.256 365.025 64.4267 365.025 65.8709V85.4245" stroke="#263238" stroke-miterlimit="10" stroke-linecap="round" stroke-linejoin="round"/>
<path d="M365.025 101.523V121.887C365.025 123.331 366.193 124.502 367.634 124.502H402.414C403.855 124.502 405.023 123.331 405.023 121.887V86.1164" stroke="#263238" stroke-miterlimit="10" stroke-linecap="round" stroke-linejoin="round"/>
<path d="M402.554 72.7967H367.515" stroke="#263238" stroke-miterlimit="10" stroke-linecap="round" stroke-linejoin="round"/>
<path d="M385.816 83.3888H367.515" stroke="#263238" stroke-miterlimit="10" stroke-linecap="round" stroke-linejoin="round"/>
<path d="M402.554 83.3888H388.672" stroke="#263238" stroke-miterlimit="10" stroke-linecap="round" stroke-linejoin="round"/>
<path d="M402.554 93.981H367.515" stroke="#263238" stroke-miterlimit="10" stroke-linecap="round" stroke-linejoin="round"/>
<path d="M373.794 104.573H367.515" stroke="#263238" stroke-miterlimit="10" stroke-linecap="round" stroke-linejoin="round"/>
<path d="M402.554 104.573H376.95" stroke="#263238" stroke-miterlimit="10" stroke-linecap="round" stroke-linejoin="round"/>
<path d="M402.554 115.165H367.515" stroke="#263238" stroke-miterlimit="10" stroke-linecap="round" stroke-linejoin="round"/>
<path d="M425.913 63.6913H406.818" stroke="#263238" stroke-miterlimit="10" stroke-linecap="round" stroke-linejoin="round"/>
<path d="M359.816 102.575C361.276 102.575 362.726 102.022 363.842 100.938L367.574 97.2281C368.024 96.7805 368.103 96.0905 367.767 95.552C367.553 95.2075 367.199 94.9804 366.798 94.9274C366.395 94.8754 365.996 95.0041 365.701 95.2814L364.964 95.9732L368.716 88.2269C368.902 87.8313 368.92 87.3893 368.766 86.9805C368.612 86.5716 368.307 86.2508 367.908 86.0766C367.117 85.7321 366.205 86.0738 365.833 86.8546L364.414 89.5954C364.127 89.267 363.791 89.073 363.411 89.0162C362.803 88.9263 362.247 89.2244 361.931 89.443C361.635 89.0796 361.282 88.8685 360.878 88.8127C360.384 88.7446 359.929 88.9357 359.626 89.1146C359.426 88.6594 359.04 88.4228 358.526 88.4531C358.026 88.4824 357.56 88.789 357.307 89.2528L354.658 94.1381C353.36 96.7019 354.1 99.7806 356.414 101.465C357.437 102.209 358.629 102.575 359.816 102.575ZM366.623 95.5189C366.655 95.5189 366.688 95.5208 366.72 95.5255C366.942 95.5549 367.137 95.6807 367.256 95.871C367.442 96.1691 367.398 96.5505 367.15 96.7984L363.421 100.506C361.61 102.264 358.812 102.464 356.769 100.976C354.696 99.4664 354.033 96.7095 355.193 94.4192L357.838 89.5414C357.991 89.2584 358.269 89.0729 358.561 89.0559C358.808 89.0417 359.071 89.1013 359.158 89.6531L359.244 90.2067L359.658 89.831C359.662 89.8263 360.223 89.3304 360.8 89.4127C361.109 89.4562 361.384 89.6663 361.616 90.0373L361.811 90.3487L362.078 90.097C362.083 90.0922 362.701 89.5225 363.326 89.6162C363.662 89.6664 363.957 89.9105 364.205 90.3421L364.491 90.8399L366.377 87.1167C366.609 86.6312 367.176 86.4183 367.669 86.6322C367.918 86.7401 368.108 86.9398 368.203 87.1943C368.299 87.4489 368.288 87.7243 368.172 87.9704L363.073 98.5777L366.114 95.7233C366.253 95.5908 366.434 95.5189 366.623 95.5189Z" fill="#263238"/>
<path d="M363.079 93.7643C363.196 93.7643 363.308 93.6952 363.357 93.5807L364.744 90.3071C364.809 90.1537 364.737 89.9758 364.584 89.9105C364.431 89.8452 364.254 89.9171 364.189 90.0704L362.802 93.3441C362.737 93.4974 362.808 93.6753 362.961 93.7397C363 93.7567 363.04 93.7643 363.079 93.7643Z" fill="#263238"/>
<path d="M360.663 93.0469C360.78 93.0469 360.893 92.9778 360.941 92.8623L362.148 89.9919C362.213 89.8386 362.141 89.6607 361.988 89.5963C361.834 89.5319 361.657 89.6039 361.593 89.7572L360.385 92.6276C360.319 92.7809 360.392 92.9589 360.545 93.0232C360.585 93.0393 360.624 93.0469 360.663 93.0469Z" fill="#263238"/>
<path d="M358.292 92.4194C358.406 92.4194 358.515 92.3541 358.566 92.2444L359.729 89.7335C359.799 89.5821 359.734 89.4023 359.583 89.3323C359.432 89.2622 359.252 89.3275 359.183 89.479L358.019 91.9907C357.949 92.1421 358.015 92.322 358.166 92.392C358.206 92.41 358.25 92.4194 358.292 92.4194Z" fill="#263238"/>
<path d="M382.766 51.3021L386.022 54.5658L382.766 57.8295L379.51 54.5658L382.766 51.3021Z" stroke="#263238" stroke-miterlimit="10" stroke-linecap="round" stroke-linejoin="round"/>
<path d="M410.867 81.1562C410.867 79.8209 411.947 78.7382 413.279 78.7382C414.611 78.7382 415.691 79.8209 415.691 81.1562C415.691 82.4916 414.611 83.5743 413.279 83.5743C411.947 83.5743 410.867 82.4916 410.867 81.1562Z" stroke="#263238" stroke-miterlimit="10" stroke-linecap="round" stroke-linejoin="round"/>
<path d="M82.4725 2.14176L91.8193 11.5106L82.4725 20.8794L73.1256 11.5106L82.4725 2.14176Z" stroke="#263238" stroke-miterlimit="10" stroke-linecap="round" stroke-linejoin="round"/>
<path d="M404.797 259.488L414.144 268.857L404.797 278.226L395.451 268.857L404.797 259.488Z" stroke="#263238" stroke-miterlimit="10" stroke-linecap="round" stroke-linejoin="round"/>
<path d="M445.518 241.243L454.865 250.611L445.518 259.98L436.171 250.611L445.518 241.243Z" stroke="#263238" stroke-miterlimit="10" stroke-linecap="round" stroke-linejoin="round"/>
<path d="M99.8453 19.3192L104.943 24.4293L99.8453 29.5393L94.7473 24.4293L99.8453 19.3192Z" stroke="#263238" stroke-miterlimit="10" stroke-linecap="round" stroke-linejoin="round"/>
<path d="M98.1485 235.083C96.0627 235.083 94.3718 233.388 94.3718 231.298C94.3718 229.207 96.0627 227.512 98.1485 227.512C100.234 227.512 101.925 229.207 101.925 231.298C101.925 233.388 100.234 235.083 98.1485 235.083Z" stroke="#263238" stroke-miterlimit="10" stroke-linecap="round" stroke-linejoin="round"/>
<path d="M411.496 202.279C409.411 202.279 407.72 200.584 407.72 198.493C407.72 196.403 409.411 194.708 411.496 194.708C413.582 194.708 415.273 196.403 415.273 198.493C415.273 200.584 413.582 202.279 411.496 202.279Z" stroke="#263238" stroke-miterlimit="10" stroke-linecap="round" stroke-linejoin="round"/>
<path d="M244.868 22.8644C242.782 22.8644 241.092 21.1695 241.092 19.0788C241.092 16.988 242.782 15.2932 244.868 15.2932C246.954 15.2932 248.645 16.988 248.645 19.0788C248.645 21.1695 246.954 22.8644 244.868 22.8644Z" stroke="#263238" stroke-miterlimit="10" stroke-linecap="round" stroke-linejoin="round"/>
<path d="M42.4415 53.3736H225.614V218.994H42.4415V53.3736Z" fill="#1A8EF1"/>
<path d="M30.6494 44.856H215.273V211.191H30.6494V44.856Z" fill="white" stroke="#263238" stroke-miterlimit="10" stroke-linecap="round" stroke-linejoin="round"/>
<path d="M30.6495 44.856H166.641V67.4239H30.6495V44.856Z" fill="#263238" stroke="#263238" stroke-miterlimit="10" stroke-linecap="round" stroke-linejoin="round"/>
<path d="M30.6494 44.856H215.273V56.5914H30.6494V44.856Z" fill="white" stroke="#263238" stroke-miterlimit="10" stroke-linecap="round" stroke-linejoin="round"/>
<path d="M94.9999 84H207.575V156.217H94.9999V84Z" fill="#263238" stroke="#263238" stroke-miterlimit="10" stroke-linecap="round" stroke-linejoin="round"/>
<path d="M94.9999 148.174H207.575V156.218H94.9999V148.174Z" fill="white" stroke="#263238" stroke-miterlimit="10" stroke-linecap="round" stroke-linejoin="round"/>
<path d="M94.9999 151.022H207.575V153.37H94.9999V151.022Z" fill="white" stroke="#263238" stroke-miterlimit="10" stroke-linecap="round" stroke-linejoin="round"/>
<path d="M167.385 128.44C172.171 120.616 169.723 110.385 161.918 105.588C154.113 100.791 143.906 103.245 139.12 111.068C134.334 118.892 136.782 129.123 144.587 133.92C152.393 138.717 162.6 136.263 167.385 128.44Z" fill="#1A8EF1"/>
<path d="M162.87 120.116L148.447 111.768V128.463L162.87 120.116Z" fill="white"/>
<path d="M40.0307 83.6727H84.4849V112.19H40.0307V83.6727Z" fill="#263238" stroke="#263238" stroke-miterlimit="10" stroke-linecap="round" stroke-linejoin="round"/>
<path d="M40.0307 109.014H84.4849V112.19H40.0307V109.014Z" fill="white" stroke="#263238" stroke-miterlimit="10" stroke-linecap="round" stroke-linejoin="round"/>
<path d="M40.0307 110.139H84.4849V111.065H40.0307V110.139Z" fill="white" stroke="#263238" stroke-miterlimit="10" stroke-linecap="round" stroke-linejoin="round"/>
<path d="M63.0294 104.354C66.6447 104.354 69.5755 101.416 69.5755 97.7921C69.5755 94.1684 66.6447 91.2307 63.0294 91.2307C59.4141 91.2307 56.4834 94.1684 56.4834 97.7921C56.4834 101.416 59.4141 104.354 63.0294 104.354Z" fill="#1A8EF1"/>
<path d="M66.8232 97.9341L61.127 94.6387V101.23L66.8232 97.9341Z" fill="white"/>
<path d="M40.0307 115.009H84.4849V143.526H40.0307V115.009Z" fill="#263238" stroke="#263238" stroke-miterlimit="10" stroke-linecap="round" stroke-linejoin="round"/>
<path d="M40.0307 140.35H84.4849V143.526H40.0307V140.35Z" fill="white" stroke="#263238" stroke-miterlimit="10" stroke-linecap="round" stroke-linejoin="round"/>
<path d="M40.0307 141.475H84.4849V142.402H40.0307V141.475Z" fill="white" stroke="#263238" stroke-miterlimit="10" stroke-linecap="round" stroke-linejoin="round"/>
<path d="M69.5755 129.128C69.5755 125.505 66.6447 122.567 63.0294 122.567C59.4141 122.567 56.4834 125.505 56.4834 129.128C56.4834 132.752 59.4141 135.691 63.0294 135.691C66.6447 135.69 69.5755 132.752 69.5755 129.128Z" fill="#1A8EF1"/>
<path d="M66.8232 129.27L61.127 125.974V132.567L66.8232 129.27Z" fill="white"/>
<path d="M40.0307 146.345H84.4849V174.863H40.0307V146.345Z" fill="#263238" stroke="#263238" stroke-miterlimit="10" stroke-linecap="round" stroke-linejoin="round"/>
<path d="M40.0307 171.686H84.4849V174.863H40.0307V171.686Z" fill="white" stroke="#263238" stroke-miterlimit="10" stroke-linecap="round" stroke-linejoin="round"/>
<path d="M40.0307 172.811H84.4849V173.737H40.0307V172.811Z" fill="white" stroke="#263238" stroke-miterlimit="10" stroke-linecap="round" stroke-linejoin="round"/>
<path d="M69.5755 160.465C69.5755 156.841 66.6447 153.903 63.0294 153.903C59.4141 153.903 56.4834 156.841 56.4834 160.465C56.4834 164.089 59.4141 167.027 63.0294 167.027C66.6447 167.026 69.5755 164.089 69.5755 160.465Z" fill="#1A8EF1"/>
<path d="M66.8232 160.607L61.127 157.31V163.903L66.8232 160.607Z" fill="white"/>
<path d="M40.0307 177.682H84.4849V206.199H40.0307V177.682Z" fill="#263238" stroke="#263238" stroke-miterlimit="10" stroke-linecap="round" stroke-linejoin="round"/>
<path d="M40.0307 203.023H84.4849V206.199H40.0307V203.023Z" fill="white" stroke="#263238" stroke-miterlimit="10" stroke-linecap="round" stroke-linejoin="round"/>
<path d="M40.0307 204.147H84.4849V205.074H40.0307V204.147Z" fill="white" stroke="#263238" stroke-miterlimit="10" stroke-linecap="round" stroke-linejoin="round"/>
<path d="M69.5755 191.8C69.5755 188.177 66.6447 185.239 63.0294 185.239C59.4141 185.239 56.4834 188.177 56.4834 191.8C56.4834 195.424 59.4141 198.362 63.0294 198.362C66.6447 198.363 69.5755 195.425 69.5755 191.8Z" fill="#1A8EF1"/>
<path d="M66.8232 191.943L61.127 188.647V195.239L66.8232 191.943Z" fill="white"/>
<path d="M206.292 163.514H120.082" stroke="#263238" stroke-miterlimit="10" stroke-linecap="round" stroke-linejoin="round"/>
<path d="M206.292 183.93H155.075" stroke="#263238" stroke-miterlimit="10" stroke-linecap="round" stroke-linejoin="round"/>
<path d="M206.292 192.002H155.075" stroke="#263238" stroke-miterlimit="10" stroke-linecap="round" stroke-linejoin="round"/>
<path d="M206.292 200.073H155.075" stroke="#263238" stroke-miterlimit="10" stroke-linecap="round" stroke-linejoin="round"/>
<path d="M145.246 183.93H94.0297" stroke="#263238" stroke-miterlimit="10" stroke-linecap="round" stroke-linejoin="round"/>
<path d="M145.246 192.002H94.0297" stroke="#263238" stroke-miterlimit="10" stroke-linecap="round" stroke-linejoin="round"/>
<path d="M145.246 200.073H94.0297" stroke="#263238" stroke-miterlimit="10" stroke-linecap="round" stroke-linejoin="round"/>
<path d="M206.292 170.161H97.3456" stroke="#263238" stroke-miterlimit="10" stroke-linecap="round" stroke-linejoin="round"/>
<path d="M32.9268 83.721H37.3721V207.253H32.9268V83.721Z" fill="#A2A7A9"/>
<path d="M32.9268 113.693H37.3721V129.489H32.9268V113.693Z" fill="#263238"/>
<path d="M78.3203 211.423V252.118" stroke="#263238" stroke-miterlimit="10" stroke-linecap="round" stroke-linejoin="round"/>
<path d="M142.624 327.394L142.314 327.695H141.611C142.282 327.551 142.624 327.394 142.624 327.394Z" fill="#263238" stroke="#263238" stroke-miterlimit="10" stroke-linecap="round" stroke-linejoin="round"/>
</g>
<defs>
<clipPath id="clip0_373_1736">
<rect width="660" height="339" fill="white" transform="matrix(-1 0 0 1 660 0)"/>
</clipPath>
</defs>
</svg>
